<svg width="22" height="27" viewBox="0 0 22 27" fill="none" xmlns="http://www.w3.org/2000/svg">
<path d="M10.8 26.8008C10.6667 26.8008 10.5333 26.7674 10.4 26.7008L6.3 24.7008C4.36667 23.7674 2.83333 22.3674 1.7 20.5008C0.566667 18.6341 0 16.6008 0 14.4008V4.30078C0 4.03411 0.0833333 3.81745 0.25 3.65078C0.416667 3.48411 0.6 3.40078 0.8 3.40078H3.7C4.9 3.40078 6.03333 3.06745 7.1 2.40078L10.3 0.300781C10.6333 0.10078 10.9667 0.10078 11.3 0.300781L14.5 2.40078C15.5 3.06745 16.6 3.40078 17.8 3.40078H20.7C20.9667 3.33411 21.1833 3.40078 21.35 3.60078C21.5167 3.80078 21.6 4.03411 21.6 4.30078V14.4008C21.6 16.6008 21.0333 18.6341 19.9 20.5008C18.7667 22.3674 17.2 23.7674 15.2 24.7008L11.2 26.7008C11.0667 26.7674 10.9333 26.8008 10.8 26.8008ZM1.7 5.20078V14.4008C1.7 16.2674 2.2 17.9841 3.2 19.5508C4.2 21.1174 5.5 22.3008 7.1 23.1008L10.8 24.9008L14.5 23.1008C16.1 22.3008 17.4 21.1174 18.4 19.5508C19.4 17.9841 19.9 16.2674 19.9 14.4008V5.20078H17.9C16.3 5.20078 14.8333 4.76745 13.5 3.90078L10.8 2.10078L8.1 3.90078C6.76667 4.76745 5.3 5.20078 3.7 5.20078H1.7ZM10.8 14.2008C9.66667 14.2008 8.71667 13.8008 7.95 13.0008C7.18333 12.2008 6.8 11.2508 6.8 10.1508C6.8 9.05078 7.18333 8.11745 7.95 7.35078C8.71667 6.58411 9.66667 6.20078 10.8 6.20078C11.9333 6.20078 12.8833 6.58411 13.65 7.35078C14.4167 8.11745 14.8 9.05078 14.8 10.1508C14.8 11.2508 14.4167 12.2008 13.65 13.0008C12.8833 13.8008 11.9333 14.2008 10.8 14.2008ZM10.8 7.90078C10.2 7.90078 9.68333 8.11745 9.25 8.55078C8.81667 8.98411 8.6 9.51745 8.6 10.1508C8.6 10.7841 8.81667 11.3174 9.25 11.7508C9.68333 12.1841 10.2 12.4008 10.8 12.4008C11.4 12.4008 11.9167 12.1841 12.35 11.7508C12.7833 11.3174 13 10.7841 13 10.1508C13 9.51745 12.7833 8.98411 12.35 8.55078C11.9167 8.11745 11.4 7.90078 10.8 7.90078ZM16.1 19.1008H14.4C14.4 18.5674 14.2167 18.1341 13.85 17.8008C13.4833 17.4674 13.0667 17.3008 12.6 17.3008H9C8.53333 17.3008 8.11667 17.4674 7.75 17.8008C7.38333 18.1341 7.2 18.5674 7.2 19.1008H5.5C5.5 18.1008 5.83333 17.2508 6.5 16.5508C7.16667 15.8508 8 15.5008 9 15.5008H12.6C13.5333 15.5008 14.35 15.8508 15.05 16.5508C15.75 17.2508 16.1 18.1008 16.1 19.1008Z" fill="#06173D" style="fill:#06173D;fill:color(display-p3 0.0235 0.0902 0.2392);fill-opacity:1;"/>
<path d="M10.8 26.8008C10.6667 26.8008 10.5333 26.7674 10.4 26.7008L6.3 24.7008C4.36667 23.7674 2.83333 22.3674 1.7 20.5008C0.566667 18.6341 0 16.6008 0 14.4008V4.30078C0 4.03411 0.0833333 3.81745 0.25 3.65078C0.416667 3.48411 0.6 3.40078 0.8 3.40078H3.7C4.9 3.40078 6.03333 3.06745 7.1 2.40078L10.3 0.300781C10.6333 0.10078 10.9667 0.10078 11.3 0.300781L14.5 2.40078C15.5 3.06745 16.6 3.40078 17.8 3.40078H20.7C20.9667 3.33411 21.1833 3.40078 21.35 3.60078C21.5167 3.80078 21.6 4.03411 21.6 4.30078V14.4008C21.6 16.6008 21.0333 18.6341 19.9 20.5008C18.7667 22.3674 17.2 23.7674 15.2 24.7008L11.2 26.7008C11.0667 26.7674 10.9333 26.8008 10.8 26.8008ZM1.7 5.20078V14.4008C1.7 16.2674 2.2 17.9841 3.2 19.5508C4.2 21.1174 5.5 22.3008 7.1 23.1008L10.8 24.9008L14.5 23.1008C16.1 22.3008 17.4 21.1174 18.4 19.5508C19.4 17.9841 19.9 16.2674 19.9 14.4008V5.20078H17.9C16.3 5.20078 14.8333 4.76745 13.5 3.90078L10.8 2.10078L8.1 3.90078C6.76667 4.76745 5.3 5.20078 3.7 5.20078H1.7ZM10.8 14.2008C9.66667 14.2008 8.71667 13.8008 7.95 13.0008C7.18333 12.2008 6.8 11.2508 6.8 10.1508C6.8 9.05078 7.18333 8.11745 7.95 7.35078C8.71667 6.58411 9.66667 6.20078 10.8 6.20078C11.9333 6.20078 12.8833 6.58411 13.65 7.35078C14.4167 8.11745 14.8 9.05078 14.8 10.1508C14.8 11.2508 14.4167 12.2008 13.65 13.0008C12.8833 13.8008 11.9333 14.2008 10.8 14.2008ZM10.8 7.90078C10.2 7.90078 9.68333 8.11745 9.25 8.55078C8.81667 8.98411 8.6 9.51745 8.6 10.1508C8.6 10.7841 8.81667 11.3174 9.25 11.7508C9.68333 12.1841 10.2 12.4008 10.8 12.4008C11.4 12.4008 11.9167 12.1841 12.35 11.7508C12.7833 11.3174 13 10.7841 13 10.1508C13 9.51745 12.7833 8.98411 12.35 8.55078C11.9167 8.11745 11.4 7.90078 10.8 7.90078ZM16.1 19.1008H14.4C14.4 18.5674 14.2167 18.1341 13.85 17.8008C13.4833 17.4674 13.0667 17.3008 12.6 17.3008H9C8.53333 17.3008 8.11667 17.4674 7.75 17.8008C7.38333 18.1341 7.2 18.5674 7.2 19.1008H5.5C5.5 18.1008 5.83333 17.2508 6.5 16.5508C7.16667 15.8508 8 15.5008 9 15.5008H12.6C13.5333 15.5008 14.35 15.8508 15.05 16.5508C15.75 17.2508 16.1 18.1008 16.1 19.1008Z" fill="black" fill-opacity="0.2" style="fill:black;fill-opacity:0.2;"/>
</svg>
