<svg width="28" height="28" viewBox="0 0 28 28" fill="none" xmlns="http://www.w3.org/2000/svg">
<path d="M26.4953 18.8008L17.6953 6.70078L18.8953 3.00078C19.0953 2.46745 19.012 1.95078 18.6453 1.45078C18.2786 0.950781 17.7953 0.700781 17.1953 0.700781H10.7953C10.1953 0.700781 9.71198 0.950781 9.34531 1.45078C8.97865 1.95078 8.89531 2.46745 9.09531 3.00078L10.3953 6.70078L1.49531 18.8008C0.961979 19.5341 0.695312 20.4008 0.695312 21.4008V22.9008C0.695312 24.1008 1.12865 25.1341 1.99531 26.0008C2.86198 26.8674 3.89531 27.3008 5.09531 27.3008H22.8953C24.0953 27.3008 25.1286 26.8674 25.9953 26.0008C26.862 25.1341 27.2953 24.1008 27.2953 22.9008V21.4008C27.362 20.4008 27.0953 19.5341 26.4953 18.8008ZM17.1953 2.40078L15.9953 6.00078H11.9953L10.7953 2.40078H17.1953ZM25.4953 22.9008C25.4953 23.6341 25.2453 24.2674 24.7453 24.8008C24.2453 25.3341 23.6286 25.6008 22.8953 25.6008H5.09531C4.36198 25.6008 3.72865 25.3341 3.19531 24.8008C2.66198 24.2674 2.39531 23.6341 2.39531 22.9008V21.4008C2.46198 20.8008 2.66198 20.2674 2.99531 19.8008L11.7953 7.80078H16.1953L24.9953 19.8008C25.3953 20.2674 25.5953 20.8008 25.5953 21.4008L25.4953 22.9008ZM16.6953 17.6008H12.1953V16.1008H17.1953V14.4008H14.8953V13.1008H13.0953V14.3008H11.2953C11.0286 14.3674 10.812 14.4841 10.6453 14.6508C10.4786 14.8174 10.3953 15.0008 10.3953 15.2008V18.4008C10.3953 18.6674 10.4786 18.8841 10.6453 19.0508C10.812 19.2174 11.0286 19.3008 11.2953 19.3008H15.7953V20.8008H10.7953V22.5008H13.0953V23.8008H14.8953V22.5008H16.6953C16.8953 22.5008 17.0953 22.4174 17.2953 22.2508C17.4953 22.0841 17.5953 21.8674 17.5953 21.6008V18.4008C17.5953 18.2008 17.4953 18.0174 17.2953 17.8508C17.0953 17.6841 16.8953 17.6008 16.6953 17.6008Z" fill="#06173D" style="fill:#06173D;fill:color(display-p3 0.0235 0.0902 0.2392);fill-opacity:1;"/>
<path d="M26.4953 18.8008L17.6953 6.70078L18.8953 3.00078C19.0953 2.46745 19.012 1.95078 18.6453 1.45078C18.2786 0.950781 17.7953 0.700781 17.1953 0.700781H10.7953C10.1953 0.700781 9.71198 0.950781 9.34531 1.45078C8.97865 1.95078 8.89531 2.46745 9.09531 3.00078L10.3953 6.70078L1.49531 18.8008C0.961979 19.5341 0.695312 20.4008 0.695312 21.4008V22.9008C0.695312 24.1008 1.12865 25.1341 1.99531 26.0008C2.86198 26.8674 3.89531 27.3008 5.09531 27.3008H22.8953C24.0953 27.3008 25.1286 26.8674 25.9953 26.0008C26.862 25.1341 27.2953 24.1008 27.2953 22.9008V21.4008C27.362 20.4008 27.0953 19.5341 26.4953 18.8008ZM17.1953 2.40078L15.9953 6.00078H11.9953L10.7953 2.40078H17.1953ZM25.4953 22.9008C25.4953 23.6341 25.2453 24.2674 24.7453 24.8008C24.2453 25.3341 23.6286 25.6008 22.8953 25.6008H5.09531C4.36198 25.6008 3.72865 25.3341 3.19531 24.8008C2.66198 24.2674 2.39531 23.6341 2.39531 22.9008V21.4008C2.46198 20.8008 2.66198 20.2674 2.99531 19.8008L11.7953 7.80078H16.1953L24.9953 19.8008C25.3953 20.2674 25.5953 20.8008 25.5953 21.4008L25.4953 22.9008ZM16.6953 17.6008H12.1953V16.1008H17.1953V14.4008H14.8953V13.1008H13.0953V14.3008H11.2953C11.0286 14.3674 10.812 14.4841 10.6453 14.6508C10.4786 14.8174 10.3953 15.0008 10.3953 15.2008V18.4008C10.3953 18.6674 10.4786 18.8841 10.6453 19.0508C10.812 19.2174 11.0286 19.3008 11.2953 19.3008H15.7953V20.8008H10.7953V22.5008H13.0953V23.8008H14.8953V22.5008H16.6953C16.8953 22.5008 17.0953 22.4174 17.2953 22.2508C17.4953 22.0841 17.5953 21.8674 17.5953 21.6008V18.4008C17.5953 18.2008 17.4953 18.0174 17.2953 17.8508C17.0953 17.6841 16.8953 17.6008 16.6953 17.6008Z" fill="black" fill-opacity="0.2" style="fill:black;fill-opacity:0.2;"/>
</svg>
