<svg width="30" height="30" viewBox="0 0 30 30" fill="none" xmlns="http://www.w3.org/2000/svg">
<path d="M22.65 17.7989C21.85 17.7989 21.15 17.5323 20.55 16.9989L19.15 15.5989L17.65 17.0989C17.45 17.2989 17.2166 17.3989 16.95 17.3989C16.6833 17.3989 16.45 17.2989 16.25 17.0989C16.05 16.8989 15.95 16.6656 15.95 16.3989C15.95 16.1323 16.05 15.8989 16.25 15.6989L18.55 13.4989C18.6833 13.2989 18.9 13.1989 19.2 13.1989C19.5 13.1989 19.75 13.2989 19.95 13.4989L22.05 15.5989C22.3166 15.7989 22.6166 15.8323 22.95 15.6989C23.2833 15.5656 23.4666 15.3489 23.5 15.0489C23.5333 14.7489 23.45 14.4989 23.25 14.2989L21.15 12.1989C20.95 11.9989 20.85 11.7656 20.85 11.4989C20.85 11.2323 20.95 10.9989 21.15 10.7989L23.75 8.19893C23.95 7.99893 24.1833 7.89893 24.45 7.89893C24.7166 7.89893 24.95 7.99893 25.15 8.19893L26.35 9.39893C26.55 9.59893 26.7666 9.69893 27 9.69893C27.2333 9.69893 27.4333 9.6156 27.6 9.44893C27.7666 9.28226 27.85 9.0656 27.85 8.79893C27.85 8.53226 27.7833 8.33226 27.65 8.19893L26.35 6.89893C26.15 6.7656 26.05 6.54893 26.05 6.24893C26.05 5.94893 26.15 5.69893 26.35 5.49893L27.25 4.69893C27.5166 4.43226 27.6666 4.08226 27.7 3.64893C27.7333 3.2156 27.5833 2.84893 27.25 2.54893C26.9166 2.24893 26.5333 2.1156 26.1 2.14893C25.6666 2.18226 25.3166 2.3656 25.05 2.69893C24.85 2.89893 24.6166 2.98227 24.35 2.94893C24.0833 2.9156 23.85 2.79893 23.65 2.59893C23.45 2.39893 23.3666 2.1656 23.4 1.89893C23.4333 1.63227 23.55 1.39893 23.75 1.19893C24.4166 0.532265 25.2 0.198931 26.1 0.198931C27 0.198931 27.8166 0.515598 28.55 1.14893C29.2833 1.78226 29.65 2.59893 29.65 3.59893C29.65 4.59893 29.3166 5.43226 28.65 6.09893L28.45 6.19893L29.05 6.79893C29.5833 7.33226 29.85 7.99893 29.85 8.79893C29.85 9.59893 29.5666 10.2823 29 10.8489C28.4333 11.4156 27.7666 11.6989 27 11.6989C26.2333 11.6989 25.55 11.3989 24.95 10.7989L24.45 10.2989L23.25 11.4989L24.65 12.9989C25.1833 13.5323 25.45 14.1989 25.45 14.9989C25.45 15.7989 25.1666 16.4656 24.6 16.9989C24.0333 17.5323 23.3833 17.7989 22.65 17.7989ZM22.55 3.69893C22.35 3.49893 22.1166 3.39893 21.85 3.39893C21.5833 3.39893 21.35 3.49893 21.15 3.69893L10.35 14.5989C9.08329 14.1323 7.78329 14.0156 6.44995 14.2489C5.11662 14.4823 3.93329 15.0156 2.89995 15.8489C1.86662 16.6823 1.08329 17.7323 0.549954 18.9989C0.0166202 20.2656 -0.166713 21.5489 -4.65028e-05 22.8489C0.16662 24.1489 0.61662 25.3489 1.34995 26.4489C2.08329 27.5489 3.06662 28.3989 4.29995 28.9989C5.53329 29.5989 6.81662 29.8823 8.14995 29.8489C9.48329 29.8156 10.7166 29.4489 11.85 28.7489C12.9833 28.0489 13.8833 27.1156 14.55 25.9489C15.2166 24.7823 15.5666 23.5323 15.6 22.1989C15.6333 20.8656 15.35 19.6156 14.75 18.4489C14.15 17.2823 13.3166 16.2989 12.25 15.4989L22.55 5.09893C22.75 4.89893 22.85 4.6656 22.85 4.39893C22.85 4.13226 22.75 3.89893 22.55 3.69893ZM13.55 21.9989C13.55 23.0656 13.3 24.0489 12.8 24.9489C12.3 25.8489 11.5833 26.5656 10.65 27.0989C9.71662 27.6323 8.71662 27.8989 7.64995 27.8989C6.58329 27.8989 5.59995 27.6323 4.69995 27.0989C3.79995 26.5656 3.09995 25.8489 2.59995 24.9489C2.09995 24.0489 1.84995 23.0656 1.84995 21.9989C1.84995 20.9323 2.09995 19.9489 2.59995 19.0489C3.09995 18.1489 3.79995 17.4323 4.69995 16.8989C5.59995 16.3656 6.58329 16.0989 7.64995 16.0989C8.71662 16.0989 9.71662 16.3656 10.65 16.8989C11.5833 17.4323 12.3 18.1489 12.8 19.0489C13.3 19.9489 13.55 20.9323 13.55 21.9989ZM5.84995 24.7989C5.64995 24.8656 5.44995 24.8323 5.24995 24.6989C5.04995 24.5656 4.91662 24.3989 4.84995 24.1989C4.78329 23.9989 4.76662 23.7989 4.79995 23.5989C4.83329 23.3989 4.94995 23.2323 5.14995 23.0989L6.04995 22.1989C6.31662 21.9323 6.63329 21.8323 6.99995 21.8989C7.36662 21.9656 7.59995 22.1823 7.69995 22.5489C7.79995 22.9156 7.71662 23.2323 7.44995 23.4989L6.54995 24.4989C6.34995 24.6989 6.11662 24.7989 5.84995 24.7989Z" fill="#06173D" style="fill:#06173D;fill:color(display-p3 0.0235 0.0902 0.2392);fill-opacity:1;"/>
<path d="M22.65 17.7989C21.85 17.7989 21.15 17.5323 20.55 16.9989L19.15 15.5989L17.65 17.0989C17.45 17.2989 17.2166 17.3989 16.95 17.3989C16.6833 17.3989 16.45 17.2989 16.25 17.0989C16.05 16.8989 15.95 16.6656 15.95 16.3989C15.95 16.1323 16.05 15.8989 16.25 15.6989L18.55 13.4989C18.6833 13.2989 18.9 13.1989 19.2 13.1989C19.5 13.1989 19.75 13.2989 19.95 13.4989L22.05 15.5989C22.3166 15.7989 22.6166 15.8323 22.95 15.6989C23.2833 15.5656 23.4666 15.3489 23.5 15.0489C23.5333 14.7489 23.45 14.4989 23.25 14.2989L21.15 12.1989C20.95 11.9989 20.85 11.7656 20.85 11.4989C20.85 11.2323 20.95 10.9989 21.15 10.7989L23.75 8.19893C23.95 7.99893 24.1833 7.89893 24.45 7.89893C24.7166 7.89893 24.95 7.99893 25.15 8.19893L26.35 9.39893C26.55 9.59893 26.7666 9.69893 27 9.69893C27.2333 9.69893 27.4333 9.6156 27.6 9.44893C27.7666 9.28226 27.85 9.0656 27.85 8.79893C27.85 8.53226 27.7833 8.33226 27.65 8.19893L26.35 6.89893C26.15 6.7656 26.05 6.54893 26.05 6.24893C26.05 5.94893 26.15 5.69893 26.35 5.49893L27.25 4.69893C27.5166 4.43226 27.6666 4.08226 27.7 3.64893C27.7333 3.2156 27.5833 2.84893 27.25 2.54893C26.9166 2.24893 26.5333 2.1156 26.1 2.14893C25.6666 2.18226 25.3166 2.3656 25.05 2.69893C24.85 2.89893 24.6166 2.98227 24.35 2.94893C24.0833 2.9156 23.85 2.79893 23.65 2.59893C23.45 2.39893 23.3666 2.1656 23.4 1.89893C23.4333 1.63227 23.55 1.39893 23.75 1.19893C24.4166 0.532265 25.2 0.198931 26.1 0.198931C27 0.198931 27.8166 0.515598 28.55 1.14893C29.2833 1.78226 29.65 2.59893 29.65 3.59893C29.65 4.59893 29.3166 5.43226 28.65 6.09893L28.45 6.19893L29.05 6.79893C29.5833 7.33226 29.85 7.99893 29.85 8.79893C29.85 9.59893 29.5666 10.2823 29 10.8489C28.4333 11.4156 27.7666 11.6989 27 11.6989C26.2333 11.6989 25.55 11.3989 24.95 10.7989L24.45 10.2989L23.25 11.4989L24.65 12.9989C25.1833 13.5323 25.45 14.1989 25.45 14.9989C25.45 15.7989 25.1666 16.4656 24.6 16.9989C24.0333 17.5323 23.3833 17.7989 22.65 17.7989ZM22.55 3.69893C22.35 3.49893 22.1166 3.39893 21.85 3.39893C21.5833 3.39893 21.35 3.49893 21.15 3.69893L10.35 14.5989C9.08329 14.1323 7.78329 14.0156 6.44995 14.2489C5.11662 14.4823 3.93329 15.0156 2.89995 15.8489C1.86662 16.6823 1.08329 17.7323 0.549954 18.9989C0.0166202 20.2656 -0.166713 21.5489 -4.65028e-05 22.8489C0.16662 24.1489 0.61662 25.3489 1.34995 26.4489C2.08329 27.5489 3.06662 28.3989 4.29995 28.9989C5.53329 29.5989 6.81662 29.8823 8.14995 29.8489C9.48329 29.8156 10.7166 29.4489 11.85 28.7489C12.9833 28.0489 13.8833 27.1156 14.55 25.9489C15.2166 24.7823 15.5666 23.5323 15.6 22.1989C15.6333 20.8656 15.35 19.6156 14.75 18.4489C14.15 17.2823 13.3166 16.2989 12.25 15.4989L22.55 5.09893C22.75 4.89893 22.85 4.6656 22.85 4.39893C22.85 4.13226 22.75 3.89893 22.55 3.69893ZM13.55 21.9989C13.55 23.0656 13.3 24.0489 12.8 24.9489C12.3 25.8489 11.5833 26.5656 10.65 27.0989C9.71662 27.6323 8.71662 27.8989 7.64995 27.8989C6.58329 27.8989 5.59995 27.6323 4.69995 27.0989C3.79995 26.5656 3.09995 25.8489 2.59995 24.9489C2.09995 24.0489 1.84995 23.0656 1.84995 21.9989C1.84995 20.9323 2.09995 19.9489 2.59995 19.0489C3.09995 18.1489 3.79995 17.4323 4.69995 16.8989C5.59995 16.3656 6.58329 16.0989 7.64995 16.0989C8.71662 16.0989 9.71662 16.3656 10.65 16.8989C11.5833 17.4323 12.3 18.1489 12.8 19.0489C13.3 19.9489 13.55 20.9323 13.55 21.9989ZM5.84995 24.7989C5.64995 24.8656 5.44995 24.8323 5.24995 24.6989C5.04995 24.5656 4.91662 24.3989 4.84995 24.1989C4.78329 23.9989 4.76662 23.7989 4.79995 23.5989C4.83329 23.3989 4.94995 23.2323 5.14995 23.0989L6.04995 22.1989C6.31662 21.9323 6.63329 21.8323 6.99995 21.8989C7.36662 21.9656 7.59995 22.1823 7.69995 22.5489C7.79995 22.9156 7.71662 23.2323 7.44995 23.4989L6.54995 24.4989C6.34995 24.6989 6.11662 24.7989 5.84995 24.7989Z" fill="black" fill-opacity="0.2" style="fill:black;fill-opacity:0.2;"/>
</svg>
