<svg width="12" height="22" viewBox="0 0 12 22" fill="none" xmlns="http://www.w3.org/2000/svg">
<path d="M10.9527 12.4375H7.87656V21.625H3.775V12.4375H0.411719V8.66406H3.775V5.75195C3.775 2.4707 5.74375 0.625 8.73789 0.625C10.1734 0.625 11.691 0.912109 11.691 0.912109V4.15234H10.0094C8.36875 4.15234 7.87656 5.13672 7.87656 6.20312V8.66406H11.527L10.9527 12.4375Z" fill="#06173D" style="fill:#06173D;fill:color(display-p3 0.0235 0.0902 0.2392);fill-opacity:1;"/>
<path d="M10.9527 12.4375H7.87656V21.625H3.775V12.4375H0.411719V8.66406H3.775V5.75195C3.775 2.4707 5.74375 0.625 8.73789 0.625C10.1734 0.625 11.691 0.912109 11.691 0.912109V4.15234H10.0094C8.36875 4.15234 7.87656 5.13672 7.87656 6.20312V8.66406H11.527L10.9527 12.4375Z" fill="black" fill-opacity="0.2" style="fill:black;fill-opacity:0.2;"/>
</svg>
