<svg width="20" height="20" viewBox="0 0 20 20" fill="none" xmlns="http://www.w3.org/2000/svg">
<path d="M9.93984 5.4082C12.5238 5.4082 14.6566 7.54102 14.6566 10.125C14.6566 12.75 12.5238 14.8418 9.93984 14.8418C7.31484 14.8418 5.22305 12.75 5.22305 10.125C5.22305 7.54102 7.31484 5.4082 9.93984 5.4082ZM9.93984 13.2012C11.6215 13.2012 12.975 11.8477 12.975 10.125C12.975 8.44336 11.6215 7.08984 9.93984 7.08984C8.21719 7.08984 6.86367 8.44336 6.86367 10.125C6.86367 11.8477 8.2582 13.2012 9.93984 13.2012ZM15.9281 5.24414C15.9281 5.85938 15.4359 6.35156 14.8207 6.35156C14.2055 6.35156 13.7133 5.85938 13.7133 5.24414C13.7133 4.62891 14.2055 4.13672 14.8207 4.13672C15.4359 4.13672 15.9281 4.62891 15.9281 5.24414ZM19.0453 6.35156C19.1273 7.86914 19.1273 12.4219 19.0453 13.9395C18.9633 15.416 18.6352 16.6875 17.5687 17.7949C16.5023 18.8613 15.1898 19.1895 13.7133 19.2715C12.1957 19.3535 7.64297 19.3535 6.12539 19.2715C4.64883 19.1895 3.37734 18.8613 2.26992 17.7949C1.20352 16.6875 0.875391 15.416 0.793359 13.9395C0.711328 12.4219 0.711328 7.86914 0.793359 6.35156C0.875391 4.875 1.20352 3.5625 2.26992 2.49609C3.37734 1.42969 4.64883 1.10156 6.12539 1.01953C7.64297 0.9375 12.1957 0.9375 13.7133 1.01953C15.1898 1.10156 16.5023 1.42969 17.5687 2.49609C18.6352 3.5625 18.9633 4.875 19.0453 6.35156ZM17.0766 15.5391C17.5687 14.3496 17.4457 11.4785 17.4457 10.125C17.4457 8.8125 17.5687 5.94141 17.0766 4.71094C16.7484 3.93164 16.1332 3.27539 15.3539 2.98828C14.1234 2.49609 11.2523 2.61914 9.93984 2.61914C8.58633 2.61914 5.71523 2.49609 4.52578 2.98828C3.70547 3.31641 3.09023 3.93164 2.76211 4.71094C2.26992 5.94141 2.39297 8.8125 2.39297 10.125C2.39297 11.4785 2.26992 14.3496 2.76211 15.5391C3.09023 16.3594 3.70547 16.9746 4.52578 17.3027C5.71523 17.7949 8.58633 17.6719 9.93984 17.6719C11.2523 17.6719 14.1234 17.7949 15.3539 17.3027C16.1332 16.9746 16.7895 16.3594 17.0766 15.5391Z" fill="#06173D" style="fill:#06173D;fill:color(display-p3 0.0235 0.0902 0.2392);fill-opacity:1;"/>
<path d="M9.93984 5.4082C12.5238 5.4082 14.6566 7.54102 14.6566 10.125C14.6566 12.75 12.5238 14.8418 9.93984 14.8418C7.31484 14.8418 5.22305 12.75 5.22305 10.125C5.22305 7.54102 7.31484 5.4082 9.93984 5.4082ZM9.93984 13.2012C11.6215 13.2012 12.975 11.8477 12.975 10.125C12.975 8.44336 11.6215 7.08984 9.93984 7.08984C8.21719 7.08984 6.86367 8.44336 6.86367 10.125C6.86367 11.8477 8.2582 13.2012 9.93984 13.2012ZM15.9281 5.24414C15.9281 5.85938 15.4359 6.35156 14.8207 6.35156C14.2055 6.35156 13.7133 5.85938 13.7133 5.24414C13.7133 4.62891 14.2055 4.13672 14.8207 4.13672C15.4359 4.13672 15.9281 4.62891 15.9281 5.24414ZM19.0453 6.35156C19.1273 7.86914 19.1273 12.4219 19.0453 13.9395C18.9633 15.416 18.6352 16.6875 17.5687 17.7949C16.5023 18.8613 15.1898 19.1895 13.7133 19.2715C12.1957 19.3535 7.64297 19.3535 6.12539 19.2715C4.64883 19.1895 3.37734 18.8613 2.26992 17.7949C1.20352 16.6875 0.875391 15.416 0.793359 13.9395C0.711328 12.4219 0.711328 7.86914 0.793359 6.35156C0.875391 4.875 1.20352 3.5625 2.26992 2.49609C3.37734 1.42969 4.64883 1.10156 6.12539 1.01953C7.64297 0.9375 12.1957 0.9375 13.7133 1.01953C15.1898 1.10156 16.5023 1.42969 17.5687 2.49609C18.6352 3.5625 18.9633 4.875 19.0453 6.35156ZM17.0766 15.5391C17.5687 14.3496 17.4457 11.4785 17.4457 10.125C17.4457 8.8125 17.5687 5.94141 17.0766 4.71094C16.7484 3.93164 16.1332 3.27539 15.3539 2.98828C14.1234 2.49609 11.2523 2.61914 9.93984 2.61914C8.58633 2.61914 5.71523 2.49609 4.52578 2.98828C3.70547 3.31641 3.09023 3.93164 2.76211 4.71094C2.26992 5.94141 2.39297 8.8125 2.39297 10.125C2.39297 11.4785 2.26992 14.3496 2.76211 15.5391C3.09023 16.3594 3.70547 16.9746 4.52578 17.3027C5.71523 17.7949 8.58633 17.6719 9.93984 17.6719C11.2523 17.6719 14.1234 17.7949 15.3539 17.3027C16.1332 16.9746 16.7895 16.3594 17.0766 15.5391Z" fill="black" fill-opacity="0.2" style="fill:black;fill-opacity:0.2;"/>
</svg>
