<svg width="22" height="22" viewBox="0 0 22 22" fill="none" xmlns="http://www.w3.org/2000/svg">
<path d="M11.1195 0.953125C16.6977 0.953125 21.2914 5.54688 21.2914 11.125C21.2914 16.7441 16.6977 21.2969 11.1195 21.2969C5.50039 21.2969 0.947656 16.7441 0.947656 11.125C0.947656 5.54688 5.50039 0.953125 11.1195 0.953125ZM15.2211 15.9238C15.5492 15.9238 15.8363 15.6777 15.8363 15.3086C15.8363 14.9395 15.7133 14.7754 15.4672 14.6113C12.5141 12.8887 9.10977 12.8066 5.74648 13.5449C5.41836 13.627 5.17227 13.832 5.17227 14.2422C5.17227 14.5703 5.41836 14.8984 5.82852 14.8984C5.95156 14.8984 6.15664 14.8164 6.3207 14.7754C9.27383 14.2012 12.227 14.2422 14.8109 15.8008C14.934 15.8828 15.057 15.9238 15.2211 15.9238ZM16.3285 13.2578C16.7797 13.2578 17.1078 12.8887 17.1488 12.4375C17.1488 12.1094 16.9848 11.8223 16.6566 11.6582C14.6469 10.4277 12.0629 9.77148 9.39687 9.77148C7.71523 9.77148 6.52578 10.0176 5.37734 10.3457C4.96719 10.4688 4.76211 10.7559 4.76211 11.166C4.76211 11.6172 5.13125 11.9863 5.54141 11.9863C5.74648 11.9863 5.82852 11.9043 6.03359 11.8633C9.43789 10.9609 13.2523 11.5762 15.8363 13.0938C15.9594 13.1348 16.1234 13.2578 16.3285 13.2578ZM17.6 10.1406C18.0922 10.1406 18.5434 9.73047 18.5434 9.15625C18.5434 8.66406 18.3383 8.41797 18.0102 8.25391C15.7543 6.90039 12.5961 6.28516 9.60195 6.28516C7.83828 6.28516 6.23867 6.49023 4.80312 6.90039C4.43398 7.02344 4.06484 7.31055 4.06484 7.88477C4.06484 8.41797 4.475 8.86914 5.0082 8.86914C5.21328 8.86914 5.41836 8.78711 5.54141 8.74609C8.9457 7.80273 14.1547 8.21289 17.0668 9.97656C17.2719 10.0586 17.3949 10.1406 17.6 10.1406Z" fill="#06173D" style="fill:#06173D;fill:color(display-p3 0.0235 0.0902 0.2392);fill-opacity:1;"/>
<path d="M11.1195 0.953125C16.6977 0.953125 21.2914 5.54688 21.2914 11.125C21.2914 16.7441 16.6977 21.2969 11.1195 21.2969C5.50039 21.2969 0.947656 16.7441 0.947656 11.125C0.947656 5.54688 5.50039 0.953125 11.1195 0.953125ZM15.2211 15.9238C15.5492 15.9238 15.8363 15.6777 15.8363 15.3086C15.8363 14.9395 15.7133 14.7754 15.4672 14.6113C12.5141 12.8887 9.10977 12.8066 5.74648 13.5449C5.41836 13.627 5.17227 13.832 5.17227 14.2422C5.17227 14.5703 5.41836 14.8984 5.82852 14.8984C5.95156 14.8984 6.15664 14.8164 6.3207 14.7754C9.27383 14.2012 12.227 14.2422 14.8109 15.8008C14.934 15.8828 15.057 15.9238 15.2211 15.9238ZM16.3285 13.2578C16.7797 13.2578 17.1078 12.8887 17.1488 12.4375C17.1488 12.1094 16.9848 11.8223 16.6566 11.6582C14.6469 10.4277 12.0629 9.77148 9.39687 9.77148C7.71523 9.77148 6.52578 10.0176 5.37734 10.3457C4.96719 10.4688 4.76211 10.7559 4.76211 11.166C4.76211 11.6172 5.13125 11.9863 5.54141 11.9863C5.74648 11.9863 5.82852 11.9043 6.03359 11.8633C9.43789 10.9609 13.2523 11.5762 15.8363 13.0938C15.9594 13.1348 16.1234 13.2578 16.3285 13.2578ZM17.6 10.1406C18.0922 10.1406 18.5434 9.73047 18.5434 9.15625C18.5434 8.66406 18.3383 8.41797 18.0102 8.25391C15.7543 6.90039 12.5961 6.28516 9.60195 6.28516C7.83828 6.28516 6.23867 6.49023 4.80312 6.90039C4.43398 7.02344 4.06484 7.31055 4.06484 7.88477C4.06484 8.41797 4.475 8.86914 5.0082 8.86914C5.21328 8.86914 5.41836 8.78711 5.54141 8.74609C8.9457 7.80273 14.1547 8.21289 17.0668 9.97656C17.2719 10.0586 17.3949 10.1406 17.6 10.1406Z" fill="black" fill-opacity="0.2" style="fill:black;fill-opacity:0.2;"/>
</svg>
