<svg width="23" height="16" viewBox="0 0 23 16" fill="none" xmlns="http://www.w3.org/2000/svg">
<path d="M22.2348 2.75195C22.727 4.47461 22.727 8.16602 22.727 8.16602C22.727 8.16602 22.727 11.8164 22.2348 13.5801C21.9887 14.5645 21.2094 15.3027 20.266 15.5488C18.5023 16 11.5297 16 11.5297 16C11.5297 16 4.51602 16 2.75234 15.5488C1.80898 15.3027 1.02969 14.5645 0.783594 13.5801C0.291406 11.8164 0.291406 8.16602 0.291406 8.16602C0.291406 8.16602 0.291406 4.47461 0.783594 2.75195C1.02969 1.76758 1.80898 0.988281 2.75234 0.742188C4.51602 0.25 11.5297 0.25 11.5297 0.25C11.5297 0.25 18.5023 0.25 20.266 0.742188C21.2094 0.988281 21.9887 1.76758 22.2348 2.75195ZM9.23281 11.4883L15.057 8.16602L9.23281 4.84375V11.4883Z" fill="#06173D" style="fill:#06173D;fill:color(display-p3 0.0235 0.0902 0.2392);fill-opacity:1;"/>
<path d="M22.2348 2.75195C22.727 4.47461 22.727 8.16602 22.727 8.16602C22.727 8.16602 22.727 11.8164 22.2348 13.5801C21.9887 14.5645 21.2094 15.3027 20.266 15.5488C18.5023 16 11.5297 16 11.5297 16C11.5297 16 4.51602 16 2.75234 15.5488C1.80898 15.3027 1.02969 14.5645 0.783594 13.5801C0.291406 11.8164 0.291406 8.16602 0.291406 8.16602C0.291406 8.16602 0.291406 4.47461 0.783594 2.75195C1.02969 1.76758 1.80898 0.988281 2.75234 0.742188C4.51602 0.25 11.5297 0.25 11.5297 0.25C11.5297 0.25 18.5023 0.25 20.266 0.742188C21.2094 0.988281 21.9887 1.76758 22.2348 2.75195ZM9.23281 11.4883L15.057 8.16602L9.23281 4.84375V11.4883Z" fill="black" fill-opacity="0.2" style="fill:black;fill-opacity:0.2;"/>
</svg>
