<svg width="328" height="59" viewBox="0 0 328 59" fill="none" xmlns="http://www.w3.org/2000/svg">
<g clip-path="url(#clip0_1067_24355)">
<path d="M24.1347 23.043H18.179V45.3691C18.179 52.7106 14.6033 53.4928 12.3007 53.4928C8.68081 53.4928 6.7214 51.2021 6.41144 46.7882H0.5C0.964945 53.761 5.88007 58.8899 12.3007 58.8899C22.5959 58.8899 24.1347 50.4199 24.1347 45.3691V23.043Z" fill="#011740" style="fill:#011740;fill:color(display-p3 0.0039 0.0902 0.2510);fill-opacity:1;"/>
<path d="M27.0244 23.043V58.8899H49.5078V52.9005H32.9691V23.043H27.0244Z" fill="#011740" style="fill:#011740;fill:color(display-p3 0.0039 0.0902 0.2510);fill-opacity:1;"/>
<path d="M44.8805 23.0432L35.3491 11.5449L30.8879 6.29297L27.0244 10.9862L37.0207 23.0432H44.8805Z" fill="#0451DD" style="fill:#0451DD;fill:color(display-p3 0.0157 0.3176 0.8667);fill-opacity:1;"/>
<path d="M14.1602 23.0413L29.4702 4.59261L25.5956 0L6.37793 23.0413H14.1602Z" fill="#011740" style="fill:#011740;fill:color(display-p3 0.0039 0.0902 0.2510);fill-opacity:1;"/>
<path d="M77.8029 40.1503C77.8029 43.9942 75.3675 47.0112 68.969 47.0112H57.4561V23.4336H67.5852C74.349 23.4336 76.4856 26.1378 76.4856 29.9147C76.4856 32.3395 74.8029 34.0379 74.2826 34.4179C76.552 35.5576 77.7918 37.6137 77.7918 40.1391L77.8029 40.1503ZM71.1387 30.6522C71.1387 29.0542 70.1092 28.2944 67.9394 28.2944H63.0907V33.2222H67.9394C70.3749 33.2222 71.1387 32.4959 71.1387 30.6522ZM68.3269 37.5578H63.1018V42.1393H68.3269C70.5963 42.1393 71.7254 41.3794 71.7254 39.8486C71.7254 38.1165 70.552 37.5578 68.3269 37.5578Z" fill="#011740" style="fill:#011740;fill:color(display-p3 0.0039 0.0902 0.2510);fill-opacity:1;"/>
<path d="M87.3896 47.0112H81.7549V23.4336H87.3896V47.0112Z" fill="#011740" style="fill:#011740;fill:color(display-p3 0.0039 0.0902 0.2510);fill-opacity:1;"/>
<path d="M110.515 23.4336V28.7078H98.2489V32.7641H108.489V37.6919H98.2489V41.7482H110.515V47.0224H92.6143V23.4448H110.515V23.4336Z" fill="#011740" style="fill:#011740;fill:color(display-p3 0.0039 0.0902 0.2510);fill-opacity:1;"/>
<path d="M137.892 47.0112H132.224L120.412 32.5853V47.0112H114.744V23.4336H120.412L132.224 37.826V23.4336H137.892V47.0112Z" fill="#011740" style="fill:#011740;fill:color(display-p3 0.0039 0.0902 0.2510);fill-opacity:1;"/>
<path d="M160.707 23.4336V28.7078H148.441V32.7641H158.681V37.6919H148.441V41.7482H160.707V47.0224H142.807V23.4448H160.707V23.4336Z" fill="#011740" style="fill:#011740;fill:color(display-p3 0.0039 0.0902 0.2510);fill-opacity:1;"/>
<path d="M183.379 30.8862H177.777C177.777 29.7017 176.405 28.115 174.002 28.115C172.32 28.115 170.261 28.8748 170.261 30.2269C170.261 31.3667 171.811 31.8248 175.109 32.6853C178.785 33.6574 183.977 34.9089 183.977 40.1049C183.977 44.6082 180.058 47.4241 174.6 47.4241C167.283 47.4241 164.228 42.4292 164.228 38.7529H169.829C169.829 38.7529 170.272 42.4962 174.91 42.4962C177.423 42.4962 178.342 41.4235 178.342 40.4178C178.342 38.9317 176.383 38.4065 174.224 37.8924C170.715 37.0544 164.571 35.747 164.571 30.5063C164.571 26.2042 168.766 23.0195 174.091 23.0195C180.169 23.0195 183.401 27.2099 183.401 30.8862H183.379Z" fill="#011740" style="fill:#011740;fill:color(display-p3 0.0039 0.0902 0.2510);fill-opacity:1;"/>
<path d="M215.847 32.2724C215.847 35.6694 214.197 38.5523 211.695 39.9044L216.5 47.0112H209.492L205.983 41.1559H201.865V47.0112H196.23V23.4336H207.533C212.271 23.4336 215.847 27.1434 215.847 32.2724ZM201.865 28.6967V35.8705H206.714C208.64 35.8705 210.179 34.2391 210.179 32.2612C210.179 30.2834 208.629 28.6855 206.747 28.6855H201.865V28.6967Z" fill="#011740" style="fill:#011740;fill:color(display-p3 0.0039 0.0902 0.2510);fill-opacity:1;"/>
<path d="M237.932 43.3349H226.662L225.113 47.0112H219.135L229.131 23.4336H235.419L245.448 47.0112H239.437L237.921 43.3349H237.932ZM235.972 38.6864L232.33 29.8811L228.622 38.6864H235.972Z" fill="#011740" style="fill:#011740;fill:color(display-p3 0.0039 0.0902 0.2510);fill-opacity:1;"/>
<path d="M254.902 47.0112H249.268V23.4336H254.902V47.0112Z" fill="#011740" style="fill:#011740;fill:color(display-p3 0.0039 0.0902 0.2510);fill-opacity:1;"/>
<path d="M282.566 41.2889C280.474 44.8311 276.588 47.4235 271.64 47.4235C264.323 47.4235 258.998 42.0152 258.998 35.0425C258.998 28.4832 264.323 23.0078 271.64 23.0078C276.622 23.0078 280.54 25.3656 282.633 28.9078L277.862 31.7125C276.766 29.5671 274.596 28.1368 271.64 28.1368C267.555 28.1368 264.699 31.1538 264.699 35.0425C264.699 38.9311 267.555 42.0822 271.64 42.0822C274.529 42.0822 276.655 40.5961 277.784 38.5065L282.555 41.2777L282.566 41.2889Z" fill="#011740" style="fill:#011740;fill:color(display-p3 0.0039 0.0902 0.2510);fill-opacity:1;"/>
<path d="M304.242 23.4336V28.7078H291.976V32.7641H302.216V37.6919H291.976V41.7482H304.242V47.0224H286.342V23.4448H304.242V23.4336Z" fill="#011740" style="fill:#011740;fill:color(display-p3 0.0039 0.0902 0.2510);fill-opacity:1;"/>
<path d="M326.914 30.8862H321.312C321.312 29.7017 319.94 28.115 317.538 28.115C315.855 28.115 313.796 28.8748 313.796 30.2269C313.796 31.3667 315.346 31.8248 318.645 32.6853C322.32 33.6574 327.512 34.9089 327.512 40.1049C327.512 44.6082 323.593 47.4241 318.135 47.4241C310.818 47.4241 307.763 42.4292 307.763 38.7529H313.364C313.364 38.7529 313.807 42.4962 318.445 42.4962C320.958 42.4962 321.877 41.4235 321.877 40.4178C321.877 38.9317 319.918 38.4065 317.759 37.8924C314.25 37.0544 308.106 35.747 308.106 30.5063C308.106 26.2042 312.301 23.0195 317.626 23.0195C323.704 23.0195 326.936 27.2099 326.936 30.8862H326.914Z" fill="#011740" style="fill:#011740;fill:color(display-p3 0.0039 0.0902 0.2510);fill-opacity:1;"/>
<path d="M58.7511 58.3716H63.1459V58.8856H58.1865V51.4883H58.74V58.3716H58.7511Z" fill="#011740" style="fill:#011740;fill:color(display-p3 0.0039 0.0902 0.2510);fill-opacity:1;"/>
<path d="M75.5112 58.8856H74.9245L74.0056 56.5614H70.5075L69.5887 58.8856H69.002L71.9355 51.4883H72.5887L75.5222 58.8856H75.5112ZM70.6957 56.0474H73.7953L72.2344 52.0358L70.6957 56.0474Z" fill="#011740" style="fill:#011740;fill:color(display-p3 0.0039 0.0902 0.2510);fill-opacity:1;"/>
<path d="M84.4447 51.3784C85.1199 51.3784 85.6845 51.5125 86.1495 51.7806C86.6144 52.0488 86.9686 52.4623 87.2122 53.0098L86.7472 53.3674C86.5369 52.8422 86.2269 52.4623 85.8395 52.2388C85.452 52.0041 84.9649 51.8924 84.4004 51.8924C83.9686 51.8924 83.5923 51.9594 83.2934 52.1047C82.9945 52.2388 82.762 52.4287 82.5959 52.6522C82.441 52.8757 82.3524 53.1327 82.3524 53.4232C82.3524 53.7696 82.4631 54.049 82.6845 54.2725C82.9059 54.496 83.3155 54.6748 83.9022 54.8089L85.3524 55.1217C86.072 55.2782 86.5812 55.5017 86.869 55.8034C87.1568 56.0939 87.3118 56.4738 87.3118 56.9431C87.3118 57.3454 87.2011 57.703 86.9576 58.0159C86.714 58.3287 86.4041 58.5746 85.9945 58.7422C85.5849 58.9098 85.1089 58.9992 84.5664 58.9992C84.024 58.9992 83.5701 58.9321 83.1605 58.7757C82.7509 58.6304 82.4078 58.4293 82.1199 58.1611C81.8432 57.8929 81.6328 57.5801 81.5 57.2001L81.9871 56.8202C82.0867 57.1666 82.2638 57.4683 82.5074 57.7253C82.7509 57.9712 83.0498 58.1611 83.4041 58.2952C83.7583 58.4293 84.1568 58.4852 84.5886 58.4852C85.0203 58.4852 85.3745 58.4293 85.6956 58.3064C86.0166 58.1946 86.2712 58.0159 86.4594 57.7924C86.6365 57.5689 86.7362 57.2895 86.7362 56.9655C86.7362 56.6414 86.6255 56.3844 86.4041 56.1721C86.1827 55.9598 85.7952 55.7922 85.2417 55.6804L83.7362 55.3452C83.2712 55.2446 82.8948 55.0994 82.607 54.9318C82.3192 54.7642 82.1089 54.5518 81.976 54.306C81.8432 54.0602 81.7768 53.792 81.7768 53.4791C81.7768 53.0992 81.8875 52.7528 82.0978 52.4287C82.3081 52.1047 82.6181 51.8589 83.0166 51.6577C83.4151 51.4678 83.8911 51.3672 84.4336 51.3672L84.4447 51.3784Z" fill="#011740" style="fill:#011740;fill:color(display-p3 0.0039 0.0902 0.2510);fill-opacity:1;"/>
<path d="M110.127 51.4883V58.8856H109.596V53.3656L109.663 52.0246L106.984 58.8856H106.474L103.795 52.0246H103.784L103.851 53.3656V58.8856H103.319V51.4883H104.15L106.364 57.0977L106.729 58.2263L107.083 57.1089L109.297 51.4883H110.127Z" fill="#011740" style="fill:#011740;fill:color(display-p3 0.0039 0.0902 0.2510);fill-opacity:1;"/>
<path d="M117.832 58.8856V51.4883H122.847V52.0023H118.397V54.8629H121.917V55.3881H118.397V58.3716H123.035V58.8856H117.843H117.832Z" fill="#011740" style="fill:#011740;fill:color(display-p3 0.0039 0.0902 0.2510);fill-opacity:1;"/>
<path d="M133.608 51.4883V56.4496C133.608 57.243 133.408 57.8688 132.999 58.3269C132.589 58.7851 132.013 59.0085 131.272 59.0085C130.751 59.0085 130.331 58.908 129.988 58.6957C129.656 58.4945 129.412 58.204 129.279 57.8352C129.146 57.4665 129.113 57.0307 129.191 56.539L129.711 56.4161C129.622 57.0978 129.711 57.6118 129.965 57.9693C130.22 58.3157 130.652 58.4945 131.261 58.4945C131.903 58.4945 132.368 58.3046 132.633 57.9246C132.91 57.5447 133.043 57.0084 133.043 56.3267V51.4883H133.596H133.608Z" fill="#011740" style="fill:#011740;fill:color(display-p3 0.0039 0.0902 0.2510);fill-opacity:1;"/>
<path d="M144.135 51.3789C144.833 51.3789 145.43 51.5353 145.94 51.8482C146.449 52.1611 146.836 52.5969 147.102 53.1668C147.379 53.7367 147.512 54.4071 147.512 55.2005C147.512 55.9939 147.379 56.6643 147.102 57.2342C146.825 57.8041 146.438 58.2399 145.94 58.5528C145.43 58.8657 144.833 59.0221 144.135 59.0221C143.438 59.0221 142.851 58.8657 142.342 58.5528C141.833 58.2399 141.445 57.8041 141.168 57.2342C140.892 56.6643 140.759 55.9939 140.759 55.2005C140.759 54.4071 140.892 53.7367 141.168 53.1668C141.445 52.5969 141.833 52.1611 142.342 51.8482C142.851 51.5353 143.449 51.3789 144.135 51.3789ZM144.135 51.8929C143.56 51.8929 143.072 52.027 142.652 52.2952C142.231 52.5634 141.91 52.9433 141.678 53.435C141.445 53.9266 141.334 54.5189 141.334 55.2005C141.334 55.8821 141.445 56.4632 141.678 56.966C141.91 57.4689 142.231 57.8376 142.652 58.1058C143.072 58.374 143.56 58.5081 144.135 58.5081C144.711 58.5081 145.209 58.374 145.63 58.1058C146.039 57.8376 146.371 57.4577 146.593 56.966C146.825 56.4744 146.936 55.8821 146.936 55.2005C146.936 54.5189 146.825 53.9378 146.593 53.435C146.36 52.9433 146.039 52.5634 145.63 52.2952C145.22 52.027 144.722 51.8929 144.135 51.8929Z" fill="#011740" style="fill:#011740;fill:color(display-p3 0.0039 0.0902 0.2510);fill-opacity:1;"/>
<path d="M157.463 51.4883C158.194 51.4883 158.781 51.6782 159.213 52.047C159.644 52.4157 159.866 52.9298 159.866 53.589C159.866 54.2483 159.644 54.7512 159.213 55.1087C158.781 55.4663 158.194 55.6563 157.452 55.6563L157.397 55.6898H155.294V58.8968H154.74V51.4995H157.463V51.4883ZM157.452 55.1534C158.05 55.1534 158.504 55.0193 158.814 54.7512C159.124 54.483 159.29 54.0919 159.29 53.589C159.29 53.0862 159.135 52.6839 158.814 52.4157C158.504 52.1476 158.05 52.0023 157.452 52.0023H155.294V55.1534H157.452ZM157.884 55.254L160.253 58.8856H159.6L157.419 55.5669L157.884 55.254Z" fill="#011740" style="fill:#011740;fill:color(display-p3 0.0039 0.0902 0.2510);fill-opacity:1;"/>
<path d="M167.249 58.8856V51.4883H172.264V52.0023H167.814V54.8629H171.334V55.3881H167.814V58.3716H172.452V58.8856H167.26H167.249Z" fill="#011740" style="fill:#011740;fill:color(display-p3 0.0039 0.0902 0.2510);fill-opacity:1;"/>
<path d="M181.696 51.3784C182.371 51.3784 182.935 51.5125 183.4 51.7806C183.865 52.0488 184.22 52.4623 184.463 53.0098L183.998 53.3674C183.788 52.8422 183.478 52.4623 183.09 52.2388C182.703 52.0041 182.216 51.8924 181.651 51.8924C181.22 51.8924 180.843 51.9594 180.544 52.1047C180.245 52.2388 180.013 52.4287 179.847 52.6522C179.692 52.8757 179.603 53.1327 179.603 53.4232C179.603 53.7696 179.714 54.049 179.935 54.2725C180.157 54.496 180.566 54.6748 181.153 54.8089L182.603 55.1217C183.323 55.2782 183.832 55.5017 184.12 55.8034C184.408 56.0939 184.563 56.4738 184.563 56.9431C184.563 57.3454 184.452 57.703 184.209 58.0159C183.965 58.3287 183.655 58.5746 183.245 58.7422C182.836 58.9098 182.36 58.9992 181.817 58.9992C181.275 58.9992 180.821 58.9321 180.411 58.7757C180.002 58.6304 179.659 58.4293 179.371 58.1611C179.094 57.8929 178.884 57.5801 178.751 57.2001L179.238 56.8202C179.338 57.1666 179.515 57.4683 179.758 57.7253C180.002 57.9712 180.301 58.1611 180.655 58.2952C181.009 58.4293 181.408 58.4852 181.84 58.4852C182.271 58.4852 182.626 58.4293 182.947 58.3064C183.268 58.1946 183.522 58.0159 183.71 57.7924C183.888 57.5689 183.987 57.2895 183.987 56.9655C183.987 56.6414 183.876 56.3844 183.655 56.1721C183.434 55.9598 183.046 55.7922 182.493 55.6804L180.987 55.3452C180.522 55.2446 180.146 55.0994 179.858 54.9318C179.57 54.7642 179.36 54.5518 179.227 54.306C179.094 54.0602 179.028 53.792 179.028 53.4791C179.028 53.0992 179.138 52.7528 179.349 52.4287C179.559 52.1047 179.869 51.8589 180.268 51.6577C180.666 51.4678 181.142 51.3672 181.685 51.3672L181.696 51.3784Z" fill="#011740" style="fill:#011740;fill:color(display-p3 0.0039 0.0902 0.2510);fill-opacity:1;"/>
<path d="M202.995 51.4883C203.504 51.4883 203.947 51.5777 204.312 51.7565C204.678 51.9352 204.965 52.1811 205.176 52.5051C205.375 52.8292 205.486 53.2091 205.486 53.6561C205.486 54.1031 205.386 54.5053 205.176 54.8182C204.965 55.1311 204.689 55.3881 204.312 55.5669C203.936 55.7457 203.504 55.8351 202.995 55.8351H201.113V58.8968H200.56V51.4995H202.995V51.4883ZM202.929 55.2987C203.571 55.2987 204.058 55.1534 204.401 54.8629C204.733 54.5724 204.899 54.1701 204.899 53.6449C204.899 53.1197 204.733 52.7174 204.401 52.4269C204.069 52.1364 203.582 51.9911 202.929 51.9911H201.113V55.2875H202.929V55.2987Z" fill="#011740" style="fill:#011740;fill:color(display-p3 0.0039 0.0902 0.2510);fill-opacity:1;"/>
<path d="M215.194 51.4883C215.925 51.4883 216.511 51.6782 216.943 52.047C217.375 52.4157 217.596 52.9298 217.596 53.589C217.596 54.2483 217.375 54.7512 216.943 55.1087C216.511 55.4663 215.925 55.6563 215.183 55.6563L215.128 55.6898H213.024V58.8968H212.471V51.4995H215.194V51.4883ZM215.183 55.1534C215.781 55.1534 216.235 55.0193 216.545 54.7512C216.854 54.483 217.021 54.0919 217.021 53.589C217.021 53.0862 216.866 52.6839 216.545 52.4157C216.235 52.1476 215.781 52.0023 215.183 52.0023H213.024V55.1534H215.183ZM215.615 55.254L217.984 58.8856H217.33L215.15 55.5669L215.615 55.254Z" fill="#011740" style="fill:#011740;fill:color(display-p3 0.0039 0.0902 0.2510);fill-opacity:1;"/>
<path d="M227.847 51.3789C228.544 51.3789 229.142 51.5353 229.652 51.8482C230.161 52.1611 230.548 52.5969 230.814 53.1668C231.091 53.7367 231.223 54.4071 231.223 55.2005C231.223 55.9939 231.091 56.6643 230.814 57.2342C230.537 57.8041 230.15 58.2399 229.652 58.5528C229.142 58.8657 228.544 59.0221 227.847 59.0221C227.15 59.0221 226.563 58.8657 226.054 58.5528C225.544 58.2399 225.157 57.8041 224.88 57.2342C224.604 56.6643 224.471 55.9939 224.471 55.2005C224.471 54.4071 224.604 53.7367 224.88 53.1668C225.157 52.5969 225.544 52.1611 226.054 51.8482C226.563 51.5353 227.161 51.3789 227.847 51.3789ZM227.847 51.8929C227.271 51.8929 226.784 52.027 226.364 52.2952C225.943 52.5634 225.622 52.9433 225.39 53.435C225.157 53.9266 225.046 54.5189 225.046 55.2005C225.046 55.8821 225.157 56.4632 225.39 56.966C225.622 57.4689 225.943 57.8376 226.364 58.1058C226.784 58.374 227.271 58.5081 227.847 58.5081C228.423 58.5081 228.921 58.374 229.342 58.1058C229.751 57.8376 230.083 57.4577 230.305 56.966C230.537 56.4744 230.648 55.8821 230.648 55.2005C230.648 54.5189 230.537 53.9378 230.305 53.435C230.072 52.9433 229.751 52.5634 229.342 52.2952C228.932 52.027 228.434 51.8929 227.847 51.8929Z" fill="#011740" style="fill:#011740;fill:color(display-p3 0.0039 0.0902 0.2510);fill-opacity:1;"/>
<path d="M240.888 51.4883C241.397 51.4883 241.84 51.5777 242.205 51.7565C242.57 51.9352 242.858 52.1811 243.068 52.5051C243.268 52.8292 243.378 53.2091 243.378 53.6561C243.378 54.1031 243.279 54.5053 243.068 54.8182C242.858 55.1311 242.581 55.3881 242.205 55.5669C241.829 55.7457 241.397 55.8351 240.888 55.8351H239.006V58.8968H238.452V51.4995H240.888V51.4883ZM240.821 55.2987C241.463 55.2987 241.95 55.1534 242.293 54.8629C242.626 54.5724 242.792 54.1701 242.792 53.6449C242.792 53.1197 242.626 52.7174 242.293 52.4269C241.961 52.1364 241.474 51.9911 240.821 51.9911H239.006V55.2875H240.821V55.2987Z" fill="#011740" style="fill:#011740;fill:color(display-p3 0.0039 0.0902 0.2510);fill-opacity:1;"/>
<path d="M250.929 51.4883V58.8856H250.375V51.4883H250.929Z" fill="#011740" style="fill:#011740;fill:color(display-p3 0.0039 0.0902 0.2510);fill-opacity:1;"/>
<path d="M258.622 58.8856V51.4883H263.637V52.0023H259.187V54.8629H262.707V55.3881H259.187V58.3716H263.825V58.8856H258.633H258.622Z" fill="#011740" style="fill:#011740;fill:color(display-p3 0.0039 0.0902 0.2510);fill-opacity:1;"/>
<path d="M273.124 51.4883C274.298 51.4883 275.194 51.8012 275.825 52.4269C276.456 53.0527 276.777 53.9578 276.777 55.1311C276.777 56.3044 276.456 57.2765 275.825 57.9246C275.194 58.5727 274.287 58.8856 273.124 58.8856H270.811V51.4883H273.124ZM273.168 58.3716C274.143 58.3716 274.895 58.0923 275.416 57.5335C275.936 56.9748 276.202 56.1703 276.202 55.1311C276.202 54.0919 275.936 53.3544 275.416 52.818C274.895 52.2817 274.143 52.0023 273.168 52.0023H271.364V58.3716H273.168Z" fill="#011740" style="fill:#011740;fill:color(display-p3 0.0039 0.0902 0.2510);fill-opacity:1;"/>
<path d="M289.408 58.8856H288.821L287.902 56.5614H284.404L283.485 58.8856H282.898L285.832 51.4883H286.485L289.419 58.8856H289.408ZM284.592 56.0474H287.692L286.131 52.0358L284.592 56.0474Z" fill="#011740" style="fill:#011740;fill:color(display-p3 0.0039 0.0902 0.2510);fill-opacity:1;"/>
<path d="M298.475 51.4883C299.648 51.4883 300.545 51.8012 301.176 52.4269C301.807 53.0527 302.128 53.9578 302.128 55.1311C302.128 56.3044 301.807 57.2765 301.176 57.9246C300.545 58.5727 299.637 58.8856 298.475 58.8856H296.161V51.4883H298.475ZM298.519 58.3716C299.493 58.3716 300.246 58.0923 300.766 57.5335C301.287 56.9748 301.552 56.1703 301.552 55.1311C301.552 54.0919 301.287 53.3544 300.766 52.818C300.246 52.2817 299.493 52.0023 298.519 52.0023H296.715V58.3716H298.519Z" fill="#011740" style="fill:#011740;fill:color(display-p3 0.0039 0.0902 0.2510);fill-opacity:1;"/>
<path d="M309.356 58.8856V51.4883H314.371V52.0023H309.921V54.8629H313.441V55.3881H309.921V58.3716H314.559V58.8856H309.368H309.356Z" fill="#011740" style="fill:#011740;fill:color(display-p3 0.0039 0.0902 0.2510);fill-opacity:1;"/>
<path d="M323.814 51.3784C324.489 51.3784 325.054 51.5125 325.519 51.7806C325.984 52.0488 326.338 52.4623 326.581 53.0098L326.116 53.3674C325.906 52.8422 325.596 52.4623 325.209 52.2388C324.821 52.0041 324.334 51.8924 323.77 51.8924C323.338 51.8924 322.961 51.9594 322.662 52.1047C322.364 52.2388 322.131 52.4287 321.965 52.6522C321.81 52.8757 321.722 53.1327 321.722 53.4232C321.722 53.7696 321.832 54.049 322.054 54.2725C322.275 54.496 322.685 54.6748 323.271 54.8089L324.722 55.1217C325.441 55.2782 325.95 55.5017 326.238 55.8034C326.526 56.0939 326.681 56.4738 326.681 56.9431C326.681 57.3454 326.57 57.703 326.327 58.0159C326.083 58.3287 325.773 58.5746 325.364 58.7422C324.954 58.9098 324.478 58.9992 323.936 58.9992C323.393 58.9992 322.939 58.9321 322.53 58.7757C322.12 58.6304 321.777 58.4293 321.489 58.1611C321.212 57.8929 321.002 57.5801 320.869 57.2001L321.356 56.8202C321.456 57.1666 321.633 57.4683 321.877 57.7253C322.12 57.9712 322.419 58.1611 322.773 58.2952C323.127 58.4293 323.526 58.4852 323.958 58.4852C324.389 58.4852 324.744 58.4293 325.065 58.3064C325.386 58.1946 325.64 58.0159 325.829 57.7924C326.006 57.5689 326.105 57.2895 326.105 56.9655C326.105 56.6414 325.995 56.3844 325.773 56.1721C325.552 55.9598 325.164 55.7922 324.611 55.6804L323.105 55.3452C322.64 55.2446 322.264 55.0994 321.976 54.9318C321.688 54.7642 321.478 54.5518 321.345 54.306C321.212 54.0602 321.146 53.792 321.146 53.4791C321.146 53.0992 321.257 52.7528 321.467 52.4287C321.677 52.1047 321.987 51.8589 322.386 51.6577C322.784 51.4678 323.26 51.3672 323.803 51.3672L323.814 51.3784Z" fill="#011740" style="fill:#011740;fill:color(display-p3 0.0039 0.0902 0.2510);fill-opacity:1;"/>
</g>
<defs>
<clipPath id="clip0_1067_24355">
<rect width="327" height="59" fill="white" style="fill:white;fill-opacity:1;" transform="translate(0.5)"/>
</clipPath>
</defs>
</svg>
