<svg width="19" height="20" viewBox="0 0 19 20" fill="none" xmlns="http://www.w3.org/2000/svg">
<path d="M9.52285 5.08789C12.1068 5.08789 14.2396 7.2207 14.2396 9.80469C14.2396 12.4297 12.1068 14.5215 9.52285 14.5215C6.89785 14.5215 4.80605 12.4297 4.80605 9.80469C4.80605 7.2207 6.89785 5.08789 9.52285 5.08789ZM9.52285 12.8809C11.2045 12.8809 12.558 11.5273 12.558 9.80469C12.558 8.12305 11.2045 6.76953 9.52285 6.76953C7.8002 6.76953 6.44668 8.12305 6.44668 9.80469C6.44668 11.5273 7.84121 12.8809 9.52285 12.8809ZM15.5111 4.92383C15.5111 5.53906 15.0189 6.03125 14.4037 6.03125C13.7885 6.03125 13.2963 5.53906 13.2963 4.92383C13.2963 4.30859 13.7885 3.81641 14.4037 3.81641C15.0189 3.81641 15.5111 4.30859 15.5111 4.92383ZM18.6283 6.03125C18.7104 7.54883 18.7104 12.1016 18.6283 13.6191C18.5463 15.0957 18.2182 16.3672 17.1518 17.4746C16.0854 18.541 14.7729 18.8691 13.2963 18.9512C11.7787 19.0332 7.22598 19.0332 5.7084 18.9512C4.23184 18.8691 2.96035 18.541 1.85293 17.4746C0.786523 16.3672 0.458398 15.0957 0.376367 13.6191C0.294336 12.1016 0.294336 7.54883 0.376367 6.03125C0.458398 4.55469 0.786523 3.24219 1.85293 2.17578C2.96035 1.10938 4.23184 0.78125 5.7084 0.699219C7.22598 0.617188 11.7787 0.617188 13.2963 0.699219C14.7729 0.78125 16.0854 1.10938 17.1518 2.17578C18.2182 3.24219 18.5463 4.55469 18.6283 6.03125ZM16.6596 15.2188C17.1518 14.0293 17.0287 11.1582 17.0287 9.80469C17.0287 8.49219 17.1518 5.62109 16.6596 4.39062C16.3314 3.61133 15.7162 2.95508 14.9369 2.66797C13.7064 2.17578 10.8354 2.29883 9.52285 2.29883C8.16934 2.29883 5.29824 2.17578 4.10879 2.66797C3.28848 2.99609 2.67324 3.61133 2.34512 4.39062C1.85293 5.62109 1.97598 8.49219 1.97598 9.80469C1.97598 11.1582 1.85293 14.0293 2.34512 15.2188C2.67324 16.0391 3.28848 16.6543 4.10879 16.9824C5.29824 17.4746 8.16934 17.3516 9.52285 17.3516C10.8354 17.3516 13.7064 17.4746 14.9369 16.9824C15.7162 16.6543 16.3725 16.0391 16.6596 15.2188Z" fill="#F4F4F4" style="fill:#F4F4F4;fill:color(display-p3 0.9569 0.9569 0.9569);fill-opacity:1;"/>
</svg>
