<svg width="21" height="21" viewBox="0 0 21 21" fill="none" xmlns="http://www.w3.org/2000/svg">
<path d="M10.7045 0.632812C16.2826 0.632812 20.8764 5.22656 20.8764 10.8047C20.8764 16.4238 16.2826 20.9766 10.7045 20.9766C5.08535 20.9766 0.532617 16.4238 0.532617 10.8047C0.532617 5.22656 5.08535 0.632812 10.7045 0.632812ZM14.8061 15.6035C15.1342 15.6035 15.4213 15.3574 15.4213 14.9883C15.4213 14.6191 15.2982 14.4551 15.0521 14.291C12.099 12.5684 8.69473 12.4863 5.33145 13.2246C5.00332 13.3066 4.75723 13.5117 4.75723 13.9219C4.75723 14.25 5.00332 14.5781 5.41348 14.5781C5.53652 14.5781 5.7416 14.4961 5.90566 14.4551C8.85879 13.8809 11.8119 13.9219 14.3959 15.4805C14.5189 15.5625 14.642 15.6035 14.8061 15.6035ZM15.9135 12.9375C16.3646 12.9375 16.6928 12.5684 16.7338 12.1172C16.7338 11.7891 16.5697 11.502 16.2416 11.3379C14.2318 10.1074 11.6479 9.45117 8.98184 9.45117C7.3002 9.45117 6.11074 9.69727 4.9623 10.0254C4.55215 10.1484 4.34707 10.4355 4.34707 10.8457C4.34707 11.2969 4.71621 11.666 5.12637 11.666C5.33145 11.666 5.41348 11.584 5.61855 11.543C9.02285 10.6406 12.8373 11.2559 15.4213 12.7734C15.5443 12.8145 15.7084 12.9375 15.9135 12.9375ZM17.185 9.82031C17.6771 9.82031 18.1283 9.41016 18.1283 8.83594C18.1283 8.34375 17.9232 8.09766 17.5951 7.93359C15.3393 6.58008 12.1811 5.96484 9.18691 5.96484C7.42324 5.96484 5.82363 6.16992 4.38809 6.58008C4.01895 6.70312 3.6498 6.99023 3.6498 7.56445C3.6498 8.09766 4.05996 8.54883 4.59316 8.54883C4.79824 8.54883 5.00332 8.4668 5.12637 8.42578C8.53066 7.48242 13.7396 7.89258 16.6518 9.65625C16.8568 9.73828 16.9799 9.82031 17.185 9.82031Z" fill="#F4F4F4" style="fill:#F4F4F4;fill:color(display-p3 0.9569 0.9569 0.9569);fill-opacity:1;"/>
</svg>
