<svg width="24" height="17" viewBox="0 0 24 17" fill="none" xmlns="http://www.w3.org/2000/svg">
<path d="M22.8187 3.43164C23.3109 5.1543 23.3109 8.8457 23.3109 8.8457C23.3109 8.8457 23.3109 12.4961 22.8187 14.2598C22.5727 15.2441 21.7934 15.9824 20.85 16.2285C19.0863 16.6797 12.1137 16.6797 12.1137 16.6797C12.1137 16.6797 5.1 16.6797 3.33633 16.2285C2.39297 15.9824 1.61367 15.2441 1.36758 14.2598C0.875391 12.4961 0.875391 8.8457 0.875391 8.8457C0.875391 8.8457 0.875391 5.1543 1.36758 3.43164C1.61367 2.44727 2.39297 1.66797 3.33633 1.42188C5.1 0.929688 12.1137 0.929688 12.1137 0.929688C12.1137 0.929688 19.0863 0.929688 20.85 1.42188C21.7934 1.66797 22.5727 2.44727 22.8187 3.43164ZM9.8168 12.168L15.641 8.8457L9.8168 5.52344V12.168Z" fill="#F4F4F4" style="fill:#F4F4F4;fill:color(display-p3 0.9569 0.9569 0.9569);fill-opacity:1;"/>
</svg>
