<svg width="50" height="49" viewBox="0 0 50 49" fill="none" xmlns="http://www.w3.org/2000/svg">
<path d="M24.975 0.515625C14.9004 0.515625 11.954 0.526018 11.3813 0.573529C9.31383 0.745385 8.02732 1.07091 6.62575 1.76872C5.54562 2.30508 4.69376 2.9268 3.85304 3.79833C2.32193 5.38772 1.39398 7.34309 1.05807 9.66741C0.894749 10.7958 0.847238 11.0259 0.837587 16.7896C0.833875 18.7108 0.837587 21.2393 0.837587 24.6307C0.837587 34.6971 0.848723 37.6406 0.896976 38.2122C1.06401 40.224 1.37951 41.4897 2.04763 42.8742C3.32449 45.5244 5.76313 47.5139 8.63605 48.2563C9.63081 48.5124 10.7295 48.6534 12.14 48.7202C12.7376 48.7462 18.8286 48.7648 24.9234 48.7648C31.0181 48.7648 37.1129 48.7574 37.6956 48.7277C39.3288 48.6508 40.2772 48.5235 41.3258 48.2526C42.7503 47.8872 44.0779 47.2154 45.2158 46.2839C46.3538 45.3523 47.2747 44.1836 47.9142 42.8593C48.5693 41.5082 48.9015 40.1943 49.0519 38.2875C49.0845 37.8718 49.0983 31.2437 49.0983 24.6244C49.0983 18.0041 49.0834 11.3882 49.0507 10.9725C48.8986 9.03492 48.5663 7.73208 47.8901 6.35501C47.3352 5.22774 46.719 4.38591 45.8245 3.52514C44.2284 2.00034 42.276 1.07239 39.9491 0.736848C38.8218 0.5739 38.5972 0.525647 32.8291 0.515625H24.975Z" fill="url(#paint0_radial_589_17394)" style=""/>
<path d="M24.975 0.515625C14.9004 0.515625 11.954 0.526018 11.3813 0.573529C9.31383 0.745385 8.02732 1.07091 6.62575 1.76872C5.54562 2.30508 4.69376 2.9268 3.85304 3.79833C2.32193 5.38772 1.39398 7.34309 1.05807 9.66741C0.894749 10.7958 0.847238 11.0259 0.837587 16.7896C0.833875 18.7108 0.837587 21.2393 0.837587 24.6307C0.837587 34.6971 0.848723 37.6406 0.896976 38.2122C1.06401 40.224 1.37951 41.4897 2.04763 42.8742C3.32449 45.5244 5.76313 47.5139 8.63605 48.2563C9.63081 48.5124 10.7295 48.6534 12.14 48.7202C12.7376 48.7462 18.8286 48.7648 24.9234 48.7648C31.0181 48.7648 37.1129 48.7574 37.6956 48.7277C39.3288 48.6508 40.2772 48.5235 41.3258 48.2526C42.7503 47.8872 44.0779 47.2154 45.2158 46.2839C46.3538 45.3523 47.2747 44.1836 47.9142 42.8593C48.5693 41.5082 48.9015 40.1943 49.0519 38.2875C49.0845 37.8718 49.0983 31.2437 49.0983 24.6244C49.0983 18.0041 49.0834 11.3882 49.0507 10.9725C48.8986 9.03492 48.5663 7.73208 47.8901 6.35501C47.3352 5.22774 46.719 4.38591 45.8245 3.52514C44.2284 2.00034 42.276 1.07239 39.9491 0.736848C38.8218 0.5739 38.5972 0.525647 32.8291 0.515625H24.975Z" fill="url(#paint1_radial_589_17394)" style=""/>
<path d="M24.9642 6.82422C20.1255 6.82422 19.5182 6.84538 17.6178 6.93186C15.7211 7.01872 14.4264 7.319 13.2936 7.75959C12.1218 8.21465 11.1277 8.82339 10.1374 9.81406C9.1464 10.8044 8.53766 11.7984 8.08111 12.9698C7.63941 14.103 7.33876 15.3981 7.25338 17.2941C7.16876 19.1945 7.14648 19.8021 7.14648 24.6408C7.14648 29.4795 7.16801 30.0849 7.25413 31.9853C7.34135 33.882 7.64164 35.1767 8.08186 36.3096C8.53729 37.4814 9.14602 38.4754 10.1367 39.4657C11.1266 40.4567 12.1207 41.067 13.2917 41.522C14.4253 41.9626 15.7203 42.2629 17.6167 42.3497C19.5171 42.4362 20.124 42.4574 24.9623 42.4574C29.8014 42.4574 30.4068 42.4362 32.3072 42.3497C34.2039 42.2629 35.5001 41.9626 36.6337 41.522C37.8051 41.067 38.7976 40.4567 39.7876 39.4657C40.7786 38.4754 41.3874 37.4814 41.8439 36.3099C42.2819 35.1767 42.5826 33.8817 42.6716 31.9857C42.757 30.0853 42.7793 29.4795 42.7793 24.6408C42.7793 19.8021 42.757 19.1949 42.6716 17.2944C42.5826 15.3977 42.2819 14.103 41.8439 12.9702C41.3874 11.7984 40.7786 10.8044 39.7876 9.81406C38.7965 8.82302 37.8055 8.21428 36.6326 7.75959C35.4968 7.319 34.2013 7.01872 32.3046 6.93186C30.4042 6.84538 29.7992 6.82422 24.959 6.82422H24.9642ZM23.3659 10.0349C23.8403 10.0342 24.3696 10.0349 24.9642 10.0349C29.7212 10.0349 30.285 10.052 32.1636 10.1374C33.9007 10.2168 34.8435 10.5071 35.4715 10.7509C36.3029 11.0738 36.8957 11.4599 37.5189 12.0835C38.1425 12.707 38.5285 13.3009 38.8522 14.1324C39.0961 14.7597 39.3867 15.7024 39.4658 17.4396C39.5511 19.3177 39.5697 19.8819 39.5697 24.6367C39.5697 29.3915 39.5511 29.9557 39.4658 31.8339C39.3863 33.571 39.0961 34.5138 38.8522 35.1411C38.5293 35.9725 38.1425 36.5646 37.5189 37.1878C36.8954 37.8113 36.3033 38.1974 35.4715 38.5203C34.8442 38.7653 33.9007 39.0548 32.1636 39.1342C30.2854 39.2196 29.7212 39.2382 24.9642 39.2382C20.2068 39.2382 19.643 39.2196 17.7648 39.1342C16.0277 39.054 15.0849 38.7638 14.4565 38.5199C13.625 38.197 13.0312 37.811 12.4076 37.1874C11.784 36.5638 11.398 35.9714 11.0743 35.1396C10.8304 34.5123 10.5398 33.5695 10.4607 31.8324C10.3754 29.9542 10.3583 29.39 10.3583 24.6323C10.3583 19.8745 10.3754 19.3133 10.4607 17.4351C10.5402 15.698 10.8304 14.7552 11.0743 14.1272C11.3972 13.2957 11.784 12.7018 12.4076 12.0783C13.0312 11.4547 13.625 11.0686 14.4565 10.745C15.0845 10.5 16.0277 10.2105 17.7648 10.1307C19.4084 10.0564 20.0453 10.0342 23.3659 10.0305V10.0349ZM34.4745 12.9932C34.0516 12.9932 33.6382 13.1186 33.2866 13.3536C32.935 13.5885 32.661 13.9225 32.4992 14.3132C32.3374 14.7039 32.2951 15.1338 32.3777 15.5486C32.4602 15.9633 32.6639 16.3443 32.963 16.6433C33.2621 16.9422 33.6431 17.1458 34.0579 17.2282C34.4727 17.3106 34.9026 17.2682 35.2932 17.1062C35.6839 16.9443 36.0177 16.6702 36.2526 16.3185C36.4874 15.9668 36.6127 15.5533 36.6125 15.1305C36.6125 13.9501 35.6549 12.9925 34.4745 12.9925V12.9932ZM24.9642 15.4912C19.9113 15.4912 15.8146 19.5879 15.8146 24.6408C15.8146 29.6937 19.9113 33.7885 24.9642 33.7885C30.017 33.7885 34.1126 29.6937 34.1126 24.6408C34.1126 19.5879 30.017 15.4912 24.9642 15.4912ZM24.9642 18.7019C28.2439 18.7019 30.903 21.3607 30.903 24.6408C30.903 27.9205 28.2439 30.5797 24.9642 30.5797C21.6841 30.5797 19.0253 27.9205 19.0253 24.6408C19.0253 21.3607 21.6841 18.7019 24.9642 18.7019Z" fill="white" style="fill:white;fill-opacity:1;"/>
<defs>
<radialGradient id="paint0_radial_589_17394" cx="0" cy="0" r="1" gradientUnits="userSpaceOnUse" gradientTransform="translate(13.6557 52.481) rotate(-90) scale(47.8185 44.4871)">
<stop stop-color="#FFDD55" style="stop-color:#FFDD55;stop-color:color(display-p3 1.0000 0.8667 0.3333);stop-opacity:1;"/>
<stop offset="0.1" stop-color="#FFDD55" style="stop-color:#FFDD55;stop-color:color(display-p3 1.0000 0.8667 0.3333);stop-opacity:1;"/>
<stop offset="0.5" stop-color="#FF543E" style="stop-color:#FF543E;stop-color:color(display-p3 1.0000 0.3294 0.2431);stop-opacity:1;"/>
<stop offset="1" stop-color="#C837AB" style="stop-color:#C837AB;stop-color:color(display-p3 0.7843 0.2157 0.6706);stop-opacity:1;"/>
</radialGradient>
<radialGradient id="paint1_radial_589_17394" cx="0" cy="0" r="1" gradientUnits="userSpaceOnUse" gradientTransform="translate(-7.24826 3.99141) rotate(78.6776) scale(21.3753 88.132)">
<stop stop-color="#3771C8" style="stop-color:#3771C8;stop-color:color(display-p3 0.2157 0.4431 0.7843);stop-opacity:1;"/>
<stop offset="0.128" stop-color="#3771C8" style="stop-color:#3771C8;stop-color:color(display-p3 0.2157 0.4431 0.7843);stop-opacity:1;"/>
<stop offset="1" stop-color="#6600FF" stop-opacity="0" style="stop-color:none;stop-opacity:0;"/>
</radialGradient>
</defs>
</svg>
