<svg width="14" height="10" viewBox="0 0 14 10" fill="none" xmlns="http://www.w3.org/2000/svg">
<path d="M9.16016 9.39332C9.03255 9.28394 8.96875 9.13811 8.96875 8.95582C8.96875 8.77353 9.03255 8.61858 9.16016 8.49098L11.7578 5.89332H0.65625C0.255208 5.85686 0.0364583 5.629 0 5.20973C0.0364583 4.82691 0.255208 4.61728 0.65625 4.58082H11.7578L9.16016 1.98316C8.90495 1.67327 8.90495 1.36337 9.16016 1.05348C9.47005 0.798267 9.77995 0.798267 10.0898 1.05348L13.8086 4.77223C14.0638 5.08212 14.0638 5.39202 13.8086 5.70191L10.0898 9.42066C9.77995 9.67587 9.47005 9.66676 9.16016 9.39332Z" fill="#F4F4F4" style="fill:#F4F4F4;fill:color(display-p3 0.9569 0.9569 0.9569);fill-opacity:1;"/>
</svg>
