<svg width="14" height="10" viewBox="0 0 14 10" fill="none" xmlns="http://www.w3.org/2000/svg">
<path d="M4.62109 1.05469C4.76693 1.18229 4.83984 1.33724 4.83984 1.51953C4.83984 1.70182 4.76693 1.84766 4.62109 1.95703L2.05078 4.58203H13.1523C13.5534 4.61849 13.7721 4.83724 13.8086 5.23828C13.7721 5.63932 13.5534 5.85807 13.1523 5.89453H2.05078L4.64844 8.49219C4.90365 8.80208 4.90365 9.11198 4.64844 9.42188C4.33854 9.67708 4.02865 9.67708 3.71875 9.42188L0 5.70312C-0.255208 5.39323 -0.255208 5.08333 0 4.77344L3.71875 1.05469C4.02865 0.799479 4.32943 0.799479 4.62109 1.05469Z" fill="#F4F4F4" fill-opacity="0.3" style="fill:#F4F4F4;fill:color(display-p3 0.9569 0.9569 0.9569);fill-opacity:1;"/>
</svg>
