<svg width="126" height="26" viewBox="0 0 126 26" fill="none" xmlns="http://www.w3.org/2000/svg">
<path d="M7.9821 24.7553H3.23429V12.622H0V8.67159H3.23417V5.86061C3.23417 2.5296 4.66465 0.140625 9.3996 0.140625C10.401 0.140625 11.9733 0.347554 11.9733 0.347554V4.01569H10.3219C8.63932 4.01569 7.98235 4.54038 7.98235 5.99094V8.67159H11.9103L11.5605 12.622H7.98223L7.9821 24.7553ZM18.8761 8.3559C18.8069 8.3559 18.7357 8.35848 18.6653 8.36029C14.2628 8.36029 12.2486 11.7551 12.2486 16.5741C12.2486 22.6448 14.8613 25.0745 18.6997 25.0745C20.8957 25.0745 22.3385 24.1269 23.2155 22.3586V24.757H27.7313V8.67327H23.2155V11.1467C22.4994 9.55536 21.0163 8.37476 18.8761 8.3559ZM20.0243 12.1564C21.8733 12.1564 22.9832 13.4786 22.9832 15.7276L22.9874 18.0246C22.9874 19.5404 22.0708 21.3137 20.0243 21.3137C16.8781 21.3137 16.9621 17.8311 16.9621 16.6711C16.9621 12.7693 18.6384 12.1564 20.0243 12.1564ZM29.5551 16.716C29.5551 14.7615 29.4638 8.36636 37.5913 8.36636C40.8539 8.36636 42.2162 9.42981 42.2162 9.42981L41.1212 12.9113C41.1212 12.9113 39.7607 12.1433 37.9879 12.1433C35.7172 12.1433 34.2683 13.4927 34.2683 15.8669L34.2709 17.5694C34.2709 19.8508 35.6688 21.3737 37.9925 21.3737C39.6076 21.3737 41.0962 20.5984 41.0962 20.5984L42.1883 24.0072C42.1883 24.0072 40.9427 25.0773 37.6142 25.0773C29.8755 25.0773 29.5552 19.3396 29.5552 16.716H29.5551ZM68.6942 8.36029C73.0968 8.36029 75.1427 11.7551 75.1427 16.5741C75.1427 22.6448 72.5299 25.0745 68.6916 25.0745C66.4955 25.0745 64.8721 24.127 63.9952 22.3586V24.757L59.5361 24.7552V0.629659L64.2705 0.206372V10.9288C64.9538 9.05289 67.1992 8.36029 68.6942 8.36029ZM67.3669 12.1564C65.5179 12.1564 64.2705 13.4786 64.2705 15.7276L64.2661 18.0246C64.2633 19.5404 65.1299 21.3137 67.3669 21.3137C70.5131 21.3137 70.4291 17.8311 70.4291 16.6711C70.4291 12.7693 68.7529 12.1564 67.3669 12.1564ZM50.4306 8.37359C45.4372 8.37359 42.8011 11.1645 42.8011 16.1244V17.0459C42.8011 23.4833 46.5031 25.1406 50.9166 25.1406C55.2065 25.1406 57.1483 23.9105 57.1483 23.9105L56.2624 20.6348C56.2624 20.6348 53.9783 21.6311 51.4842 21.6311C48.8987 21.6311 47.7868 20.9556 47.5017 18.4083H57.5268V15.7804C57.5268 10.4003 54.5682 8.37346 50.4305 8.37346L50.4306 8.37359ZM50.5509 11.6537C52.2794 11.6537 53.3994 12.7403 53.3379 15.2602H47.5104C47.6115 12.608 48.8193 11.6537 50.5509 11.6537ZM84.5828 8.35151C79.455 8.35151 76.7554 11.3139 76.7554 16.6226C76.7554 23.9064 81.4089 25.0789 84.5914 25.0789C89.2503 25.0789 92.3499 22.5075 92.3499 16.6887C92.3499 10.6324 88.8648 8.35151 84.5828 8.35151ZM84.5183 12.1696C86.7731 12.1696 87.6665 13.8996 87.6665 15.8688V17.5618C87.6665 19.9473 86.4163 21.327 84.5097 21.327C82.7266 21.327 81.4734 20.0364 81.4734 17.5618V15.8688C81.4734 13.2296 82.9646 12.1696 84.5183 12.1696ZM101.782 8.35151C96.6537 8.35151 93.9542 11.3139 93.9542 16.6226C93.9542 23.9064 98.6076 25.0789 101.79 25.0789C106.449 25.0789 109.549 22.5075 109.549 16.6887C109.549 10.6324 106.063 8.35151 101.782 8.35151ZM101.717 12.1696C103.972 12.1696 104.865 13.8996 104.865 15.8688V17.5618C104.865 19.9473 103.615 21.327 101.708 21.327C99.9253 21.327 98.6721 20.0364 98.6721 17.5618V15.8688C98.6721 13.2296 100.163 12.1696 101.717 12.1696ZM111.338 24.7553V0.629659L116.086 0.206501V16.377L120.796 8.67172H125.811L120.897 16.6522L126 24.7553H120.971L116.086 16.8871V24.7553H111.338Z" fill="#1877F2" style="fill:#1877F2;fill:color(display-p3 0.0941 0.4667 0.9490);fill-opacity:1;"/>
</svg>
