<svg width="31" height="31" viewBox="0 0 31 31" fill="none" xmlns="http://www.w3.org/2000/svg">
<path d="M27.5139 25.8378L21.8473 20.0878C23.0695 18.6434 23.8611 17.0045 24.2223 15.1711C24.5834 13.3378 24.4861 11.5184 23.9306 9.7128C23.375 7.90724 22.3889 6.36557 20.9723 5.0878C19.5556 3.81002 17.9306 2.94891 16.0973 2.50446C14.2639 2.06002 12.4445 2.0878 10.6389 2.5878C8.83337 3.0878 7.25003 4.01835 5.88892 5.37946C4.52781 6.74057 3.59725 8.32391 3.09725 10.1295C2.59725 11.935 2.56948 13.7545 3.01392 15.5878C3.45837 17.4211 4.31948 19.0461 5.59725 20.4628C6.87503 21.8795 8.4167 22.8656 10.2223 23.4211C12.0278 23.9767 13.8473 24.0739 15.6806 23.7128C17.5139 23.3517 19.1806 22.56 20.6806 21.3378L26.3473 27.0045C26.5139 27.1711 26.7084 27.2406 26.9306 27.2128C27.1528 27.185 27.3334 27.1017 27.4723 26.9628C27.6111 26.8239 27.6945 26.6434 27.7223 26.4211C27.75 26.1989 27.6806 26.0045 27.5139 25.8378ZM4.43059 13.0878C4.43059 11.4211 4.84725 9.89335 5.68059 8.50446C6.51392 7.11557 7.62503 6.00446 9.01392 5.17113C10.4028 4.3378 11.9306 3.92113 13.5973 3.92113C15.2639 3.92113 16.7917 4.3378 18.1806 5.17113C19.5695 6.00446 20.6806 7.11557 21.5139 8.50446C22.3473 9.89335 22.7639 11.4211 22.7639 13.0878C22.7639 14.7545 22.3473 16.2822 21.5139 17.6711C20.6806 19.06 19.5695 20.1711 18.1806 21.0045C16.7917 21.8378 15.2639 22.2545 13.5973 22.2545C11.9306 22.2545 10.4028 21.8378 9.01392 21.0045C7.62503 20.1711 6.51392 19.06 5.68059 17.6711C4.84725 16.2822 4.43059 14.7545 4.43059 13.0878Z" fill="#F4F4F4" style="fill:#F4F4F4;fill:color(display-p3 0.9569 0.9569 0.9569);fill-opacity:1;"/>
</svg>
