<svg width="12" height="15" viewBox="0 0 12 15" fill="none" xmlns="http://www.w3.org/2000/svg">
<path d="M9.3 14.1758H2.2C1.6 14.1758 1.08333 13.9591 0.65 13.5258C0.216667 13.0924 0 12.5758 0 11.9758V5.42578C0 5.05911 0.0833333 4.71745 0.25 4.40078C0.416667 4.08411 0.65 3.82578 0.95 3.62578L4.5 1.22578C4.86667 0.959114 5.28333 0.825781 5.75 0.825781C6.21667 0.825781 6.63333 0.959114 7 1.22578L10.55 3.62578C10.85 3.82578 11.0917 4.08411 11.275 4.40078C11.4583 4.71745 11.55 5.05911 11.55 5.42578V11.9758C11.55 12.5758 11.325 13.0924 10.875 13.5258C10.425 13.9591 9.9 14.1758 9.3 14.1758ZM5.75 1.72578C5.48333 1.72578 5.23333 1.80911 5 1.97578L1.45 4.32578C1.28333 4.45911 1.14167 4.62578 1.025 4.82578C0.908333 5.02578 0.85 5.22578 0.85 5.42578V11.9758C0.85 12.3424 0.983333 12.6591 1.25 12.9258C1.51667 13.1924 1.83333 13.3258 2.2 13.3258H9.3C9.66667 13.3258 9.98333 13.1924 10.25 12.9258C10.5167 12.6591 10.65 12.3424 10.65 11.9758V5.42578C10.65 5.22578 10.5917 5.02578 10.475 4.82578C10.3583 4.62578 10.2167 4.45911 10.05 4.32578L6.5 1.97578C6.26667 1.80911 6.01667 1.72578 5.75 1.72578ZM3.95 11.0758H7.55V11.9758H3.95V11.0758Z" fill="#06173D" style="fill:#06173D;fill:color(display-p3 0.0235 0.0902 0.2392);fill-opacity:1;"/>
<path d="M9.3 14.1758H2.2C1.6 14.1758 1.08333 13.9591 0.65 13.5258C0.216667 13.0924 0 12.5758 0 11.9758V5.42578C0 5.05911 0.0833333 4.71745 0.25 4.40078C0.416667 4.08411 0.65 3.82578 0.95 3.62578L4.5 1.22578C4.86667 0.959114 5.28333 0.825781 5.75 0.825781C6.21667 0.825781 6.63333 0.959114 7 1.22578L10.55 3.62578C10.85 3.82578 11.0917 4.08411 11.275 4.40078C11.4583 4.71745 11.55 5.05911 11.55 5.42578V11.9758C11.55 12.5758 11.325 13.0924 10.875 13.5258C10.425 13.9591 9.9 14.1758 9.3 14.1758ZM5.75 1.72578C5.48333 1.72578 5.23333 1.80911 5 1.97578L1.45 4.32578C1.28333 4.45911 1.14167 4.62578 1.025 4.82578C0.908333 5.02578 0.85 5.22578 0.85 5.42578V11.9758C0.85 12.3424 0.983333 12.6591 1.25 12.9258C1.51667 13.1924 1.83333 13.3258 2.2 13.3258H9.3C9.66667 13.3258 9.98333 13.1924 10.25 12.9258C10.5167 12.6591 10.65 12.3424 10.65 11.9758V5.42578C10.65 5.22578 10.5917 5.02578 10.475 4.82578C10.3583 4.62578 10.2167 4.45911 10.05 4.32578L6.5 1.97578C6.26667 1.80911 6.01667 1.72578 5.75 1.72578ZM3.95 11.0758H7.55V11.9758H3.95V11.0758Z" fill="black" fill-opacity="0.2" style="fill:black;fill-opacity:0.2;"/>
</svg>
