<svg width="124" height="32" viewBox="0 0 124 32" fill="none" xmlns="http://www.w3.org/2000/svg">
<path d="M81.5282 3.38724C81.5695 3.38724 81.652 3.38724 81.7346 3.38724V6.02892C81.5695 6.02892 81.4457 5.98765 81.3218 5.98765C81.198 5.98765 81.0742 5.98765 81.0329 5.98765C80.001 5.98765 79.2993 6.31786 78.9691 6.97828C78.7627 7.34977 78.6801 7.92764 78.6801 8.71189V13.4999H76.0797V8.42295C76.0797 8.42295 75.7495 3.38724 81.4457 3.38724C81.4457 3.38724 81.4869 3.38724 81.5282 3.38724ZM89.2882 7.14339C89.2469 6.7719 89.1231 6.44169 88.9167 6.15275C88.6277 5.73999 88.1324 5.57489 87.5133 5.57489C86.6052 5.57489 85.9861 5.98765 85.6558 6.85445C85.4907 7.30849 85.4082 7.92764 85.4082 8.67061C85.4082 9.37231 85.4907 9.95018 85.6558 10.4042C85.9861 11.2297 86.6052 11.6425 87.472 11.6425C88.0911 11.6425 88.5452 11.4774 88.8341 11.1472C89.0818 10.817 89.2469 10.4042 89.3294 9.86762H92.095C92.0124 10.6519 91.7235 11.3948 91.1869 12.0965C90.3201 13.211 89.0818 13.7889 87.4307 13.7889C85.7797 13.7889 84.5414 13.3348 83.7571 12.3855C82.9729 11.4361 82.5601 10.2391 82.5601 8.75316C82.5601 7.06083 83.0142 5.78127 83.881 4.83191C84.7478 3.88256 85.9448 3.42852 87.472 3.42852C88.7516 3.42852 89.8248 3.71745 90.6503 4.25404C91.4758 4.79063 91.9711 5.78127 92.1362 7.18466H89.2882V7.14339ZM97.5847 7.43232C98.08 7.39104 98.4102 7.30849 98.6166 7.22594C98.9881 7.06083 99.1532 6.81318 99.1532 6.48296C99.1532 6.0702 99.0294 5.78127 98.7404 5.65744C98.4515 5.49233 98.0387 5.40978 97.5021 5.40978C96.883 5.40978 96.4702 5.57489 96.1813 5.86382C96.0162 6.0702 95.8924 6.40041 95.8098 6.7719H93.3332C93.3745 5.9051 93.6222 5.2034 94.0762 4.66681C94.7779 3.8 95.9336 3.38724 97.5847 3.38724C98.6579 3.38724 99.6072 3.59362 100.474 4.04766C101.3 4.46042 101.712 5.28595 101.712 6.48296V10.1566C101.671 10.817 101.712 14.0365 96.0988 13.7889C95.1907 13.7476 94.4477 13.5412 93.8698 13.0459C93.292 12.5506 93.003 11.8076 93.003 10.8995C93.003 9.70252 93.4571 8.83571 94.4064 8.25785C94.9017 7.96891 95.686 7.76253 96.6766 7.6387L97.5847 7.43232ZM99.1532 8.62933C98.9881 8.75316 98.823 8.79444 98.6579 8.87699C98.4928 8.95954 98.2451 9.00082 97.9562 9.0421L97.3783 9.16593C96.8417 9.24848 96.429 9.37231 96.1813 9.49614C95.7685 9.74379 95.5622 10.1153 95.5622 10.5693C95.5622 11.0234 95.686 11.3123 95.9336 11.5187C96.1813 11.7251 96.4702 11.8076 96.8417 11.8076C97.4196 11.8076 97.9149 11.6425 98.4102 11.3123C98.8643 10.9821 99.1119 10.4042 99.1532 9.53741V8.62933ZM122.598 12.2204C121.773 13.2523 120.534 13.7476 118.842 13.7476C117.15 13.7476 115.911 13.2523 115.086 12.2204C114.26 11.1885 113.848 9.95018 113.848 8.54678C113.848 7.14339 114.26 5.9051 115.086 4.87319C115.911 3.84128 117.15 3.30469 118.842 3.30469C120.534 3.30469 121.773 3.84128 122.598 4.87319C123.424 5.9051 123.836 7.14339 123.836 8.54678C123.836 9.95018 123.424 11.1885 122.598 12.2204ZM120.534 10.817C120.947 10.2804 121.153 9.53741 121.153 8.54678C121.153 7.55615 120.947 6.81318 120.534 6.27658C120.122 5.73999 119.544 5.49233 118.801 5.49233C118.058 5.49233 117.48 5.73999 117.067 6.27658C116.654 6.81318 116.448 7.55615 116.448 8.54678C116.448 9.53741 116.654 10.2804 117.067 10.817C117.48 11.3536 118.058 11.6012 118.801 11.6012C119.585 11.6012 120.163 11.3536 120.534 10.817Z" fill="#293584" style="fill:#293584;fill:color(display-p3 0.1608 0.2078 0.5176);fill-opacity:1;"/>
<path d="M71.7452 10.817C71.6213 10.9821 71.5388 11.1059 71.3737 11.1885C71.0022 11.4774 70.5069 11.56 69.929 11.56C69.3924 11.56 68.9384 11.4774 68.5669 11.2297C67.9065 10.817 67.5763 10.1566 67.535 9.16593H74.6758C74.6758 8.3404 74.6758 7.67998 74.5932 7.22594C74.4694 6.44169 74.2217 5.78127 73.809 5.2034C73.3549 4.54298 72.7771 4.04766 72.1166 3.75873C71.415 3.46979 70.672 3.30469 69.8052 3.30469C68.3605 3.30469 67.2048 3.75873 66.2967 4.66681C65.3886 5.57489 64.9346 6.89573 64.9346 8.58806C64.9346 10.4042 65.4299 11.7251 66.4205 12.5093C67.4111 13.2936 68.5669 13.7063 69.8877 13.7063C71.4562 13.7063 72.6945 13.211 73.5613 12.2616C74.0154 11.7663 74.3456 11.271 74.4694 10.7757H71.7452V10.817ZM68.2779 6.02892C68.6494 5.65744 69.1448 5.45106 69.8052 5.45106C70.4243 5.45106 70.9196 5.61616 71.3324 5.98765C71.7452 6.35914 71.9515 6.85445 72.0341 7.55615H67.6175C67.6588 6.89573 67.9065 6.40041 68.2779 6.02892Z" fill="#293584" style="fill:#293584;fill:color(display-p3 0.1608 0.2078 0.5176);fill-opacity:1;"/>
<path d="M63.4903 13.5468H61.1375V7.60302C61.1375 7.06643 60.9724 5.78687 59.4039 5.78687C58.372 5.78687 57.629 6.52984 57.629 7.60302V13.5468H55.2763V7.60302C55.2763 7.06643 55.1112 5.78687 53.5427 5.78687C52.4695 5.78687 51.7678 6.52984 51.7678 7.60302V13.5468H49.415V7.6443C49.415 5.209 51.0248 3.35156 53.5427 3.35156C54.781 3.35156 55.8129 3.88815 56.4733 4.71368C57.175 3.88815 58.2069 3.35156 59.4039 3.35156C61.963 3.35156 63.4903 5.12644 63.4903 7.6443V13.5468Z" fill="#293584" style="fill:#293584;fill:color(display-p3 0.1608 0.2078 0.5176);fill-opacity:1;"/>
<path d="M112.484 0.167503C112.484 0.167503 109.884 -0.0388783 109.884 1.736V2.06621V4.83173C109.595 4.37769 109.223 4.0062 108.769 3.75854C108.315 3.51089 107.779 3.38706 107.201 3.38706C105.921 3.38706 104.889 3.88237 104.105 4.83173C103.321 5.78108 102.949 7.10192 102.949 8.79425C102.949 10.2389 103.321 11.4359 104.105 12.344C104.889 13.2521 106.416 13.6649 107.779 13.6649C112.525 13.6649 112.484 9.5785 112.484 9.5785V0.167503ZM109.388 10.7342C109.017 11.2708 108.439 11.5598 107.737 11.5598C106.994 11.5598 106.458 11.2708 106.128 10.7342C105.756 10.1976 105.591 9.45467 105.591 8.5466C105.591 7.72107 105.756 7.01937 106.128 6.4415C106.458 5.86364 107.036 5.5747 107.779 5.5747C108.274 5.5747 108.687 5.73981 109.058 6.02874C109.677 6.56533 109.966 7.39086 109.966 8.58787C109.925 9.49595 109.76 10.1976 109.388 10.7342Z" fill="#293584" style="fill:#293584;fill:color(display-p3 0.1608 0.2078 0.5176);fill-opacity:1;"/>
<path d="M73.6453 14.9883H71.0449V17.5474H73.6453V14.9883Z" fill="#293584" style="fill:#293584;fill:color(display-p3 0.1608 0.2078 0.5176);fill-opacity:1;"/>
<path d="M92.2185 18.2074C92.2598 18.2074 92.3424 18.2074 92.4249 18.2074V20.8491C92.2598 20.8491 92.136 20.8078 92.0122 20.8078C91.8883 20.8078 91.8058 20.8078 91.7232 20.8078C90.6913 20.8078 89.9896 21.138 89.6594 21.7984C89.453 22.1699 89.3705 22.7478 89.3705 23.532V28.2375H86.7701V23.2431C86.7701 23.2431 86.4398 18.2074 92.136 18.2074C92.1773 18.2074 92.2185 18.2074 92.2185 18.2074ZM81.3629 18.2486C82.6424 18.2486 83.6743 18.744 84.4586 19.6933C85.2428 20.6427 85.6143 21.9635 85.6143 23.6558C85.6143 25.1005 85.2428 26.2975 84.4586 27.2056C83.6743 28.1137 82.1471 28.5264 80.785 28.5264C76.0382 28.5264 76.0795 24.4401 76.0795 24.4401C76.0795 24.4401 76.0795 18.3312 76.0795 16.5563C76.0795 14.7814 78.6799 14.9878 78.6799 14.9878V19.6933C78.9688 19.2393 79.3403 18.8678 79.7944 18.6201C80.2484 18.3725 80.785 18.2486 81.3629 18.2486ZM80.785 26.4214C81.528 26.4214 82.0646 26.1324 82.3948 25.5958C82.7663 25.0592 82.9314 24.3163 82.9314 23.4082C82.9314 22.5827 82.7663 21.881 82.3948 21.3031C82.0646 20.7252 81.4867 20.4363 80.7437 20.4363C80.2484 20.4363 79.8356 20.6014 79.4642 20.8903C78.845 21.4269 78.5561 22.2524 78.5561 23.4495C78.5561 24.3163 78.7625 25.018 79.1339 25.5546C79.5467 26.1324 80.0833 26.4214 80.785 26.4214ZM68.4021 28.2788H65.9668C65.9668 28.2788 65.9668 18.8265 65.9668 16.8865C65.9668 14.9465 68.4021 15.0291 68.4021 15.0291V28.2788ZM71.0438 18.455H73.6442V28.2788H71.0438V18.455Z" fill="#293584" style="fill:#293584;fill:color(display-p3 0.1608 0.2078 0.5176);fill-opacity:1;"/>
<path d="M99.896 25.639C99.7722 25.8041 99.6896 25.9279 99.5658 26.0105C99.1943 26.2994 98.699 26.4232 98.1211 26.4232C97.5845 26.4232 97.1305 26.3407 96.759 26.093C96.1399 25.6803 95.7684 25.0198 95.7271 24.0292H102.785C102.785 23.2037 102.785 22.5433 102.703 22.0892C102.579 21.3462 102.331 20.6445 101.919 20.0667C101.465 19.4063 100.928 18.9522 100.226 18.622C99.5658 18.3331 98.7816 18.168 97.956 18.168C96.5114 18.168 95.3556 18.622 94.4888 19.5301C93.5807 20.4382 93.168 21.7177 93.168 23.4101C93.168 25.2262 93.6633 26.5058 94.6539 27.29C95.6446 28.0743 96.8003 28.487 98.0799 28.487C99.6484 28.487 100.845 28.033 101.753 27.0837C102.207 26.5883 102.496 26.093 102.62 25.5977H99.896V25.639ZM96.4288 20.8509C96.8003 20.4794 97.2956 20.3143 97.956 20.3143C98.5752 20.3143 99.0705 20.4794 99.4832 20.8509C99.896 21.1811 100.102 21.7177 100.144 22.3782H95.7684C95.8509 21.7177 96.0986 21.2224 96.4288 20.8509Z" fill="#293584" style="fill:#293584;fill:color(display-p3 0.1608 0.2078 0.5176);fill-opacity:1;"/>
<path d="M42.7264 12.7966C41.1579 5.98597 32.2834 0.785156 21.5929 0.785156C11.0261 0.785156 2.23429 5.77959 0.418132 12.3012C0.376855 12.3838 0.376855 12.5076 0.335579 12.5902C0.335579 12.6315 0.335579 12.6727 0.294303 12.6727C0.170474 13.457 -0.0359077 14.6127 0.0053686 15.8923C0.0053686 15.9748 0.0053686 16.0574 0.0053686 16.1399C0.170474 24.519 9.82913 31.1233 21.6342 31.1233C27.289 31.1233 32.6549 29.7611 36.6587 26.9543C40.7864 24.065 43.0566 20.185 43.0566 16.0574C43.0566 14.5302 42.974 13.5808 42.7264 12.7966Z" fill="#293584" style="fill:#293584;fill:color(display-p3 0.1608 0.2078 0.5176);fill-opacity:1;"/>
<path d="M21.5938 1.57031C10.1602 1.57031 0.873047 7.47283 0.873047 14.7787C0.873047 18.3285 3.01942 21.6719 6.89939 24.231C10.8619 26.8314 16.0627 28.2761 21.5938 28.2761C32.9447 28.2761 42.1494 22.291 42.1494 14.9438C42.1906 7.55538 32.9447 1.57031 21.5938 1.57031Z" fill="#F8E100" style="fill:#F8E100;fill:color(display-p3 0.9725 0.8824 0.0000);fill-opacity:1;"/>
<mask id="mask0_589_17367" style="mask-type:luminance" maskUnits="userSpaceOnUse" x="0" y="1" width="43" height="28">
<path d="M21.5928 1.57031C10.1592 1.57031 0.87207 7.47283 0.87207 14.7787C0.87207 18.3285 3.01844 21.6719 6.89841 24.231C10.8609 26.8314 16.0618 28.2761 21.5928 28.2761C32.9438 28.2761 42.1484 22.291 42.1484 14.9438C42.1897 7.55538 32.9438 1.57031 21.5928 1.57031Z" fill="white" style="fill:white;fill-opacity:1;"/>
</mask>
<g mask="url(#mask0_589_17367)">
<path d="M26.0488 7.22358C26.0488 7.22358 23.9024 6.23295 21.8386 6.27422C18.7429 6.35678 17.422 7.67762 15.9773 9.12229L14.1612 11.0623C14.1612 11.1036 13.9548 11.3099 14.0786 11.475C14.4088 11.8878 15.3995 12.1355 16.4314 11.8878C17.0505 11.764 17.7935 11.1448 18.5777 10.5257C19.4033 9.86526 20.1875 9.24612 21.0131 8.95718C21.8799 8.66825 22.4164 8.79208 22.7879 8.91591C23.2007 9.03974 23.6547 9.2874 24.3977 9.86526C25.8011 10.8972 31.4972 15.8503 32.4466 16.7171C33.3134 16.3044 37.6061 14.4882 43.261 13.4563C43.4674 12.7546 43.5499 12.0529 43.5499 11.3925C43.5499 8.91591 42.3116 6.97592 40.2065 5.53125C36.6568 7.63634 31.2909 9.78271 26.0488 7.22358Z" fill="white" style="fill:white;fill-opacity:1;"/>
<path d="M1.82032 13.9122C7.68156 15.233 9.49772 16.5538 9.82793 16.8428C10.1994 16.43 10.6947 16.1824 11.2726 16.1824C11.933 16.1824 12.5109 16.5126 12.8411 17.0079C13.1713 16.7602 13.6253 16.5126 14.2445 16.5126C14.5334 16.5126 14.7811 16.5538 15.07 16.6777C15.7304 16.8841 16.0607 17.3381 16.267 17.7509C16.4734 17.6683 16.7624 17.5858 17.0926 17.5858C17.4228 17.5858 17.753 17.6683 18.0832 17.7921C19.1564 18.2462 19.3215 19.3194 19.2389 20.1036C19.3215 20.1036 19.404 20.1036 19.4866 20.1036C20.7662 20.1036 21.7981 21.1355 21.7981 22.4151C21.7981 22.8278 21.7155 23.1993 21.5091 23.5295C21.8393 23.7359 22.7474 24.1487 23.5317 24.0661C24.1508 23.9836 24.3985 23.7772 24.481 23.6534C24.5223 23.5708 24.6049 23.4883 24.5636 23.4057L22.9125 21.5896C22.9125 21.5896 22.6236 21.3419 22.7474 21.2181C22.83 21.1355 22.9951 21.2593 23.1189 21.3832C23.9444 22.0849 24.9763 23.1581 24.9763 23.1581C24.9763 23.1581 25.0589 23.3232 25.4304 23.3644C25.7606 23.4057 26.3385 23.4057 26.7512 23.0755C26.8338 22.993 26.9576 22.8691 27.0402 22.7866C27.4529 22.25 26.9989 21.7134 26.9989 21.7134L25.0589 19.567C25.0589 19.567 24.77 19.3194 24.8938 19.1955C24.9763 19.113 25.1414 19.2368 25.2653 19.3606C25.8844 19.856 26.7512 20.7228 27.5767 21.5483C27.7419 21.6721 28.4848 22.1262 29.4342 21.4657C30.0121 21.0942 30.1359 20.5989 30.1359 20.2687C30.0946 19.8147 29.7231 19.4845 29.7231 19.4845L27.0814 16.8428C27.0814 16.8428 26.7925 16.5951 26.9163 16.4713C26.9989 16.3887 27.164 16.5126 27.2878 16.5951C28.1133 17.2968 30.3835 19.3606 30.3835 19.3606C30.4248 19.4019 31.2091 19.9385 32.1584 19.3194C32.4886 19.113 32.7363 18.7828 32.7363 18.37C32.7776 17.7096 32.2822 17.2968 32.2822 17.2968C32.1997 17.2555 25.6368 11.4769 24.1095 10.3624C23.2427 9.70198 22.7474 9.53687 22.2521 9.4956C22.0044 9.45432 21.633 9.4956 21.3853 9.57815C20.6836 9.78453 19.7755 10.3624 18.9913 11.0228C18.1657 11.6832 17.3815 12.3024 16.6385 12.4675C15.6892 12.6739 14.5747 12.4262 14.0381 12.096C13.8317 11.9722 13.6666 11.8071 13.6253 11.642C13.419 11.1879 13.7905 10.8577 13.8317 10.7752L15.6479 8.7939C15.8543 8.58752 16.0607 8.38114 16.3083 8.17475C15.7304 8.25731 15.1938 8.38114 14.6573 8.54624C13.9968 8.71135 13.3777 8.91773 12.7173 8.91773C12.4696 8.91773 12.1807 8.87645 11.8917 8.7939C9.82793 8.21603 6.27816 7.39051 3.96669 5.86328C1.36628 7.39051 0.582031 8.67007 0.582031 11.4356C0.582031 12.1786 0.70586 12.9628 0.953518 13.7883C1.20118 13.7883 1.53139 13.8709 1.82032 13.9122Z" fill="white" style="fill:white;fill-opacity:1;"/>
<path d="M15.978 22.7038C16.721 22.9928 17.175 22.7038 17.464 22.4149C17.5878 22.2911 17.6291 22.3323 17.6291 22.4974C17.6704 23.4468 18.4546 24.231 19.4452 24.231C20.4359 24.231 21.2614 23.4055 21.2614 22.4149C21.2614 21.4243 20.4359 20.5987 19.4452 20.5987C19.0325 20.5987 18.5784 20.8464 18.5372 20.8051C18.4959 20.7638 18.5784 20.5987 18.6197 20.5162C18.661 20.4336 19.1976 18.8238 17.8767 18.246C16.8861 17.8332 16.267 18.2873 16.0606 18.5349C16.0193 18.5762 15.978 18.5762 15.978 18.5349C15.978 18.246 15.8129 17.4617 14.9461 17.1728C13.7078 16.8013 12.9236 17.6681 12.7172 17.957C12.6347 17.2553 12.0155 16.7188 11.3138 16.7188C10.5296 16.7188 9.86914 17.3792 9.86914 18.1634C9.86914 18.9477 10.5296 19.6081 11.3138 19.6081C11.6853 19.6081 12.0568 19.443 12.3044 19.1953V19.2366C12.2632 19.6081 12.1393 20.8877 13.5015 21.4243C14.038 21.6306 14.4921 21.4655 14.9049 21.2179C15.0287 21.1353 15.0287 21.1766 15.0287 21.2591C14.9049 21.5894 14.9874 22.2911 15.978 22.7038Z" fill="white" style="fill:white;fill-opacity:1;"/>
<path d="M19.445 24.8513C18.4544 24.8513 17.5463 24.2322 17.1748 23.3241C16.9684 23.4066 16.762 23.4479 16.5557 23.4479C16.308 23.4479 16.0191 23.4066 15.7301 23.2828C14.9459 22.9526 14.6157 22.4573 14.4506 22.0858C14.2855 22.1271 14.1204 22.1271 13.9965 22.1271C13.7489 22.1271 13.5012 22.0858 13.2536 22.0032C12.428 21.673 11.8502 21.0539 11.6851 20.1871C11.5612 20.2284 11.4374 20.2284 11.3136 20.2284C10.1578 20.2284 9.24975 19.279 9.24975 18.1645C9.24975 17.8756 9.29103 17.6279 9.41486 17.3803C9.04337 17.0914 7.22721 15.8118 1.65491 14.5735C1.44853 14.5322 0.870659 14.4084 0.870659 14.4084L0.581724 14.202C0.499172 13.9956 0.829382 13.9544 0.74683 13.748L0.664277 13.5416H0.911935C1.24215 13.6241 1.4898 13.7067 1.77874 13.7892C7.30977 14.9863 9.29103 16.2658 9.82762 16.6786C10.1991 16.3071 10.7357 16.0594 11.2723 16.0594C11.8914 16.0594 12.5106 16.3484 12.8821 16.8437C13.2948 16.5548 13.7489 16.3897 14.2442 16.3897C14.5331 16.3897 14.8221 16.4309 15.111 16.5548C15.6476 16.7199 16.0603 17.0914 16.308 17.5867C16.5557 17.5041 16.8033 17.4628 17.051 17.4628C17.3812 17.4628 17.7114 17.5454 18.0829 17.6692C19.2799 18.1645 19.3625 19.3616 19.3212 19.9807C19.3625 19.9807 19.3625 19.9807 19.4037 19.9807C20.7658 19.9807 21.839 21.0952 21.839 22.416C21.839 22.7875 21.7565 23.1177 21.5914 23.4479C21.9216 23.613 22.582 23.9432 23.2012 23.9432C23.2837 23.9432 23.3663 23.9432 23.4075 23.9432C23.9854 23.8607 24.1918 23.6543 24.2743 23.5717C24.3156 23.5305 24.3156 23.4892 24.3156 23.4479L22.6646 21.6318C22.582 21.5492 22.3343 21.2603 22.4995 21.0952C22.5407 21.0539 22.6233 21.0126 22.6646 21.0126C22.7884 21.0126 22.9535 21.1364 23.036 21.219C23.8203 21.8794 24.8109 22.87 24.9348 22.9939L24.976 23.0351C25.0586 23.1177 25.1824 23.159 25.3475 23.2003C25.4301 23.2003 25.5126 23.2415 25.5952 23.2415C25.7603 23.2415 26.2143 23.2003 26.5445 22.9526C26.5858 22.9113 26.6684 22.8288 26.7096 22.7875L26.7922 22.7049C27.1637 22.2509 26.7509 21.7969 26.7509 21.7969L24.8935 19.5679C24.8935 19.5679 24.8109 19.4854 24.7697 19.4028C24.6045 19.1964 24.6458 19.0726 24.7284 19.0313C24.7697 18.9901 24.8109 18.9488 24.8935 18.9488C25.0173 18.9488 25.1411 19.0313 25.3062 19.1552C25.8428 19.6092 26.5445 20.3109 27.2462 20.9713L27.6177 21.3428C27.7003 21.3841 27.9479 21.5905 28.3607 21.5905C28.6496 21.5905 28.9798 21.4666 29.31 21.3015C29.7641 21.0126 29.9705 20.6411 29.9292 20.1871C29.8879 19.7743 29.5577 19.4854 29.5577 19.4854L26.916 16.8437C26.7509 16.6786 26.5858 16.4722 26.7096 16.3071C26.7509 16.2658 26.8335 16.2246 26.8747 16.2246C26.9986 16.2246 27.1224 16.3071 27.2462 16.4309C28.0718 17.1326 30.342 19.1964 30.342 19.2377C30.342 19.2377 30.6722 19.4441 31.1262 19.4441C31.4151 19.4441 31.7041 19.3616 31.993 19.1552C32.3232 18.9488 32.4883 18.6599 32.5296 18.3296C32.5709 17.7105 32.1581 17.3803 32.1168 17.3803C32.0343 17.339 25.4713 11.5603 23.9854 10.4459C23.1599 9.82672 22.6646 9.66162 22.2105 9.57906C22.1692 9.57906 22.0867 9.57906 22.0454 9.57906C21.839 9.57906 21.5914 9.62034 21.385 9.66162C20.642 9.868 19.6927 10.5284 19.0322 11.065C18.2067 11.7254 17.3812 12.3859 16.6382 12.551C16.3906 12.5922 16.1429 12.6335 15.854 12.6335C15.1523 12.6335 14.368 12.4271 13.914 12.1382C13.6663 11.9731 13.5012 11.808 13.4187 11.6016C13.2123 11.1476 13.5425 10.7348 13.6663 10.611L15.4825 8.62971C15.6063 8.50588 15.7301 8.38205 15.854 8.2995C15.3999 8.38205 14.9872 8.50588 14.6157 8.58843C13.9553 8.75354 13.2948 8.95992 12.6344 8.95992C12.3455 8.95992 12.0565 8.91864 11.7676 8.91864C10.488 8.83609 5.69999 7.51525 3.01703 6.0293L2.85192 5.90547L3.01703 5.78164C3.18213 5.65781 3.38851 5.57526 3.5949 5.45143L3.67745 5.41016L3.76 5.45143C6.11275 6.77227 11.1485 8.09312 11.974 8.09312C12.0153 8.09312 12.428 8.13439 12.6344 8.13439C13.171 8.13439 13.7489 7.96929 14.368 7.80418C15.111 7.5978 15.8952 7.39142 16.8446 7.35014C17.794 6.56589 19.2386 5.65781 21.7978 5.57526C21.839 5.57526 21.9216 5.57526 21.9629 5.57526C24.1505 5.57526 26.2143 6.56589 26.2969 6.60717C27.9479 7.4327 29.6815 7.84546 31.4151 7.84546C33.7679 7.84546 36.1619 7.10249 38.8449 5.57526L38.9274 5.53399L39.01 5.57526C39.1751 5.69909 39.3402 5.78164 39.5466 5.90547L39.7117 6.0293L39.5466 6.11185C36.6572 7.80418 34.0155 8.62971 31.4564 8.62971C29.599 8.62971 27.7828 8.17567 26.0079 7.30887C25.8016 7.22631 23.9028 6.35951 22.0041 6.35951C21.9629 6.35951 21.9216 6.35951 21.839 6.35951C18.7846 6.44206 17.4637 7.76291 16.0603 9.1663L14.2855 11.1063C14.2029 11.2301 14.1616 11.2714 14.2029 11.3539C14.4093 11.6429 14.9872 11.808 15.6476 11.808C15.8952 11.808 16.1842 11.7667 16.4318 11.7254C17.0097 11.6016 17.7527 10.9825 18.4956 10.4046L18.5369 10.3633C19.3212 9.74417 20.1467 9.08375 20.9722 8.83609C21.3437 8.71226 21.6739 8.67099 22.0041 8.67099C22.3343 8.67099 22.6233 8.75354 22.8297 8.79481C23.2837 8.91864 23.779 9.20758 24.4807 9.74417C25.7603 10.6935 30.4658 14.7799 32.4883 16.5548C33.479 16.1007 37.7304 14.2846 43.2614 13.2527L43.4678 13.2114L43.4265 13.4178C43.4265 13.459 43.4266 13.5416 43.4678 13.6241C43.5091 13.748 43.5504 13.8718 43.5091 13.9956L43.4678 14.0782L43.3853 14.1195C38.7623 14.9863 34.7172 16.4722 33.0662 17.1739C33.2726 17.5454 33.3964 17.9582 33.3551 18.3709C33.3139 18.9901 32.9836 19.4854 32.447 19.8156C32.0343 20.0632 31.5802 20.2284 31.1675 20.2284C31.0024 20.2284 30.8785 20.2284 30.7134 20.1871C30.7134 20.6824 30.5896 21.3841 29.7228 21.962C29.2688 22.2509 28.8147 22.416 28.3607 22.416C28.1956 22.416 28.0718 22.416 27.9067 22.3747C27.8654 22.7462 27.5352 23.2002 27.1224 23.5305C26.6684 23.8607 26.2556 24.0258 25.8016 24.0258C25.5539 24.0258 25.3475 23.9845 25.1411 23.9019C25.0999 23.9432 25.0999 23.9845 25.0586 24.0258C24.8935 24.2734 24.4807 24.6036 23.6552 24.7275C23.5726 24.7275 23.4488 24.7275 23.325 24.7275C22.4995 24.7275 21.6327 24.3147 21.2612 24.1083C20.7246 24.6036 20.1054 24.8513 19.445 24.8513ZM17.5876 22.2096C17.7527 22.2096 17.7527 22.416 17.7527 22.4986C17.794 23.4066 18.5369 24.1083 19.445 24.1083C20.3531 24.1083 21.1373 23.3654 21.1373 22.416C21.1373 21.5079 20.3944 20.7649 19.445 20.7237C19.1973 20.7237 18.9497 20.8062 18.7846 20.8475C18.6608 20.8888 18.6195 20.9301 18.5369 20.9301H18.4956L18.4544 20.8888C18.3718 20.8062 18.3718 20.7237 18.4544 20.4347C18.4544 20.4347 19.0322 18.8662 17.794 18.3296C17.5463 18.2058 17.2986 18.1645 17.0923 18.1645C16.5969 18.1645 16.2667 18.4122 16.1429 18.5773C16.1016 18.6186 16.0603 18.6599 15.9778 18.6599C15.9365 18.6599 15.8127 18.6599 15.8127 18.4948C15.7714 18.2058 15.6476 17.5041 14.9046 17.2565C14.6982 17.2152 14.5331 17.1739 14.3267 17.1739C13.3361 17.1739 12.8408 17.9582 12.7995 17.9994L12.6344 18.3296L12.5931 17.9582C12.5106 17.2977 11.974 16.8024 11.3136 16.8024C10.6119 16.8024 9.99273 17.3803 9.99273 18.1233C9.99273 18.825 10.5706 19.4441 11.3136 19.4441C11.6438 19.4441 11.974 19.3203 12.2216 19.0726L12.3042 18.9901L12.3868 19.0726C12.428 19.1139 12.4693 19.1552 12.428 19.2377C12.3868 19.6092 12.2629 20.7649 13.5425 21.2603C13.7076 21.3015 13.8314 21.3428 13.9965 21.3428C14.2855 21.3428 14.5331 21.2603 14.8221 21.0539C14.9046 21.0126 14.9459 20.9713 14.9872 20.9713H15.0284L15.0697 21.0126C15.111 21.0539 15.111 21.1364 15.111 21.219C15.0697 21.4666 15.0697 22.1271 16.0603 22.5398C16.2667 22.6224 16.4318 22.6637 16.5969 22.6637C16.9684 22.6637 17.2161 22.4573 17.4225 22.2922C17.4637 22.2509 17.505 22.2096 17.5876 22.2096Z" fill="#293584" style="fill:#293584;fill:color(display-p3 0.1608 0.2078 0.5176);fill-opacity:1;"/>
</g>
</svg>
