<svg width="30" height="31" viewBox="0 0 30 31" fill="none" xmlns="http://www.w3.org/2000/svg">
<path d="M25.3594 5.27539C28.1484 8.06445 29.875 11.7168 29.875 15.7012C29.875 23.8027 23.1016 30.4434 14.9336 30.4434C12.4766 30.4434 10.0859 29.7793 7.89453 28.6504L0.125 30.6426L2.18359 23.0059C0.921875 20.8145 0.191406 18.291 0.191406 15.6348C0.191406 7.5332 6.83203 0.892578 14.9336 0.892578C18.918 0.892578 22.6367 2.48633 25.3594 5.27539ZM14.9336 27.9199C21.707 27.9199 27.3516 22.4082 27.3516 15.7012C27.3516 12.3809 25.957 9.32617 23.6328 7.00195C21.3086 4.67773 18.2539 3.41602 15 3.41602C8.22656 3.41602 2.71484 8.92773 2.71484 15.6348C2.71484 17.959 3.37891 20.2168 4.57422 22.209L4.90625 22.6738L3.64453 27.1895L8.29297 25.9277L8.69141 26.1934C10.6172 27.3223 12.7422 27.9199 14.9336 27.9199ZM21.707 18.7559C22.0391 18.9551 22.3047 19.0215 22.3711 19.2207C22.5039 19.3535 22.5039 20.084 22.1719 20.9473C21.8398 21.8105 20.3789 22.6074 19.7148 22.6738C18.5195 22.873 17.5898 22.8066 15.2656 21.7441C11.5469 20.1504 9.15625 16.4316 8.95703 16.2324C8.75781 15.9668 7.49609 14.2402 7.49609 12.3809C7.49609 10.5879 8.42578 9.72461 8.75781 9.32617C9.08984 8.92773 9.48828 8.86133 9.75391 8.86133C9.95312 8.86133 10.2188 8.86133 10.418 8.86133C10.6836 8.86133 10.9492 8.79492 11.2812 9.52539C11.5469 10.2559 12.3438 12.0488 12.4102 12.248C12.4766 12.4473 12.543 12.6465 12.4102 12.9121C11.7461 14.3066 10.9492 14.2402 11.3477 14.9043C12.8086 17.3613 14.2031 18.2246 16.3945 19.2871C16.7266 19.4863 16.9258 19.4199 17.1914 19.2207C17.3906 18.9551 18.1211 18.0918 18.3203 17.7598C18.5859 17.3613 18.8516 17.4277 19.1836 17.5605C19.5156 17.6934 21.3086 18.5566 21.707 18.7559Z" fill="#06173D" style="fill:#06173D;fill:color(display-p3 0.0235 0.0902 0.2392);fill-opacity:1;"/>
<path d="M25.3594 5.27539C28.1484 8.06445 29.875 11.7168 29.875 15.7012C29.875 23.8027 23.1016 30.4434 14.9336 30.4434C12.4766 30.4434 10.0859 29.7793 7.89453 28.6504L0.125 30.6426L2.18359 23.0059C0.921875 20.8145 0.191406 18.291 0.191406 15.6348C0.191406 7.5332 6.83203 0.892578 14.9336 0.892578C18.918 0.892578 22.6367 2.48633 25.3594 5.27539ZM14.9336 27.9199C21.707 27.9199 27.3516 22.4082 27.3516 15.7012C27.3516 12.3809 25.957 9.32617 23.6328 7.00195C21.3086 4.67773 18.2539 3.41602 15 3.41602C8.22656 3.41602 2.71484 8.92773 2.71484 15.6348C2.71484 17.959 3.37891 20.2168 4.57422 22.209L4.90625 22.6738L3.64453 27.1895L8.29297 25.9277L8.69141 26.1934C10.6172 27.3223 12.7422 27.9199 14.9336 27.9199ZM21.707 18.7559C22.0391 18.9551 22.3047 19.0215 22.3711 19.2207C22.5039 19.3535 22.5039 20.084 22.1719 20.9473C21.8398 21.8105 20.3789 22.6074 19.7148 22.6738C18.5195 22.873 17.5898 22.8066 15.2656 21.7441C11.5469 20.1504 9.15625 16.4316 8.95703 16.2324C8.75781 15.9668 7.49609 14.2402 7.49609 12.3809C7.49609 10.5879 8.42578 9.72461 8.75781 9.32617C9.08984 8.92773 9.48828 8.86133 9.75391 8.86133C9.95312 8.86133 10.2188 8.86133 10.418 8.86133C10.6836 8.86133 10.9492 8.79492 11.2812 9.52539C11.5469 10.2559 12.3438 12.0488 12.4102 12.248C12.4766 12.4473 12.543 12.6465 12.4102 12.9121C11.7461 14.3066 10.9492 14.2402 11.3477 14.9043C12.8086 17.3613 14.2031 18.2246 16.3945 19.2871C16.7266 19.4863 16.9258 19.4199 17.1914 19.2207C17.3906 18.9551 18.1211 18.0918 18.3203 17.7598C18.5859 17.3613 18.8516 17.4277 19.1836 17.5605C19.5156 17.6934 21.3086 18.5566 21.707 18.7559Z" fill="black" fill-opacity="0.2" style="fill:black;fill-opacity:0.2;"/>
</svg>
