<svg width="123" height="28" viewBox="0 0 123 28" fill="none" xmlns="http://www.w3.org/2000/svg">
<path d="M38.7108 4.34978C38.2652 2.69493 36.9605 1.39015 35.3056 0.944611C32.2823 0.117188 20.1892 0.117188 20.1892 0.117188C20.1892 0.117188 8.09611 0.117188 5.07284 0.912787C3.44981 1.35832 2.11321 2.69493 1.66767 4.34978C0.87207 7.37305 0.87207 13.6424 0.87207 13.6424C0.87207 13.6424 0.87207 19.9435 1.66767 22.935C2.11321 24.5898 3.41799 25.8946 5.07284 26.3401C8.12794 27.1676 20.1892 27.1676 20.1892 27.1676C20.1892 27.1676 32.2823 27.1676 35.3056 26.372C36.9605 25.9264 38.2652 24.6216 38.7108 22.9668C39.5064 19.9435 39.5064 13.6742 39.5064 13.6742C39.5064 13.6742 39.5382 7.37305 38.7108 4.34978Z" fill="#FF0000" style="fill:#FF0000;fill:color(display-p3 1.0000 0.0000 0.0000);fill-opacity:1;"/>
<path d="M16.3389 7.84766V19.4316L26.3952 13.6396L16.3389 7.84766Z" fill="white" style="fill:white;fill-opacity:1;"/>
<path d="M56.9764 24.7517C56.2126 24.2425 55.6716 23.4469 55.3533 22.3331C55.0351 21.2511 54.876 19.7872 54.876 18.005V15.5546C54.876 13.7406 55.0669 12.2767 55.417 11.1629C55.7989 10.049 56.3717 9.25343 57.1355 8.74424C57.9311 8.23506 58.9494 7.98047 60.2224 7.98047C61.4635 7.98047 62.4819 8.23506 63.2457 8.74424C64.0095 9.25343 64.5505 10.0809 64.9005 11.1629C65.2506 12.2449 65.4415 13.7088 65.4415 15.5546V18.005C65.4415 19.819 65.2824 21.2511 64.9324 22.3649C64.5823 23.4469 64.0413 24.2743 63.2775 24.7835C62.5137 25.2927 61.4635 25.5473 60.1588 25.5473C58.8222 25.5155 57.7401 25.2609 56.9764 24.7517ZM61.2726 22.0785C61.4954 21.5375 61.5908 20.6146 61.5908 19.3735V14.0907C61.5908 12.8814 61.4954 11.9903 61.2726 11.4175C61.0498 10.8446 60.6998 10.59 60.1588 10.59C59.6496 10.59 59.2677 10.8765 59.0767 11.4175C58.854 11.9903 58.7585 12.8814 58.7585 14.0907V19.3735C58.7585 20.6146 58.854 21.5375 59.0767 22.0785C59.2677 22.6195 59.6496 22.9059 60.1906 22.9059C60.6998 22.9059 61.0498 22.6513 61.2726 22.0785Z" fill="#282828" style="fill:#282828;fill:color(display-p3 0.1569 0.1569 0.1569);fill-opacity:1;"/>
<path d="M115.724 18.0341V18.8933C115.724 19.9753 115.756 20.8028 115.819 21.3438C115.883 21.8848 116.01 22.2985 116.233 22.5213C116.424 22.7759 116.742 22.9032 117.188 22.9032C117.761 22.9032 118.142 22.6804 118.365 22.2349C118.588 21.7893 118.683 21.0574 118.715 20.0072L121.993 20.1981C122.025 20.3572 122.025 20.5482 122.025 20.8028C122.025 22.3621 121.611 23.5396 120.752 24.3034C119.893 25.0672 118.683 25.4491 117.124 25.4491C115.246 25.4491 113.942 24.8444 113.178 23.6669C112.414 22.4894 112.032 20.6755 112.032 18.1932V15.2336C112.032 12.6877 112.414 10.8419 113.21 9.66438C114.005 8.48689 115.342 7.91406 117.22 7.91406C118.524 7.91406 119.543 8.16865 120.243 8.64601C120.943 9.12337 121.42 9.88715 121.707 10.8737C121.993 11.8921 122.12 13.2923 122.12 15.0745V17.9704H115.724V18.0341ZM116.201 10.9055C116.01 11.1601 115.883 11.542 115.819 12.083C115.756 12.624 115.724 13.4514 115.724 14.5653V15.7746H118.524V14.5653C118.524 13.4833 118.492 12.6558 118.429 12.083C118.365 11.5102 118.206 11.1283 118.015 10.9055C117.824 10.6827 117.506 10.5555 117.124 10.5555C116.679 10.5236 116.392 10.6509 116.201 10.9055Z" fill="#282828" style="fill:#282828;fill:color(display-p3 0.1569 0.1569 0.1569);fill-opacity:1;"/>
<path d="M47.6835 17.7166L43.3555 2.02734H47.1425L48.6701 9.12409C49.052 10.8744 49.3384 12.3701 49.5293 13.6113H49.6248C49.7521 12.7202 50.0385 11.2563 50.484 9.15592L52.0752 2.02734H55.8623L51.4706 17.7166V25.227H47.7154V17.7166H47.6835Z" fill="#282828" style="fill:#282828;fill:color(display-p3 0.1569 0.1569 0.1569);fill-opacity:1;"/>
<path d="M77.7569 8.29688V25.2591H74.7654L74.4472 23.1905H74.3517C73.5561 24.7499 72.315 25.5455 70.6919 25.5455C69.5781 25.5455 68.7507 25.1636 68.2097 24.4316C67.6687 23.6997 67.4141 22.554 67.4141 20.9628V8.29688H71.2329V20.7401C71.2329 21.5038 71.3284 22.0448 71.4875 22.3631C71.6466 22.6813 71.9331 22.8404 72.315 22.8404C72.6332 22.8404 72.9514 22.745 73.2697 22.5222C73.5879 22.3312 73.8107 22.0767 73.938 21.7584V8.29688H77.7569Z" fill="#282828" style="fill:#282828;fill:color(display-p3 0.1569 0.1569 0.1569);fill-opacity:1;"/>
<path d="M97.3291 8.29688V25.2591H94.3377L94.0194 23.1905H93.924C93.1284 24.7499 91.8872 25.5455 90.2642 25.5455C89.1504 25.5455 88.3229 25.1636 87.7819 24.4316C87.2409 23.6997 86.9863 22.554 86.9863 20.9628V8.29688H90.8052V20.7401C90.8052 21.5038 90.9007 22.0448 91.0598 22.3631C91.2189 22.6813 91.5053 22.8404 91.8872 22.8404C92.2055 22.8404 92.5237 22.745 92.8419 22.5222C93.1602 22.3312 93.3829 22.0767 93.5102 21.7584V8.29688H97.3291Z" fill="#282828" style="fill:#282828;fill:color(display-p3 0.1569 0.1569 0.1569);fill-opacity:1;"/>
<path d="M88.1315 5.11427H84.3444V25.227H80.621V5.11427H76.834V2.02734H88.1315V5.11427Z" fill="#282828" style="fill:#282828;fill:color(display-p3 0.1569 0.1569 0.1569);fill-opacity:1;"/>
<path d="M109.963 11.0016C109.74 9.91956 109.358 9.15579 108.849 8.67843C108.34 8.20107 107.608 7.94648 106.717 7.94648C106.017 7.94648 105.348 8.13742 104.744 8.55113C104.139 8.93302 103.662 9.47403 103.344 10.1105H103.312V1.16797H99.6201V25.2269H102.771L103.153 23.6357H103.248C103.534 24.2085 103.98 24.6541 104.585 25.0041C105.189 25.3224 105.826 25.5133 106.558 25.5133C107.863 25.5133 108.785 24.9087 109.39 23.7312C109.995 22.5537 110.313 20.6761 110.313 18.162V15.4888C110.281 13.5475 110.186 12.0518 109.963 11.0016ZM106.462 17.9074C106.462 19.1485 106.399 20.1032 106.303 20.8034C106.208 21.5035 106.017 22.0127 105.794 22.2991C105.539 22.5855 105.221 22.7446 104.839 22.7446C104.521 22.7446 104.235 22.681 103.98 22.5219C103.725 22.3627 103.503 22.14 103.344 21.8536V12.2427C103.471 11.7972 103.694 11.4153 104.012 11.097C104.33 10.8106 104.68 10.6515 105.03 10.6515C105.412 10.6515 105.73 10.8106 105.921 11.097C106.144 11.4153 106.271 11.9245 106.367 12.6246C106.462 13.3566 106.494 14.3749 106.494 15.6797V17.9074H106.462Z" fill="#282828" style="fill:#282828;fill:color(display-p3 0.1569 0.1569 0.1569);fill-opacity:1;"/>
</svg>
