<svg width="145" height="33" viewBox="0 0 145 33" fill="none" xmlns="http://www.w3.org/2000/svg">
<path d="M5.96277 16.2677C5.96277 16.6756 6.64469 16.9476 6.98565 16.8116L8.75865 16.1318C9.236 15.9278 9.30419 15.5879 9.30419 15.112V12.5286C11.9637 11.8487 13.8731 9.4013 13.8731 6.54596C13.8731 3.14674 11.0772 0.359375 7.66758 0.359375C5.82639 0.359375 4.18977 1.17519 3.0987 2.39891C2.07581 3.48666 1.53027 4.98231 1.53027 6.54596C1.53027 6.68192 1.53027 6.74991 1.53027 6.88588C1.53027 7.2258 1.59847 7.49774 1.66666 7.76967C1.66666 7.76967 1.66666 7.83766 1.66666 7.90564C2.144 10.1491 3.71243 11.9847 5.96277 12.5966M7.73577 9.74122C5.89458 9.74122 4.46254 8.17758 4.59893 6.27402C4.73531 4.98232 5.69 3.82658 6.98565 3.55464C9.03142 3.07875 10.8726 4.64239 10.8726 6.61394C10.8726 8.31355 9.44058 9.74122 7.73577 9.74122Z" fill="#FF4D00" style="fill:#FF4D00;fill:color(display-p3 1.0000 0.3020 0.0000);fill-opacity:1;"/>
<path d="M9.30361 18.035V20.3464C9.30361 21.0943 9.09904 21.2982 8.41711 21.5702L3.84823 23.2698C3.2345 23.5417 2.68896 23.5417 2.27981 23.3378L0.711387 22.6579C0.0976563 22.454 0.0976562 22.0461 0.0976562 21.3662V20.8903C0.0976562 20.2105 0.575002 20.0065 1.18873 19.8026L8.21254 17.2192C8.89446 16.9472 9.30361 17.2192 9.30361 18.035Z" fill="#FF4D00" style="fill:#FF4D00;fill:color(display-p3 1.0000 0.3020 0.0000);fill-opacity:1;"/>
<path d="M9.30361 23.1358V26.0592C9.30361 26.3311 9.23542 26.671 8.75807 26.807L3.37088 28.7785C3.2345 28.8465 2.89354 28.9825 2.348 28.7785L0.50681 28.0307C0.234041 27.8947 0.0976562 27.6908 0.0976562 27.4189V26.0592C0.0976562 25.7872 0.302233 25.5153 0.575002 25.3793L8.41711 22.456C8.82627 22.32 9.30361 22.6599 9.30361 23.1358Z" fill="#FF4D00" style="fill:#FF4D00;fill:color(display-p3 1.0000 0.3020 0.0000);fill-opacity:1;"/>
<path d="M9.37252 28.3695L9.30433 31.0889C9.30433 31.5648 9.03156 31.7008 8.55422 31.4968L5.1446 30.0011C4.59906 29.7292 4.53087 29.0494 5.41737 28.9134L8.55422 27.7577C9.03156 27.6217 9.37252 27.8936 9.37252 28.3695Z" fill="#FF4D00" style="fill:#FF4D00;fill:color(display-p3 1.0000 0.3020 0.0000);fill-opacity:1;"/>
<path d="M18.2384 15.1793V13.3438H30.7858V14.7714L20.8979 26.3288H30.7858V28.1643H17.8975V26.7367L27.7171 15.1793H18.2384Z" fill="#231F20" style="fill:#231F20;fill:color(display-p3 0.1373 0.1216 0.1255);fill-opacity:1;"/>
<path d="M30.9907 28.3691H17.625V26.6695L27.2401 15.4521H17.966V13.1406H30.9225V14.8402L30.8543 14.9082L21.3074 26.0577H30.9225V28.3691H30.9907ZM18.1023 27.8932H30.5133V26.4656H20.3527L30.5133 14.6363V13.5485H18.4433V14.9762H28.1948L18.1023 26.8055V27.8932Z" fill="#231F20" style="fill:#231F20;fill:color(display-p3 0.1373 0.1216 0.1255);fill-opacity:1;"/>
<path d="M47.3561 23.7478C46.947 24.6996 46.4015 25.5154 45.7195 26.1952C45.0376 26.8751 44.2193 27.4869 43.2646 27.8948C42.3099 28.3027 41.287 28.5067 40.196 28.5067C39.1049 28.5067 38.082 28.3027 37.1273 27.8948C36.1726 27.4869 35.3543 26.943 34.6724 26.2632C33.9905 25.5833 33.4449 24.7675 33.0358 23.8158C32.6266 22.864 32.4902 21.9122 32.4902 20.8244C32.4902 19.8047 32.6948 18.7849 33.0358 17.8331C33.4449 16.8813 33.9223 16.0655 34.6724 15.3857C35.3543 14.7058 36.1726 14.094 37.1273 13.6861C38.082 13.2782 39.1049 13.0742 40.2642 13.0742C41.3552 13.0742 42.3781 13.2782 43.3328 13.6861C44.2875 14.094 45.1058 14.6379 45.7877 15.3177C46.4696 15.9975 47.0152 16.8134 47.4243 17.7651C47.8335 18.7169 47.9699 19.6687 47.9699 20.7565C47.9699 21.7762 47.7653 22.796 47.3561 23.7478ZM45.3104 18.513C45.0376 17.8331 44.6285 17.2213 44.1511 16.6774C43.6738 16.1335 43.06 15.7256 42.3781 15.4537C41.6962 15.1817 41.0143 14.9778 40.196 14.9778C39.3777 14.9778 38.6275 15.1138 38.0138 15.4537C37.3319 15.7256 36.7863 16.1335 36.309 16.6774C35.8317 17.2213 35.4907 17.8331 35.2179 18.513C34.9452 19.1928 34.8088 19.9406 34.8088 20.7565C34.8088 21.5723 34.9452 22.3201 35.2179 22.9999C35.4907 23.6798 35.8998 24.2916 36.3772 24.8355C36.8545 25.3794 37.4683 25.7873 38.082 26.0592C38.7639 26.3312 39.4458 26.5351 40.2642 26.5351C41.0825 26.5351 41.8326 26.3992 42.4463 26.0592C43.1282 25.7873 43.6738 25.3794 44.1511 24.8355C44.6285 24.2916 44.9694 23.7478 45.2422 22.9999C45.515 22.3201 45.6513 21.5723 45.6513 20.7565C45.7195 19.9406 45.5831 19.1928 45.3104 18.513Z" fill="#231F20" style="fill:#231F20;fill:color(display-p3 0.1373 0.1216 0.1255);fill-opacity:1;"/>
<path d="M40.1964 28.7099C39.0372 28.7099 38.0143 28.5059 37.0596 28.098C36.1049 27.6901 35.2866 27.0783 34.5365 26.3984C33.8546 25.6506 33.2408 24.8348 32.8999 23.883C32.4907 22.9312 32.2861 21.9114 32.2861 20.8237C32.2861 19.7359 32.4907 18.7162 32.8999 17.7644C33.309 16.8126 33.8546 15.9288 34.5365 15.249C35.2184 14.5011 36.1049 13.9573 37.0596 13.5494C38.0143 13.1415 39.1054 12.9375 40.2646 12.9375C41.4239 12.9375 42.4468 13.1415 43.4697 13.5494C44.4244 13.9573 45.3109 14.5691 45.9928 15.249C46.6747 15.9968 47.2884 16.8126 47.6294 17.7644C48.0385 18.7162 48.2431 19.7359 48.2431 20.8237C48.2431 21.9114 48.0385 22.9312 47.6294 23.883C47.2202 24.8348 46.6747 25.7186 45.9928 26.3984C45.3109 27.1462 44.4244 27.6901 43.4697 28.098C42.3786 28.5059 41.2875 28.7099 40.1964 28.7099ZM40.2646 13.2774C39.1736 13.2774 38.1507 13.4814 37.2642 13.8893C36.3777 14.2972 35.5594 14.8411 34.8774 15.5209C34.1955 16.2008 33.7182 17.0166 33.309 17.9004C32.9681 18.7842 32.7635 19.8039 32.7635 20.8237C32.7635 21.8435 32.9681 22.7952 33.309 23.747C33.65 24.6308 34.1955 25.4466 34.8774 26.1265C35.5594 26.8063 36.3095 27.3502 37.2642 27.7581C38.1507 28.166 39.1736 28.37 40.2646 28.37C41.3557 28.37 42.3786 28.166 43.2651 27.7581C44.2198 27.3502 44.9699 26.8063 45.6518 26.1265C46.3337 25.4466 46.8793 24.6308 47.2202 23.747C47.6294 22.8632 47.7658 21.8435 47.7658 20.8237C47.7658 19.8039 47.5612 18.8521 47.2202 17.9004C46.8793 17.0166 46.3337 16.2008 45.6518 15.5209C44.9699 14.8411 44.1516 14.2972 43.2651 13.8893C42.3104 13.4134 41.2875 13.2774 40.2646 13.2774ZM40.2646 26.6703C39.4463 26.6703 38.6962 26.5344 38.0143 26.1945C37.3324 25.8545 36.7186 25.4466 36.2413 24.9028C35.7639 24.3589 35.3548 23.747 35.0138 22.9992C34.7411 22.2514 34.6047 21.5035 34.6047 20.6877C34.6047 19.8719 34.7411 19.0561 35.0138 18.3763C35.2866 17.6284 35.6957 17.0166 36.1731 16.4727C36.6504 15.9288 37.2642 15.5209 37.9461 15.181C38.628 14.8411 39.4463 14.7051 40.2646 14.7051C41.0829 14.7051 41.833 14.8411 42.515 15.181C43.1969 15.5209 43.8106 15.9288 44.3562 16.4727C44.9017 17.0166 45.3109 17.6284 45.5836 18.3763C45.8564 19.1241 45.9928 19.8719 45.9928 20.6877C45.9928 21.5035 45.8564 22.3193 45.5836 22.9992C45.3109 23.747 44.9017 24.3589 44.4244 24.9028C43.947 25.4466 43.3333 25.8545 42.6514 26.1945C41.8331 26.5344 41.0829 26.6703 40.2646 26.6703ZM40.1964 15.181C39.4463 15.181 38.6962 15.317 38.0825 15.5889C37.4687 15.8608 36.9232 16.2687 36.4459 16.7446C35.9685 17.2205 35.6276 17.8324 35.3548 18.5122C35.082 19.1921 34.9456 19.8719 34.9456 20.6877C34.9456 21.4355 35.082 22.1834 35.3548 22.8632C35.6276 23.5431 35.9685 24.1549 36.4459 24.6308C36.9232 25.1067 37.4687 25.5146 38.0825 25.7866C38.6962 26.0585 39.4463 26.1945 40.1964 26.1945C40.9466 26.1945 41.6967 26.0585 42.3104 25.7866C42.9241 25.5146 43.5379 25.1067 43.947 24.6308C44.4244 24.1549 44.7653 23.5431 45.0381 22.8632C45.3109 22.1834 45.4472 21.4355 45.4472 20.6877C45.4472 19.9399 45.3109 19.1921 45.0381 18.5122C44.7653 17.8324 44.4244 17.2205 43.947 16.7446C43.4697 16.2687 42.9241 15.8608 42.2422 15.5209C41.6285 15.317 40.9466 15.181 40.1964 15.181Z" fill="#231F20" style="fill:#231F20;fill:color(display-p3 0.1373 0.1216 0.1255);fill-opacity:1;"/>
<path d="M53.2886 28.1628H51.1064V13.3422H53.2886V15.9257C53.7659 15.1098 54.4479 14.43 55.2662 13.8861C56.0845 13.3422 57.1074 13.0703 58.403 13.0703C59.2895 13.0703 60.1078 13.2063 60.7898 13.4782C61.4717 13.7502 62.0854 14.1581 62.5627 14.7019C63.0401 15.2458 63.4492 15.8577 63.6538 16.6055C63.9266 17.3533 64.063 18.1012 64.063 18.985V28.1628H61.8808V19.4608C61.8808 18.1012 61.5399 17.0134 60.7898 16.1976C60.1078 15.3818 59.0849 14.9739 57.7211 14.9739C57.1074 14.9739 56.4936 15.1098 55.9481 15.3138C55.4026 15.5178 54.9252 15.8577 54.5161 16.2656C54.1069 16.6735 53.8341 17.1494 53.5614 17.7612C53.3568 18.3051 53.2204 18.985 53.2204 19.6648L53.2886 28.1628Z" fill="#231F20" style="fill:#231F20;fill:color(display-p3 0.1373 0.1216 0.1255);fill-opacity:1;"/>
<path d="M64.2677 28.3676H61.6082V19.5297C61.6082 18.238 61.2672 17.1502 60.5853 16.4024C59.9034 15.6545 58.9487 15.2466 57.7212 15.2466C57.1075 15.2466 56.562 15.3826 56.0164 15.5866C55.4709 15.7905 55.0617 16.0625 54.6526 16.4704C54.2434 16.8783 53.9707 17.3542 53.7661 17.898C53.5615 18.4419 53.4251 19.0538 53.4251 19.7336V28.4356H50.7656V13.1391H53.4251V15.2466C53.9025 14.7028 54.3798 14.1589 55.0617 13.751C55.88 13.1391 56.9711 12.8672 58.335 12.8672C59.2897 12.8672 60.108 13.0032 60.7899 13.3431C61.54 13.615 62.1537 14.0909 62.6311 14.6348C63.2448 15.0427 63.654 15.7225 63.9267 16.4704C64.1995 17.2182 64.3359 18.034 64.3359 18.9178L64.2677 28.3676ZM62.0855 27.8917H63.8585V18.9178C63.8585 18.102 63.7222 17.2862 63.5176 16.6063C63.2448 15.9265 62.9039 15.3146 62.4265 14.8387C61.9492 14.3628 61.4036 13.9549 60.7217 13.683C60.0398 13.4111 59.2897 13.2751 58.4032 13.2751C57.1757 13.2751 56.1528 13.547 55.4027 14.0909C54.6526 14.6348 53.9707 15.3146 53.4933 16.0625L53.0842 16.7423V13.615H51.3112V27.9597H53.0842V19.6656C53.0842 18.9858 53.2205 18.3059 53.4251 17.6941C53.6297 17.0822 53.9707 16.6063 54.3798 16.1304C54.789 15.7225 55.3345 15.3826 55.88 15.1107C56.4256 14.9067 57.0393 14.7708 57.7212 14.7708C59.0851 14.7708 60.1762 15.1787 60.9263 16.0625C61.6764 16.8783 62.0174 18.034 62.0174 19.4617V27.8917H62.0855Z" fill="#231F20" style="fill:#231F20;fill:color(display-p3 0.1373 0.1216 0.1255);fill-opacity:1;"/>
<path d="M70.8816 15.3841C70.1315 15.5881 69.4495 15.86 68.7676 16.1999L68.0857 14.3643C68.904 13.9564 69.7223 13.6845 70.6088 13.4805C71.4271 13.2766 72.45 13.1406 73.5411 13.1406C75.5868 13.1406 77.1553 13.6165 78.2463 14.6363C79.3374 15.656 79.883 17.1517 79.883 19.0553V28.0972H77.769V25.9217C77.2235 26.6015 76.5415 27.2134 75.655 27.6893C74.7685 28.2332 73.6775 28.4371 72.3818 28.4371C71.6999 28.4371 71.018 28.3691 70.336 28.1652C69.6541 27.9612 69.1086 27.6893 68.563 27.2814C68.0175 26.8735 67.6083 26.3976 67.2674 25.8537C66.9264 25.3098 66.79 24.63 66.79 23.8142C66.79 22.9984 66.9264 22.3185 67.2674 21.7067C67.5402 21.0948 68.0175 20.6189 68.563 20.211C69.1086 19.8031 69.7905 19.5312 70.5406 19.3272C71.2907 19.1233 72.1772 18.9873 73.1319 18.9873C74.0866 18.9873 74.9049 19.0553 75.655 19.1912C76.337 19.3272 77.0189 19.4632 77.7008 19.6671V19.1233C77.7008 17.7636 77.2917 16.8118 76.5415 16.1319C75.7914 15.4521 74.7003 15.1122 73.2683 15.1122C72.3818 15.1122 71.6317 15.1802 70.8816 15.3841ZM70.1997 21.4347C69.4495 21.9786 69.1086 22.7264 69.1086 23.6782C69.1086 24.1541 69.1768 24.562 69.3813 24.9699C69.5859 25.3098 69.8587 25.6498 70.1997 25.9217C70.5406 26.1936 70.9498 26.3976 71.3589 26.5336C71.8363 26.6695 72.2454 26.7375 72.791 26.7375C73.4729 26.7375 74.1548 26.6695 74.7003 26.4656C75.3141 26.2616 75.8596 25.9897 76.2688 25.6498C76.7461 25.3098 77.0871 24.9019 77.3598 24.3581C77.6326 23.8822 77.769 23.3383 77.769 22.7264V21.2988C77.2235 21.1628 76.6097 21.0268 75.8596 20.8908C75.1777 20.7549 74.3594 20.6869 73.4047 20.6869C71.9727 20.6189 70.9498 20.8908 70.1997 21.4347Z" fill="#231F20" style="fill:#231F20;fill:color(display-p3 0.1373 0.1216 0.1255);fill-opacity:1;"/>
<path d="M72.3141 28.7099C71.6322 28.7099 70.882 28.6419 70.2001 28.4379C69.5182 28.234 68.9045 27.9621 68.3589 27.5541C67.8134 27.1462 67.3361 26.6024 67.0633 26.0585C66.7223 25.4466 66.5859 24.7668 66.5859 23.951C66.5859 23.1352 66.7223 22.3873 67.0633 21.7755C67.4042 21.1636 67.8134 20.6197 68.4271 20.2118C69.0409 19.8039 69.7228 19.464 70.5411 19.2601C71.3594 19.0561 72.2459 18.9201 73.2006 18.9201C74.1553 18.9201 75.0418 18.9881 75.7237 19.1241C76.3374 19.1921 76.9512 19.328 77.5649 19.532V19.1241C77.5649 17.8324 77.2239 16.8806 76.4738 16.2687C75.7237 15.6569 74.7008 15.317 73.337 15.317C72.4505 15.317 71.7004 15.3849 71.0184 15.5889C70.3365 15.7928 69.5864 16.0648 68.9727 16.3367L68.7681 16.4727L67.9498 14.2292L68.1544 14.1612C68.9727 13.7533 69.8592 13.4814 70.6775 13.2774C71.564 13.0735 72.5187 12.9375 73.6097 12.9375C75.6555 12.9375 77.2921 13.4814 78.4514 14.5011C79.6107 15.5209 80.1562 17.0845 80.1562 19.1241V28.37H77.5649V26.5344C77.0875 27.0103 76.4738 27.4862 75.7919 27.8941C74.8372 28.4379 73.6779 28.7099 72.3141 28.7099ZM73.1324 19.2601C72.2459 19.2601 71.3594 19.396 70.6093 19.6C69.8592 19.8039 69.1772 20.0759 68.6999 20.4838C68.1544 20.8917 67.7452 21.3676 67.4724 21.9114C67.1997 22.4553 67.0633 23.1352 67.0633 23.883C67.0633 24.6308 67.1997 25.2427 67.5406 25.7866C67.8134 26.3304 68.2225 26.8063 68.7681 27.1462C69.2454 27.4862 69.8592 27.8261 70.4729 27.9621C71.0866 28.166 71.7685 28.234 72.4505 28.234C73.7461 28.234 74.769 27.9621 75.6555 27.4862C76.4738 27.0103 77.1557 26.3984 77.7013 25.7866L78.1104 25.2427V27.8941H79.8152V19.1241C79.8152 17.2205 79.2697 15.7928 78.2468 14.8411C77.2239 13.8893 75.6555 13.4134 73.7461 13.4134C72.655 13.4134 71.7004 13.5494 70.882 13.7533C70.1319 13.9573 69.3818 14.2292 68.6317 14.5691L69.109 15.9288C69.7228 15.6569 70.4047 15.3849 71.0184 15.249C71.7686 15.045 72.5869 14.909 73.4734 14.909C74.9054 14.909 76.0647 15.249 76.883 15.9968C77.7013 16.7446 78.1104 17.7644 78.1104 19.1921V20.0079L77.8377 19.9399C77.1557 19.7359 76.4738 19.6 75.7919 19.464C74.9054 19.26 74.0871 19.2601 73.1324 19.2601ZM72.7914 26.9423C72.2459 26.9423 71.7686 26.8743 71.2912 26.7383C70.8139 26.6024 70.4047 26.3984 70.0637 26.1265C69.7228 25.8545 69.3818 25.5146 69.1772 25.1067C68.9727 24.6988 68.8363 24.2229 68.8363 23.747C68.8363 22.7273 69.2454 21.9114 70.0637 21.2996C70.8139 20.6877 71.9731 20.4158 73.4052 20.4158C74.3599 20.4158 75.1782 20.4838 75.8601 20.6197C76.6102 20.7557 77.2239 20.8917 77.7695 21.0276L77.9059 21.0956V22.7273C77.9059 23.3391 77.7695 23.951 77.4967 24.4269C77.2239 24.9707 76.883 25.3786 76.4056 25.7866C75.9283 26.1265 75.3827 26.4664 74.769 26.6703C74.1553 26.8063 73.4734 26.9423 72.7914 26.9423ZM73.4052 20.8917C72.0413 20.8917 71.0184 21.1636 70.3365 21.7075C69.6546 22.2514 69.3136 22.9312 69.3136 23.815C69.3136 24.2229 69.3818 24.6308 69.5864 24.9707C69.791 25.3107 69.9956 25.5826 70.3365 25.8545C70.6775 26.1265 71.0184 26.2624 71.4276 26.3984C71.8367 26.5344 72.3141 26.6024 72.7914 26.6024C73.4734 26.6024 74.0871 26.5344 74.6326 26.3304C75.1782 26.1265 75.7237 25.8545 76.1329 25.5146C76.542 25.1747 76.883 24.7668 77.1557 24.3589C77.4285 23.883 77.4967 23.4071 77.4967 22.8632V21.5715C77.0194 21.4355 76.4056 21.2996 75.7919 21.1636C75.11 20.9597 74.2917 20.8917 73.4052 20.8917Z" fill="#231F20" style="fill:#231F20;fill:color(display-p3 0.1373 0.1216 0.1255);fill-opacity:1;"/>
<path d="M98.0907 24.0174C97.6816 24.9692 97.136 25.785 96.5223 26.4648C95.8404 27.1447 95.0903 27.6206 94.2719 27.9605C93.4536 28.3004 92.5671 28.5043 91.6125 28.5043C90.9305 28.5043 90.3168 28.4364 89.7031 28.2324C89.1575 28.0285 88.612 27.8245 88.1346 27.5526C87.6573 27.2806 87.2481 26.9407 86.9072 26.5328C86.5662 26.1249 86.2253 25.717 85.8843 25.3091V32.7194H83.7021V13.3438H85.8843V16.3351C86.1571 15.9272 86.498 15.4513 86.9072 15.0434C87.2481 14.6355 87.7255 14.2956 88.1346 14.0237C88.612 13.7517 89.0893 13.4798 89.7031 13.2758C90.2486 13.0719 90.8623 13.0039 91.6125 13.0039C92.499 13.0039 93.3854 13.2079 94.2038 13.5478C95.0221 13.8877 95.8404 14.3636 96.4541 15.0434C97.136 15.7233 97.6816 16.5391 98.0907 17.4909C98.4999 18.4427 98.7044 19.5304 98.7044 20.7541C98.7044 21.9778 98.4999 23.0656 98.0907 24.0174ZM95.9768 18.3747C95.704 17.6948 95.2948 17.083 94.8175 16.5391C94.3401 16.0632 93.7946 15.6553 93.1809 15.3834C92.5671 15.1794 91.8852 15.0434 91.2033 15.0434C90.5214 15.0434 89.8395 15.1794 89.2257 15.4513C88.612 15.7233 87.9983 16.1312 87.5209 16.6071C87.0436 17.083 86.6344 17.6948 86.2935 18.3747C86.0207 19.0545 85.8161 19.8703 85.8161 20.6861C85.8161 21.5699 85.9525 22.3178 86.2935 23.0656C86.5662 23.7454 86.9754 24.3573 87.5209 24.9012C87.9983 25.3771 88.612 25.785 89.2257 26.0569C89.8395 26.3288 90.5214 26.4648 91.2033 26.4648C91.8852 26.4648 92.5671 26.3288 93.2491 26.0569C93.8628 25.785 94.4765 25.4451 94.8857 24.9692C95.363 24.4933 95.704 23.8814 95.9768 23.2016C96.2495 22.5217 96.3859 21.7059 96.3859 20.8221C96.3859 19.8703 96.2495 19.1225 95.9768 18.3747Z" fill="#231F20" style="fill:#231F20;fill:color(display-p3 0.1373 0.1216 0.1255);fill-opacity:1;"/>
<path d="M86.0892 32.9242H83.4297V13.1407H86.0892V15.6561C86.2938 15.3842 86.4983 15.1802 86.7029 14.9083C87.1121 14.5004 87.5212 14.1605 87.9986 13.8205C88.4759 13.5486 89.0215 13.2767 89.567 13.0727C90.1807 12.8688 90.7945 12.8008 91.5446 12.8008C92.4311 12.8008 93.3858 13.0047 94.2041 13.3447C95.0906 13.6846 95.8407 14.2285 96.5908 14.9083C97.2727 15.5881 97.8183 16.404 98.2274 17.4237C98.6366 18.3755 98.8411 19.5312 98.8411 20.755C98.8411 21.9787 98.6366 23.1344 98.2274 24.0862C97.8183 25.038 97.2727 25.9218 96.5908 26.6016C95.9089 27.2815 95.1588 27.8253 94.2723 28.1653C93.3858 28.5052 92.4993 28.7091 91.5446 28.7091C90.8626 28.7091 90.1807 28.6411 89.567 28.4372C88.9533 28.2332 88.4077 28.0293 87.9304 27.7573C87.453 27.4854 87.0439 27.1455 86.6347 26.7376C86.4302 26.5336 86.2256 26.2617 86.021 26.0577L86.0892 32.9242ZM83.907 32.5163H85.68V24.5621L86.0892 25.1739C86.362 25.5818 86.7029 25.9898 87.0439 26.3297C87.3848 26.6696 87.794 27.0095 88.2713 27.2815C88.6805 27.5534 89.226 27.7573 89.7716 27.9613C90.3171 28.0973 90.9308 28.2332 91.6128 28.2332C92.4993 28.2332 93.3176 28.0293 94.1359 27.6894C94.9542 27.3494 95.7043 26.8736 96.318 26.1937C96.9318 25.5818 97.4773 24.766 97.8865 23.8143C98.2956 22.8625 98.5002 21.8427 98.5002 20.619C98.5002 19.4633 98.2956 18.3755 97.8865 17.4237C97.4773 16.4719 96.9999 15.7241 96.318 15.0443C95.7043 14.4324 94.9542 13.8885 94.1359 13.6166C93.3176 13.2767 92.4993 13.1407 91.6128 13.1407C90.9308 13.1407 90.3171 13.2087 89.7716 13.4126C89.226 13.6166 88.7487 13.8205 88.2713 14.0925C87.8622 14.3644 87.453 14.7043 87.0439 15.1123C86.7029 15.5202 86.362 15.9281 86.021 16.336L85.6118 16.9478V13.4806H83.8388L83.907 32.5163ZM91.2036 26.6696C90.4535 26.6696 89.7716 26.5336 89.0896 26.2617C88.4077 25.9898 87.794 25.5818 87.3166 25.038C86.7711 24.4941 86.362 23.8822 86.0892 23.1344C85.8164 22.3866 85.6118 21.5708 85.6118 20.687C85.6118 19.8032 85.7482 18.9874 86.0892 18.2395C86.362 17.4917 86.8393 16.8798 87.3166 16.404C87.8622 15.8601 88.4759 15.5202 89.0896 15.1802C90.4535 14.5684 91.9537 14.6364 93.2494 15.1802C93.9313 15.4522 94.4768 15.8601 95.0224 16.404C95.4997 16.9478 95.9089 17.5597 96.1816 18.3075C96.4544 19.0553 96.5908 19.8712 96.5908 20.755C96.5908 21.6388 96.4544 22.5225 96.1816 23.2704C95.9089 24.0182 95.4997 24.6301 95.0224 25.106C94.545 25.5818 93.9313 25.9898 93.2494 26.2617C92.6356 26.5336 91.8855 26.6696 91.2036 26.6696ZM91.2036 15.2482C90.5217 15.2482 89.908 15.3842 89.2942 15.6561C88.6805 15.9281 88.135 16.268 87.6576 16.7439C87.1803 17.2198 86.7711 17.7636 86.4983 18.4435C86.2256 19.1233 86.0892 19.8712 86.0892 20.687C86.0892 21.5028 86.2256 22.2506 86.4983 22.9305C86.7711 23.6103 87.1803 24.2222 87.6576 24.6981C88.135 25.1739 88.6805 25.5139 89.2942 25.7858C90.5217 26.3297 91.9537 26.2617 93.113 25.7858C93.7267 25.5139 94.2723 25.1739 94.6814 24.6981C95.1588 24.2222 95.4997 23.6783 95.7725 22.9984C96.0453 22.3186 96.1816 21.5028 96.1816 20.687C96.1816 19.8712 96.0453 19.0553 95.7725 18.3755C95.4997 17.6957 95.1588 17.1518 94.6814 16.6079C94.2041 16.132 93.6585 15.7921 93.113 15.5202C92.4993 15.3842 91.8855 15.2482 91.2036 15.2482Z" fill="#231F20" style="fill:#231F20;fill:color(display-p3 0.1373 0.1216 0.1255);fill-opacity:1;"/>
<path d="M104.092 28.1628H101.91V13.3422H104.092V17.2174C104.365 16.6055 104.706 16.0616 105.115 15.5178C105.524 14.9739 106.002 14.566 106.479 14.1581C107.025 13.8181 107.57 13.4782 108.184 13.3422C108.798 13.1383 109.48 13.0703 110.161 13.0703V15.4498H109.957C109.139 15.4498 108.388 15.5857 107.706 15.8577C106.956 16.1296 106.343 16.6055 105.797 17.1494C105.252 17.6933 104.842 18.4411 104.501 19.2569C104.229 20.0727 104.024 21.0925 104.024 22.1802V28.1628H104.092Z" fill="#231F20" style="fill:#231F20;fill:color(display-p3 0.1373 0.1216 0.1255);fill-opacity:1;"/>
<path d="M104.297 28.3676H101.638V13.1391H104.297V16.2664C104.502 15.9265 104.706 15.6545 104.911 15.3826C105.32 14.8387 105.797 14.3628 106.343 14.0229C106.888 13.615 107.502 13.3431 108.116 13.1391C108.73 12.9352 109.412 12.8672 110.162 12.8672H110.366V15.6545H109.957C109.207 15.6545 108.457 15.7905 107.775 16.0625C107.093 16.3344 106.479 16.7423 106.002 17.2862C105.456 17.83 105.047 18.5099 104.775 19.3257C104.502 20.1415 104.297 21.0933 104.297 22.1811V28.3676ZM102.115 27.8917H103.888V22.249C103.888 21.0933 104.024 20.1415 104.365 19.2577C104.706 18.3739 105.115 17.6261 105.661 17.0822C106.207 16.4704 106.889 16.0625 107.639 15.7225C108.389 15.4506 109.139 15.3146 109.957 15.2466V13.3431C109.343 13.3431 108.798 13.4111 108.252 13.615C107.639 13.819 107.093 14.0909 106.616 14.4308C106.138 14.7708 105.661 15.2466 105.252 15.7225C104.843 16.1984 104.502 16.7423 104.297 17.3542L103.888 18.3059V13.615H102.115V27.8917Z" fill="#231F20" style="fill:#231F20;fill:color(display-p3 0.1373 0.1216 0.1255);fill-opacity:1;"/>
<path d="M125.981 23.7478C125.572 24.6996 125.026 25.5154 124.345 26.1952C123.663 26.8751 122.844 27.4869 121.89 27.8948C120.935 28.3027 119.912 28.5067 118.821 28.5067C117.73 28.5067 116.707 28.3027 115.752 27.8948C114.798 27.4869 113.979 26.943 113.297 26.2632C112.615 25.5833 112.07 24.7675 111.661 23.8158C111.252 22.864 111.115 21.9122 111.115 20.8244C111.115 19.8047 111.32 18.7849 111.661 17.8331C112.07 16.8813 112.547 16.0655 113.297 15.3857C113.979 14.7058 114.798 14.094 115.752 13.6861C116.707 13.2782 117.73 13.0742 118.889 13.0742C119.98 13.0742 121.003 13.2782 121.958 13.6861C122.913 14.094 123.731 14.6379 124.413 15.3177C125.095 15.9975 125.64 16.8134 126.049 17.7651C126.459 18.7169 126.595 19.6687 126.595 20.7565C126.595 21.7762 126.39 22.796 125.981 23.7478ZM123.935 18.513C123.663 17.8331 123.253 17.2213 122.776 16.6774C122.299 16.1335 121.685 15.7256 121.003 15.4537C120.321 15.1817 119.639 14.9778 118.821 14.9778C118.003 14.9778 117.253 15.1138 116.639 15.4537C115.957 15.7256 115.411 16.1335 114.934 16.6774C114.457 17.2213 114.116 17.8331 113.843 18.513C113.57 19.1928 113.434 19.9406 113.434 20.7565C113.434 21.5723 113.57 22.3201 113.843 22.9999C114.116 23.6798 114.525 24.2916 115.002 24.8355C115.48 25.3794 116.093 25.7873 116.707 26.0592C117.389 26.3312 118.071 26.5351 118.889 26.5351C119.707 26.5351 120.458 26.3992 121.071 26.0592C121.753 25.7873 122.299 25.3794 122.776 24.8355C123.253 24.2916 123.594 23.7478 123.867 22.9999C124.14 22.3201 124.276 21.5723 124.276 20.7565C124.345 19.9406 124.208 19.1928 123.935 18.513Z" fill="#231F20" style="fill:#231F20;fill:color(display-p3 0.1373 0.1216 0.1255);fill-opacity:1;"/>
<path d="M118.821 28.7099C117.662 28.7099 116.639 28.5059 115.685 28.098C114.73 27.6901 113.912 27.0783 113.161 26.3984C112.48 25.6506 111.866 24.8348 111.525 23.883C111.116 22.9312 110.911 21.9114 110.911 20.8237C110.911 19.7359 111.116 18.7162 111.525 17.7644C111.934 16.8126 112.48 15.9288 113.161 15.249C113.843 14.5011 114.73 13.9573 115.685 13.5494C116.639 13.1415 117.73 12.9375 118.89 12.9375C120.049 12.9375 121.072 13.1415 122.095 13.5494C123.049 13.9573 123.936 14.5691 124.618 15.249C125.3 15.9968 125.913 16.8126 126.254 17.7644C126.664 18.7162 126.868 19.7359 126.868 20.8237C126.868 21.9114 126.664 22.9312 126.254 23.883C125.845 24.8348 125.3 25.7186 124.618 26.3984C123.936 27.1462 123.049 27.6901 122.095 28.098C121.004 28.5059 119.913 28.7099 118.821 28.7099ZM118.89 13.2774C117.799 13.2774 116.776 13.4814 115.889 13.8893C115.003 14.2972 114.184 14.8411 113.502 15.5209C112.821 16.2008 112.343 17.0166 111.934 17.9004C111.593 18.7842 111.388 19.8039 111.388 20.8237C111.388 21.8435 111.593 22.7952 111.934 23.747C112.275 24.6308 112.821 25.4466 113.502 26.1265C114.184 26.8063 114.934 27.3502 115.889 27.7581C116.776 28.166 117.799 28.37 118.89 28.37C119.981 28.37 121.004 28.166 121.89 27.7581C122.845 27.3502 123.595 26.8063 124.277 26.1265C124.959 25.4466 125.504 24.6308 125.845 23.747C126.254 22.8632 126.391 21.8435 126.391 20.8237C126.391 19.8039 126.186 18.8521 125.845 17.9004C125.504 17.0166 124.959 16.2008 124.277 15.5209C123.595 14.8411 122.777 14.2972 121.89 13.8893C120.935 13.4134 119.913 13.2774 118.89 13.2774ZM118.89 26.6703C118.071 26.6703 117.321 26.5344 116.639 26.1945C115.957 25.8545 115.344 25.4466 114.866 24.9028C114.389 24.3589 113.98 23.747 113.639 22.9992C113.366 22.2514 113.23 21.5035 113.23 20.6877C113.23 19.8719 113.366 19.0561 113.639 18.3763C113.912 17.6284 114.321 17.0166 114.798 16.4727C115.275 15.9288 115.889 15.5209 116.571 15.181C117.253 14.8411 118.071 14.7051 118.89 14.7051C119.708 14.7051 120.458 14.8411 121.14 15.181C121.822 15.5209 122.436 15.9288 122.981 16.4727C123.527 17.0166 123.936 17.6284 124.209 18.3763C124.481 19.1241 124.618 19.8719 124.618 20.6877C124.618 21.5035 124.481 22.3193 124.209 22.9992C123.936 23.747 123.527 24.3589 123.049 24.9028C122.572 25.4466 121.958 25.8545 121.276 26.1945C120.458 26.5344 119.708 26.6703 118.89 26.6703ZM118.821 15.181C118.071 15.181 117.321 15.317 116.707 15.5889C116.094 15.8608 115.548 16.2687 115.071 16.7446C114.594 17.2205 114.253 17.8324 113.98 18.5122C113.707 19.1921 113.571 19.8719 113.571 20.6877C113.571 21.4355 113.707 22.1834 113.98 22.8632C114.253 23.5431 114.594 24.1549 115.071 24.6308C115.548 25.1067 116.094 25.5146 116.707 25.7866C117.321 26.0585 118.071 26.1945 118.821 26.1945C119.572 26.1945 120.322 26.0585 120.935 25.7866C121.549 25.5146 122.163 25.1067 122.572 24.6308C123.049 24.1549 123.39 23.5431 123.663 22.8632C123.936 22.1834 124.072 21.4355 124.072 20.6877C124.072 19.9399 123.936 19.1921 123.663 18.5122C123.39 17.8324 123.049 17.2205 122.572 16.7446C122.095 16.2687 121.549 15.8608 120.867 15.5209C120.253 15.317 119.572 15.181 118.821 15.181Z" fill="#231F20" style="fill:#231F20;fill:color(display-p3 0.1373 0.1216 0.1255);fill-opacity:1;"/>
<path d="M144.121 24.0174C143.712 24.9692 143.166 25.785 142.553 26.4648C141.871 27.1447 141.121 27.6206 140.302 27.9605C139.484 28.3004 138.597 28.5043 137.643 28.5043C136.961 28.5043 136.347 28.4364 135.733 28.2324C135.188 28.0285 134.642 27.8245 134.165 27.5526C133.688 27.2806 133.278 26.9407 132.937 26.5328C132.596 26.1249 132.256 25.717 131.915 25.3091V32.7194H129.732V13.3438H131.915V16.3351C132.187 15.9272 132.528 15.4513 132.937 15.0434C133.278 14.6355 133.756 14.2956 134.165 14.0237C134.642 13.7517 135.12 13.4798 135.733 13.2758C136.279 13.0719 136.893 13.0039 137.643 13.0039C138.529 13.0039 139.416 13.2079 140.234 13.5478C141.052 13.8877 141.871 14.3636 142.484 15.0434C143.166 15.7233 143.712 16.5391 144.121 17.4909C144.53 18.4427 144.735 19.5304 144.735 20.7541C144.735 21.9778 144.53 23.0656 144.121 24.0174ZM142.007 18.3747C141.734 17.6948 141.325 17.083 140.848 16.5391C140.37 16.0632 139.825 15.6553 139.211 15.3834C138.597 15.1114 137.915 14.9755 137.234 14.9755C136.552 14.9755 135.87 15.1114 135.256 15.3834C134.642 15.6553 134.029 16.0632 133.551 16.5391C133.074 17.015 132.665 17.6268 132.324 18.3067C132.051 18.9865 131.846 19.8023 131.846 20.6182C131.846 21.502 131.983 22.2498 132.324 22.9976C132.596 23.6775 133.006 24.2893 133.551 24.8332C134.029 25.3091 134.642 25.717 135.256 25.9889C135.87 26.2609 136.552 26.3968 137.234 26.3968C137.915 26.3968 138.597 26.2609 139.279 25.9889C139.893 25.717 140.507 25.3771 140.916 24.9012C141.393 24.4253 141.734 23.8134 142.007 23.1336C142.28 22.4537 142.416 21.6379 142.416 20.7541C142.416 19.8703 142.28 19.1225 142.007 18.3747Z" fill="#231F20" style="fill:#231F20;fill:color(display-p3 0.1373 0.1216 0.1255);fill-opacity:1;"/>
<path d="M132.119 32.9242H129.46V13.1407H132.119V15.6561C132.324 15.3842 132.529 15.1802 132.733 14.9083C133.142 14.5004 133.551 14.1605 134.029 13.8205C134.506 13.5486 135.052 13.2767 135.597 13.0727C136.211 12.8688 136.825 12.8008 137.575 12.8008C138.461 12.8008 139.416 13.0047 140.234 13.3447C141.121 13.6846 141.871 14.2285 142.621 14.9083C143.303 15.5881 143.849 16.404 144.258 17.4237C144.667 18.3755 144.871 19.5312 144.871 20.755C144.871 21.9787 144.667 23.1344 144.258 24.0862C143.849 25.038 143.303 25.9218 142.621 26.6016C141.939 27.2815 141.189 27.8253 140.303 28.1653C139.416 28.5052 138.53 28.7091 137.575 28.7091C136.893 28.7091 136.211 28.6411 135.597 28.4372C134.984 28.2332 134.438 28.0293 133.961 27.7573C133.483 27.4854 133.074 27.1455 132.665 26.7376C132.46 26.5336 132.256 26.2617 132.051 26.0577L132.119 32.9242ZM129.937 32.5163H131.71V24.5621L132.119 25.1739C132.392 25.5818 132.733 25.9898 133.074 26.3297C133.415 26.6696 133.824 27.0095 134.302 27.2815C134.711 27.5534 135.256 27.7573 135.802 27.9613C136.347 28.0973 136.961 28.2332 137.643 28.2332C138.53 28.2332 139.348 28.0293 140.166 27.6894C140.984 27.3494 141.735 26.8736 142.348 26.1937C142.962 25.5818 143.508 24.766 143.917 23.8143C144.326 22.8625 144.53 21.8427 144.53 20.619C144.53 19.4633 144.326 18.3755 143.917 17.4237C143.508 16.4719 143.03 15.7241 142.348 15.0443C141.735 14.4324 140.984 13.8885 140.166 13.6166C139.348 13.2767 138.53 13.1407 137.643 13.1407C136.961 13.1407 136.347 13.2087 135.802 13.4126C135.256 13.6166 134.779 13.8205 134.302 14.0925C133.892 14.3644 133.483 14.7043 133.074 15.1123C132.733 15.5202 132.392 15.9281 132.051 16.336L131.642 16.9478V13.4806H129.869V32.5163H129.937ZM137.234 26.6696C136.484 26.6696 135.802 26.5336 135.12 26.2617C134.438 25.9898 133.824 25.5818 133.347 25.038C132.801 24.4941 132.392 23.8822 132.119 23.1344C131.847 22.3866 131.642 21.5708 131.642 20.687C131.642 19.8032 131.778 18.9874 132.119 18.2395C132.392 17.4917 132.87 16.8798 133.347 16.404C133.892 15.8601 134.506 15.5202 135.12 15.1802C136.484 14.5684 137.984 14.6364 139.28 15.1802C139.962 15.4522 140.507 15.8601 141.053 16.404C141.53 16.9478 141.939 17.5597 142.212 18.3075C142.485 19.0553 142.621 19.8712 142.621 20.755C142.621 21.6388 142.485 22.5225 142.212 23.2704C141.939 24.0182 141.53 24.6301 141.053 25.106C140.575 25.5818 139.962 25.9898 139.28 26.2617C138.666 26.5336 137.916 26.6696 137.234 26.6696ZM137.234 15.2482C136.552 15.2482 135.938 15.3842 135.324 15.6561C134.711 15.9281 134.165 16.268 133.688 16.7439C133.211 17.2198 132.801 17.7636 132.529 18.4435C132.256 19.1233 132.119 19.8712 132.119 20.687C132.119 21.5028 132.256 22.2506 132.529 22.9305C132.801 23.6103 133.211 24.2222 133.688 24.6981C134.165 25.1739 134.711 25.5139 135.324 25.7858C136.552 26.3297 137.984 26.2617 139.143 25.7858C139.757 25.5139 140.303 25.1739 140.712 24.6981C141.189 24.2222 141.53 23.6783 141.803 22.9984C142.076 22.3186 142.212 21.5028 142.212 20.687C142.212 19.8712 142.076 19.0553 141.803 18.3755C141.53 17.6957 141.189 17.1518 140.712 16.6079C140.234 16.132 139.689 15.7921 139.143 15.5202C138.53 15.3842 137.916 15.2482 137.234 15.2482Z" fill="#231F20" style="fill:#231F20;fill:color(display-p3 0.1373 0.1216 0.1255);fill-opacity:1;"/>
</svg>
