<svg width="32" height="34" viewBox="0 0 32 34" fill="none" xmlns="http://www.w3.org/2000/svg">
<path d="M6.65527 15.0633C6.65527 15.0633 6.66931 26.844 15.9994 34.0041V23.2336L6.65527 15.0586V15.0633Z" fill="#181A20" style="fill:#181A20;fill:color(display-p3 0.0941 0.1020 0.1255);fill-opacity:1;"/>
<path d="M25.3442 15.0625C25.3442 15.0625 25.3301 26.8432 16 34.0034C16 27.7318 16 24.4067 16 24.4067V23.2375L25.3442 15.0625Z" fill="#181A20" style="fill:#181A20;fill:color(display-p3 0.0941 0.1020 0.1255);fill-opacity:1;"/>
<path d="M15.9996 30.1222C24.3165 30.1222 31.0587 23.38 31.0587 15.0631C31.0587 6.74612 24.3165 0.00390625 15.9996 0.00390625C7.68264 0.00390625 0.94043 6.74612 0.94043 15.0631C0.94043 23.38 7.68264 30.1222 15.9996 30.1222Z" fill="#181A20" style="fill:#181A20;fill:color(display-p3 0.0941 0.1020 0.1255);fill-opacity:1;"/>
<path d="M15.9998 28.9448C23.6658 28.9448 29.8804 22.7302 29.8804 15.0642C29.8804 7.39815 23.6658 1.18359 15.9998 1.18359C8.3337 1.18359 2.11914 7.39815 2.11914 15.0642C2.11914 22.7302 8.3337 28.9448 15.9998 28.9448Z" fill="#181A20" style="fill:#181A20;fill:color(display-p3 0.0941 0.1020 0.1255);fill-opacity:1;"/>
<path d="M15.9989 5.34766L6.75293 9.73913V11.2544H8.43188V19.7614H11.8038V14.7152H10.167V11.2544H15.2178V14.7152H13.5249V19.7614H15.9989H18.4775V14.7152H16.7846V11.2544H21.8308V14.7152H20.1986V19.7614H23.5705V11.2544H25.2495V9.73913L15.9989 5.34766Z" fill="white" style="fill:white;fill-opacity:1;"/>
<path d="M25.315 21.332H6.6875V23.1373H25.315V21.332Z" fill="white" style="fill:white;fill-opacity:1;"/>
</svg>
