<svg width="32" height="34" viewBox="0 0 32 34" fill="none" xmlns="http://www.w3.org/2000/svg">
<path d="M6.65527 15.0594C6.65527 15.0594 6.6693 26.8401 15.9994 34.0002V23.2297L6.65527 15.0547V15.0594Z" fill="#3112D5" style="fill:#3112D5;fill:color(display-p3 0.1922 0.0706 0.8353);fill-opacity:1;"/>
<path d="M25.3442 15.0586C25.3442 15.0586 25.3301 26.8393 16 33.9994C16 27.7279 16 24.4027 16 24.4027V23.2336L25.3442 15.0586Z" fill="#3112D5" style="fill:#3112D5;fill:color(display-p3 0.1922 0.0706 0.8353);fill-opacity:1;"/>
<path d="M15.9996 30.1183C24.3165 30.1183 31.0587 23.3761 31.0587 15.0591C31.0587 6.74221 24.3165 0 15.9996 0C7.68264 0 0.94043 6.74221 0.94043 15.0591C0.94043 23.3761 7.68264 30.1183 15.9996 30.1183Z" fill="#3112D5" style="fill:#3112D5;fill:color(display-p3 0.1922 0.0706 0.8353);fill-opacity:1;"/>
<path d="M15.9997 28.9409C23.6658 28.9409 29.8804 22.7263 29.8804 15.0603C29.8804 7.39425 23.6658 1.17969 15.9997 1.17969C8.3337 1.17969 2.11914 7.39425 2.11914 15.0603C2.11914 22.7263 8.3337 28.9409 15.9997 28.9409Z" fill="#3112D5" style="fill:#3112D5;fill:color(display-p3 0.1922 0.0706 0.8353);fill-opacity:1;"/>
<path d="M24.2961 11.785H20.4518C20.246 8.50192 19.0347 6.84167 17.9918 6.03259C16.7992 5.11127 15.1998 5.10659 14.0072 6.03259C12.9643 6.84167 11.753 8.50192 11.5472 11.785H7.70294L7.36621 23.2337H24.6281L24.2914 11.785H24.2961ZM14.9706 7.27193C15.5973 6.78555 16.4017 6.78555 17.0237 7.27193C17.7954 7.87055 18.698 9.14731 18.8804 11.785H13.1139C13.2963 9.14731 14.1943 7.87523 14.9706 7.27193ZM15.9995 20.8345C12.1879 20.8345 10.8036 17.3784 10.6025 15.5498L11.9775 15.3534C11.9962 15.5124 12.4732 19.2631 15.9995 19.2631C19.5258 19.2631 20.0028 15.5124 20.0215 15.3534L21.3965 15.5498C21.1954 17.3784 19.8111 20.8345 15.9995 20.8345Z" fill="white" style="fill:white;fill-opacity:1;"/>
</svg>
