<svg width="60" height="60" viewBox="0 0 60 60" fill="none" xmlns="http://www.w3.org/2000/svg">
<mask id="mask0_905_30625" style="mask-type:luminance" maskUnits="userSpaceOnUse" x="0" y="0" width="60" height="60">
<path d="M60 0H0V60H60V0Z" fill="white" style="fill:white;fill-opacity:1;"/>
</mask>
<g mask="url(#mask0_905_30625)">
<path opacity="0.5" d="M58.6987 38.536C58.8001 38.3493 58.8534 38.248 58.8534 38.248C61.771 32.4448 57.2479 26.5829 48.0471 24.9881C37.9235 23.2333 26.0025 27.207 22.3435 34.0929C22.3435 34.0929 22.2795 34.2103 22.1781 34.4343C22.0501 34.701 21.9328 34.9677 21.8368 35.2397C20.3006 39.0854 16.6683 51.8012 30.0082 59.9992C48.7992 52.9266 56.3625 42.3657 58.3147 39.1974C58.4534 38.9787 58.5814 38.76 58.704 38.536H58.6987Z" fill="#444444" style="fill:#444444;fill:color(display-p3 0.2667 0.2667 0.2667);fill-opacity:1;"/>
<path d="M10.1826 19.8164C10.1826 19.8164 10.2146 44.8106 30.003 59.996V37.1513L10.1826 19.8164Z" fill="#011740" style="fill:#011740;fill:color(display-p3 0.0039 0.0902 0.2510);fill-opacity:1;"/>
<path d="M49.8185 19.8164C49.8185 19.8164 49.7865 44.8106 29.998 59.996V39.6368V37.1513L49.8185 19.8164Z" fill="url(#paint0_linear_905_30625)" style=""/>
<path d="M29.9982 39.6369C40.9447 39.6369 49.8186 30.763 49.8186 19.8165C49.8186 8.87 40.9447 -0.00390625 29.9982 -0.00390625C19.0516 -0.00390625 10.1777 8.87 10.1777 19.8165C10.1777 30.763 19.0516 39.6369 29.9982 39.6369Z" fill="#011740" style="fill:#011740;fill:color(display-p3 0.0039 0.0902 0.2510);fill-opacity:1;"/>
<path d="M29.9978 38.0835C40.0871 38.0835 48.2661 29.9045 48.2661 19.8152C48.2661 9.72587 40.0871 1.54688 29.9978 1.54688C19.9085 1.54688 11.7295 9.72587 11.7295 19.8152C11.7295 29.9045 19.9085 38.0835 29.9978 38.0835Z" fill="white" style="fill:white;fill-opacity:1;"/>
<path d="M38.2653 23.7853C38.2653 26.8843 36.2812 29.3111 31.0914 29.3111H21.7412V10.3281H29.9766C35.4758 10.3281 37.2093 12.5043 37.2093 15.5499C37.2093 17.5021 35.8438 18.8729 35.4224 19.1769C37.2626 20.0997 38.2707 21.7478 38.2707 23.7853H38.2653ZM32.8462 16.1366C32.8462 14.8512 32.0088 14.2378 30.2486 14.2378H26.3123V18.2008H30.2486C32.2328 18.2008 32.8462 17.6141 32.8462 16.1366ZM30.558 21.6891H26.3123V25.3748H30.558C32.3982 25.3748 33.3209 24.7614 33.3209 23.5346C33.3209 22.1372 32.3715 21.6945 30.558 21.6945V21.6891Z" fill="#011740" style="fill:#011740;fill:color(display-p3 0.0039 0.0902 0.2510);fill-opacity:1;"/>
</g>
<defs>
<linearGradient id="paint0_linear_905_30625" x1="29.998" y1="39.9089" x2="49.8185" y2="39.9089" gradientUnits="userSpaceOnUse">
<stop stop-color="#011740" style="stop-color:#011740;stop-color:color(display-p3 0.0039 0.0902 0.2510);stop-opacity:1;"/>
<stop offset="1" style="stop-color:black;stop-opacity:1;"/>
</linearGradient>
</defs>
</svg>
