<svg width="32" height="34" viewBox="0 0 32 34" fill="none" xmlns="http://www.w3.org/2000/svg">
<path d="M6.65527 15.0594C6.65527 15.0594 6.6693 26.8401 15.9994 34.0002V23.2297L6.65527 15.0547V15.0594Z" fill="#4293D8" style="fill:#4293D8;fill:color(display-p3 0.2588 0.5765 0.8471);fill-opacity:1;"/>
<path d="M25.3442 15.0586C25.3442 15.0586 25.3301 26.8393 16 33.9994C16 27.7279 16 24.4027 16 24.4027V23.2336L25.3442 15.0586Z" fill="#4293D8" style="fill:#4293D8;fill:color(display-p3 0.2588 0.5765 0.8471);fill-opacity:1;"/>
<path d="M15.9996 30.1183C24.3165 30.1183 31.0587 23.3761 31.0587 15.0591C31.0587 6.74221 24.3165 0 15.9996 0C7.68264 0 0.94043 6.74221 0.94043 15.0591C0.94043 23.3761 7.68264 30.1183 15.9996 30.1183Z" fill="#4293D8" style="fill:#4293D8;fill:color(display-p3 0.2588 0.5765 0.8471);fill-opacity:1;"/>
<path d="M15.9997 28.9409C23.6658 28.9409 29.8803 22.7263 29.8803 15.0603C29.8803 7.39425 23.6658 1.17969 15.9997 1.17969C8.3337 1.17969 2.11914 7.39425 2.11914 15.0603C2.11914 22.7263 8.3337 28.9409 15.9997 28.9409Z" fill="#4293D8" style="fill:#4293D8;fill:color(display-p3 0.2588 0.5765 0.8471);fill-opacity:1;"/>
<path d="M19.1148 5.80859H12.89C9.77998 5.80859 8.37695 8.71286 8.37695 8.71286V19.0345C8.37695 20.7274 9.09249 21.284 9.55082 21.471V22.7571C9.55082 22.7571 9.55081 23.7019 10.8416 23.7019C12.1324 23.7019 12.1885 22.6636 12.1885 22.6636V21.5739H19.8116V22.6636C19.8116 22.6636 19.8677 23.7019 21.1585 23.7019C22.4493 23.7019 22.4493 22.7571 22.4493 22.7571V21.471C22.9076 21.284 23.6232 20.7274 23.6232 19.0345V8.71286C23.6232 8.71286 22.2248 5.80859 19.1101 5.80859H19.1148ZM11.6834 19.8529C10.8416 19.8529 10.1635 19.1701 10.1635 18.3329C10.1635 17.4958 10.8463 16.813 11.6834 16.813C12.5206 16.813 13.2034 17.4958 13.2034 18.3329C13.2034 19.1701 12.5206 19.8529 11.6834 19.8529ZM20.3167 19.8529C19.4749 19.8529 18.7968 19.1701 18.7968 18.3329C18.7968 17.4958 19.4796 16.813 20.3167 16.813C21.1538 16.813 21.8366 17.4958 21.8366 18.3329C21.8366 19.1701 21.1538 19.8529 20.3167 19.8529ZM21.8413 14.6149H10.1635V9.4284H21.8413V14.6149Z" fill="white" style="fill:white;fill-opacity:1;"/>
</svg>
