<svg width="15" height="15" viewBox="0 0 15 15" fill="none" xmlns="http://www.w3.org/2000/svg">
<path d="M14.0298 1.76538C14.3735 2.12712 14.5453 2.53407 14.5453 2.98624C14.5453 3.45649 14.3735 3.87249 14.0298 4.23422L5.32107 12.943C5.08594 13.1781 4.81464 13.3319 4.50717 13.4042C4.14543 13.4766 3.7023 13.576 3.17779 13.7026C2.67136 13.8112 2.21015 13.9106 1.79415 14.0011C1.39624 14.0734 1.18825 14.1186 1.17016 14.1367C1.15207 14.1367 1.12494 14.1367 1.08877 14.1367C0.944075 14.1367 0.835555 14.0825 0.763208 13.9739C0.672774 13.8654 0.636601 13.7479 0.654687 13.6212L1.41433 10.2842C1.48668 9.95868 1.64042 9.67833 1.87554 9.44321L10.5572 0.761566C10.9189 0.417918 11.3349 0.246094 11.8052 0.246094C12.2573 0.246094 12.6643 0.417918 13.026 0.761566L14.0298 1.76538ZM4.72421 12.319L11.4525 5.59073L9.20068 3.33893L2.49954 10.0401C2.37293 10.1667 2.29154 10.3114 2.25536 10.4742L1.6585 13.1329C2.05641 13.0425 2.50858 12.943 3.01501 12.8345C3.52144 12.726 3.95552 12.6355 4.31725 12.5632C4.46195 12.527 4.5976 12.4456 4.72421 12.319ZM13.433 3.61023C13.5958 3.42936 13.6771 3.22136 13.6771 2.98624C13.6771 2.7692 13.5958 2.57024 13.433 2.38937L12.402 1.35843C12.2393 1.19565 12.0403 1.11426 11.8052 1.11426C11.552 1.11426 11.344 1.19565 11.1812 1.35843L9.82467 2.71494L12.0765 4.96674L13.433 3.61023Z" fill="#181A20" style="fill:#181A20;fill:color(display-p3 0.0941 0.1020 0.1255);fill-opacity:1;"/>
</svg>
