<svg width="15" height="15" viewBox="0 0 15 15" fill="none" xmlns="http://www.w3.org/2000/svg">
<path d="M11.9092 9.26703C11.5047 9.26703 11.1158 9.36036 10.7425 9.54703C10.3692 9.73369 10.058 9.99814 9.80916 10.3404L5.51582 8.28703C5.64027 7.78925 5.64027 7.30703 5.51582 6.84036L9.90249 4.55369C10.3069 5.05147 10.8358 5.3548 11.4892 5.46369C12.1425 5.57258 12.7414 5.44814 13.2858 5.09036C13.8303 4.73258 14.1803 4.23481 14.3358 3.59703C14.4914 2.95925 14.4136 2.35258 14.1025 1.77703C13.7914 1.20147 13.3325 0.797028 12.7258 0.563694C12.1192 0.33036 11.5125 0.345916 10.9058 0.61036C10.2992 0.874804 9.85582 1.30258 9.57582 1.89369C9.29582 2.48481 9.24916 3.09147 9.43582 3.71369L5.04916 6.04703C4.70694 5.61147 4.27138 5.31592 3.74249 5.16036C3.2136 5.0048 2.69249 5.02036 2.17916 5.20703C1.66582 5.39369 1.2536 5.71258 0.942491 6.16369C0.63138 6.6148 0.483602 7.12036 0.499158 7.68036C0.514714 8.24036 0.685825 8.73814 1.01249 9.17369C1.33916 9.60925 1.75916 9.91258 2.27249 10.0837C2.78582 10.2548 3.30694 10.2548 3.83582 10.0837C4.36471 9.91258 4.80027 9.59369 5.14249 9.12703L9.43582 11.1804C9.28027 11.7092 9.3036 12.2304 9.50582 12.7437C9.70805 13.257 10.0347 13.6692 10.4858 13.9804C10.9369 14.2915 11.4425 14.4392 12.0025 14.4237C12.5625 14.4081 13.0603 14.2292 13.4958 13.887C13.9314 13.5448 14.2269 13.1092 14.3825 12.5804C14.538 12.0515 14.5225 11.5304 14.3358 11.017C14.1492 10.5037 13.838 10.0837 13.4025 9.75703C12.9669 9.43036 12.4692 9.26703 11.9092 9.26703ZM11.9092 1.33369C12.3447 1.33369 12.7258 1.49703 13.0525 1.82369C13.3792 2.15036 13.5425 2.53925 13.5425 2.99036C13.5425 3.44147 13.3792 3.82258 13.0525 4.13369C12.7258 4.44481 12.3369 4.60036 11.8858 4.60036C11.4347 4.60036 11.0536 4.44481 10.7425 4.13369C10.4314 3.82258 10.2758 3.44147 10.2758 2.99036C10.2758 2.53925 10.4314 2.15036 10.7425 1.82369C11.0536 1.49703 11.4425 1.33369 11.9092 1.33369ZM3.04249 9.26703C2.60694 9.26703 2.22582 9.11147 1.89916 8.80036C1.57249 8.48925 1.40916 8.10814 1.40916 7.65703C1.40916 7.20592 1.56471 6.81703 1.87582 6.49036C2.18694 6.16369 2.56805 6.00036 3.01916 6.00036C3.47027 6.00036 3.85916 6.15592 4.18582 6.46703C4.51249 6.77814 4.67582 7.15925 4.67582 7.61036C4.67582 8.06147 4.52027 8.45036 4.20916 8.77703C3.89805 9.10369 3.50916 9.26703 3.04249 9.26703ZM11.9092 13.467C11.4736 13.467 11.0925 13.3115 10.7658 13.0004C10.4392 12.6892 10.2758 12.3081 10.2758 11.857C10.2758 11.4059 10.4392 11.017 10.7658 10.6904C11.0925 10.3637 11.4814 10.2004 11.9325 10.2004C12.3836 10.2004 12.7647 10.3637 13.0758 10.6904C13.3869 11.017 13.5425 11.4059 13.5425 11.857C13.5425 12.3081 13.3792 12.6892 13.0525 13.0004C12.7258 13.3115 12.3447 13.467 11.9092 13.467Z" fill="#06173D" style="fill:#06173D;fill:color(display-p3 0.0235 0.0902 0.2392);fill-opacity:1;"/>
<path d="M11.9092 9.26703C11.5047 9.26703 11.1158 9.36036 10.7425 9.54703C10.3692 9.73369 10.058 9.99814 9.80916 10.3404L5.51582 8.28703C5.64027 7.78925 5.64027 7.30703 5.51582 6.84036L9.90249 4.55369C10.3069 5.05147 10.8358 5.3548 11.4892 5.46369C12.1425 5.57258 12.7414 5.44814 13.2858 5.09036C13.8303 4.73258 14.1803 4.23481 14.3358 3.59703C14.4914 2.95925 14.4136 2.35258 14.1025 1.77703C13.7914 1.20147 13.3325 0.797028 12.7258 0.563694C12.1192 0.33036 11.5125 0.345916 10.9058 0.61036C10.2992 0.874804 9.85582 1.30258 9.57582 1.89369C9.29582 2.48481 9.24916 3.09147 9.43582 3.71369L5.04916 6.04703C4.70694 5.61147 4.27138 5.31592 3.74249 5.16036C3.2136 5.0048 2.69249 5.02036 2.17916 5.20703C1.66582 5.39369 1.2536 5.71258 0.942491 6.16369C0.63138 6.6148 0.483602 7.12036 0.499158 7.68036C0.514714 8.24036 0.685825 8.73814 1.01249 9.17369C1.33916 9.60925 1.75916 9.91258 2.27249 10.0837C2.78582 10.2548 3.30694 10.2548 3.83582 10.0837C4.36471 9.91258 4.80027 9.59369 5.14249 9.12703L9.43582 11.1804C9.28027 11.7092 9.3036 12.2304 9.50582 12.7437C9.70805 13.257 10.0347 13.6692 10.4858 13.9804C10.9369 14.2915 11.4425 14.4392 12.0025 14.4237C12.5625 14.4081 13.0603 14.2292 13.4958 13.887C13.9314 13.5448 14.2269 13.1092 14.3825 12.5804C14.538 12.0515 14.5225 11.5304 14.3358 11.017C14.1492 10.5037 13.838 10.0837 13.4025 9.75703C12.9669 9.43036 12.4692 9.26703 11.9092 9.26703ZM11.9092 1.33369C12.3447 1.33369 12.7258 1.49703 13.0525 1.82369C13.3792 2.15036 13.5425 2.53925 13.5425 2.99036C13.5425 3.44147 13.3792 3.82258 13.0525 4.13369C12.7258 4.44481 12.3369 4.60036 11.8858 4.60036C11.4347 4.60036 11.0536 4.44481 10.7425 4.13369C10.4314 3.82258 10.2758 3.44147 10.2758 2.99036C10.2758 2.53925 10.4314 2.15036 10.7425 1.82369C11.0536 1.49703 11.4425 1.33369 11.9092 1.33369ZM3.04249 9.26703C2.60694 9.26703 2.22582 9.11147 1.89916 8.80036C1.57249 8.48925 1.40916 8.10814 1.40916 7.65703C1.40916 7.20592 1.56471 6.81703 1.87582 6.49036C2.18694 6.16369 2.56805 6.00036 3.01916 6.00036C3.47027 6.00036 3.85916 6.15592 4.18582 6.46703C4.51249 6.77814 4.67582 7.15925 4.67582 7.61036C4.67582 8.06147 4.52027 8.45036 4.20916 8.77703C3.89805 9.10369 3.50916 9.26703 3.04249 9.26703ZM11.9092 13.467C11.4736 13.467 11.0925 13.3115 10.7658 13.0004C10.4392 12.6892 10.2758 12.3081 10.2758 11.857C10.2758 11.4059 10.4392 11.017 10.7658 10.6904C11.0925 10.3637 11.4814 10.2004 11.9325 10.2004C12.3836 10.2004 12.7647 10.3637 13.0758 10.6904C13.3869 11.017 13.5425 11.4059 13.5425 11.857C13.5425 12.3081 13.3792 12.6892 13.0525 13.0004C12.7258 13.3115 12.3447 13.467 11.9092 13.467Z" fill="black" fill-opacity="0.2" style="fill:black;fill-opacity:0.2;"/>
</svg>
