<svg width="17" height="19" viewBox="0 0 17 19" fill="none" xmlns="http://www.w3.org/2000/svg">
<path d="M1.85586 16.4629V4.65039H15.3559V16.4629C15.3559 17.4121 14.5824 18.1504 13.6684 18.1504H3.54336C2.59414 18.1504 1.85586 17.4121 1.85586 16.4629ZM11.4184 7.46289V15.3379C11.4184 15.6543 11.6645 15.9004 11.9809 15.9004C12.2621 15.9004 12.5434 15.6543 12.5434 15.3379V7.46289C12.5434 7.18164 12.2621 6.90039 11.9809 6.90039C11.6645 6.90039 11.4184 7.18164 11.4184 7.46289ZM8.04336 7.46289V15.3379C8.04336 15.6543 8.28945 15.9004 8.60586 15.9004C8.88711 15.9004 9.16836 15.6543 9.16836 15.3379V7.46289C9.16836 7.18164 8.88711 6.90039 8.60586 6.90039C8.28945 6.90039 8.04336 7.18164 8.04336 7.46289ZM4.66836 7.46289V15.3379C4.66836 15.6543 4.91445 15.9004 5.23086 15.9004C5.51211 15.9004 5.79336 15.6543 5.79336 15.3379V7.46289C5.79336 7.18164 5.51211 6.90039 5.23086 6.90039C4.91445 6.90039 4.66836 7.18164 4.66836 7.46289ZM15.9184 1.27539C16.1996 1.27539 16.4809 1.55664 16.4809 1.83789V2.96289C16.4809 3.2793 16.1996 3.52539 15.9184 3.52539H1.29336C0.976953 3.52539 0.730859 3.2793 0.730859 2.96289V1.83789C0.730859 1.55664 0.976953 1.27539 1.29336 1.27539H5.51211L5.82852 0.642578C5.96914 0.361328 6.25039 0.150391 6.5668 0.150391H10.6098C10.9262 0.150391 11.2074 0.361328 11.348 0.642578L11.6996 1.27539H15.9184Z" fill="#06173D" style="fill:#06173D;fill:color(display-p3 0.0235 0.0902 0.2392);fill-opacity:1;"/>
<path d="M1.85586 16.4629V4.65039H15.3559V16.4629C15.3559 17.4121 14.5824 18.1504 13.6684 18.1504H3.54336C2.59414 18.1504 1.85586 17.4121 1.85586 16.4629ZM11.4184 7.46289V15.3379C11.4184 15.6543 11.6645 15.9004 11.9809 15.9004C12.2621 15.9004 12.5434 15.6543 12.5434 15.3379V7.46289C12.5434 7.18164 12.2621 6.90039 11.9809 6.90039C11.6645 6.90039 11.4184 7.18164 11.4184 7.46289ZM8.04336 7.46289V15.3379C8.04336 15.6543 8.28945 15.9004 8.60586 15.9004C8.88711 15.9004 9.16836 15.6543 9.16836 15.3379V7.46289C9.16836 7.18164 8.88711 6.90039 8.60586 6.90039C8.28945 6.90039 8.04336 7.18164 8.04336 7.46289ZM4.66836 7.46289V15.3379C4.66836 15.6543 4.91445 15.9004 5.23086 15.9004C5.51211 15.9004 5.79336 15.6543 5.79336 15.3379V7.46289C5.79336 7.18164 5.51211 6.90039 5.23086 6.90039C4.91445 6.90039 4.66836 7.18164 4.66836 7.46289ZM15.9184 1.27539C16.1996 1.27539 16.4809 1.55664 16.4809 1.83789V2.96289C16.4809 3.2793 16.1996 3.52539 15.9184 3.52539H1.29336C0.976953 3.52539 0.730859 3.2793 0.730859 2.96289V1.83789C0.730859 1.55664 0.976953 1.27539 1.29336 1.27539H5.51211L5.82852 0.642578C5.96914 0.361328 6.25039 0.150391 6.5668 0.150391H10.6098C10.9262 0.150391 11.2074 0.361328 11.348 0.642578L11.6996 1.27539H15.9184Z" fill="black" fill-opacity="0.2" style="fill:black;fill-opacity:0.2;"/>
</svg>
