<svg width="14" height="14" viewBox="0 0 14 14" fill="none" xmlns="http://www.w3.org/2000/svg">
<path d="M13.0533 1.76706H9.78667V1.30039C9.78667 0.927057 9.64667 0.60039 9.36667 0.320391C9.08667 0.040391 8.76 -0.0996094 8.38667 -0.0996094H5.58667C5.21333 -0.0996094 4.88667 0.040391 4.60667 0.320391C4.32667 0.60039 4.18667 0.927057 4.18667 1.30039V1.76706H0.92C0.795556 1.76706 0.694444 1.81372 0.616667 1.90706C0.538889 2.00039 0.5 2.10928 0.5 2.23372C0.5 2.35817 0.538889 2.46706 0.616667 2.56039C0.694444 2.65372 0.795556 2.70039 0.92 2.70039H13.0533C13.1778 2.70039 13.2789 2.65372 13.3567 2.56039C13.4344 2.46706 13.4733 2.35817 13.4733 2.23372C13.4733 2.10928 13.4344 2.00039 13.3567 1.90706C13.2789 1.81372 13.1778 1.76706 13.0533 1.76706ZM5.12 1.30039C5.12 1.17595 5.16667 1.06706 5.26 0.973724C5.35333 0.88039 5.46222 0.833724 5.58667 0.833724H8.38667C8.51111 0.833724 8.62 0.88039 8.71333 0.973724C8.80667 1.06706 8.85333 1.17595 8.85333 1.30039V1.76706H5.12V1.30039ZM11.7 3.63372C11.5444 3.63372 11.42 3.67261 11.3267 3.75039C11.2333 3.82817 11.1867 3.92928 11.1867 4.05372L10.8133 11.6137C10.7822 11.9871 10.6344 12.2982 10.37 12.5471C10.1056 12.7959 9.78667 12.9204 9.41333 12.9204H4.56C4.18667 12.9204 3.86778 12.7959 3.60333 12.5471C3.33889 12.2982 3.19111 11.9871 3.16 11.6137L2.78667 4.10039C2.78667 3.88261 2.70111 3.72706 2.53 3.63372C2.35889 3.54039 2.19556 3.54817 2.04 3.65706C1.88444 3.76595 1.82222 3.92928 1.85333 4.14706L2.22667 11.7071C2.25778 12.3293 2.49889 12.8504 2.95 13.2704C3.40111 13.6904 3.93778 13.9004 4.56 13.9004H9.41333C10.0356 13.9004 10.5722 13.6826 11.0233 13.2471C11.4744 12.8115 11.7156 12.2826 11.7467 11.6604L12.12 4.10039C12.12 3.97595 12.0811 3.86706 12.0033 3.77372C11.9256 3.68039 11.8089 3.63372 11.6533 3.63372H11.7ZM7.45333 10.1671V5.50039C7.45333 5.37595 7.40667 5.27483 7.31333 5.19706C7.22 5.11928 7.11111 5.08039 6.98667 5.08039C6.86222 5.08039 6.75333 5.11928 6.66 5.19706C6.56667 5.27483 6.52 5.37595 6.52 5.50039V10.1671C6.52 10.2915 6.56667 10.3926 6.66 10.4704C6.75333 10.5482 6.86222 10.5871 6.98667 10.5871C7.11111 10.5871 7.22 10.5482 7.31333 10.4704C7.40667 10.3926 7.45333 10.2915 7.45333 10.1671ZM9.32 9.23372V6.43372C9.32 6.30928 9.27333 6.20817 9.18 6.13039C9.08667 6.05261 8.97778 6.01372 8.85333 6.01372C8.72889 6.01372 8.62 6.05261 8.52667 6.13039C8.43333 6.20817 8.38667 6.30928 8.38667 6.43372V9.23372C8.35556 9.42039 8.42556 9.56817 8.59667 9.67706C8.76778 9.78595 8.93889 9.78595 9.11 9.67706C9.28111 9.56817 9.35111 9.42039 9.32 9.23372ZM5.58667 9.23372V6.43372C5.58667 6.30928 5.54 6.20817 5.44667 6.13039C5.35333 6.05261 5.24444 6.01372 5.12 6.01372C4.99556 6.01372 4.88667 6.05261 4.79333 6.13039C4.7 6.20817 4.65333 6.30928 4.65333 6.43372V9.23372C4.62222 9.42039 4.69222 9.56817 4.86333 9.67706C5.03444 9.78595 5.20556 9.78595 5.37667 9.67706C5.54778 9.56817 5.61778 9.42039 5.58667 9.23372Z" fill="#181A20" style="fill:#181A20;fill:color(display-p3 0.0941 0.1020 0.1255);fill-opacity:1;"/>
</svg>
