<svg width="18" height="18" viewBox="0 0 18 18" fill="none" xmlns="http://www.w3.org/2000/svg">
<path d="M17.2667 5.26575C16.9111 4.9102 16.4889 4.73242 16 4.73242H13V1.73242C13 1.24353 12.8333 0.83242 12.5 0.499088C12.1667 0.165754 11.7556 -0.000911713 11.2667 -0.000911713H1.73333C1.24444 -0.000911713 0.833333 0.165754 0.5 0.499088C0.166667 0.83242 0 1.24353 0 1.73242V11.2658C0 11.7546 0.166667 12.1658 0.5 12.4991C0.833333 12.8324 1.24444 12.9991 1.73333 12.9991H4.73333V15.9991C4.73333 16.488 4.9 16.8991 5.23333 17.2324C5.56667 17.5658 5.97778 17.7324 6.46667 17.7324H16C16.4889 17.7324 16.9 17.5658 17.2333 17.2324C17.5667 16.8991 17.7333 16.488 17.7333 15.9991V6.46575C17.7333 5.97687 17.5778 5.57687 17.2667 5.26575ZM1.73333 11.7991C1.6 11.7991 1.47778 11.7435 1.36667 11.6324C1.25556 11.5213 1.2 11.3769 1.2 11.1991V1.73242C1.2 1.59909 1.25556 1.46575 1.36667 1.33242C1.47778 1.19909 1.6 1.13242 1.73333 1.13242H11.2667C11.4 1.13242 11.5222 1.19909 11.6333 1.33242C11.7444 1.46575 11.8 1.59909 11.8 1.73242V4.73242H6.53333C6 4.73242 5.56667 4.89909 5.23333 5.23242C4.9 5.56575 4.73333 5.97687 4.73333 6.46575V11.7991H1.73333ZM16.6 15.9991C16.6 16.1324 16.5333 16.2546 16.4 16.3658C16.2667 16.4769 16.1333 16.5546 16 16.5991H6.53333C6.35556 16.5546 6.21111 16.4769 6.1 16.3658C5.98889 16.2546 5.93333 16.1324 5.93333 15.9991V6.46575C5.93333 6.33242 5.98889 6.2102 6.1 6.09909C6.21111 5.98798 6.35556 5.93242 6.53333 5.93242H16C16.1333 5.93242 16.2667 5.98798 16.4 6.09909C16.5333 6.2102 16.6 6.35464 16.6 6.53242V15.9991ZM11.8 8.86576H10.6667V10.6658H8.86667V11.7991H10.6667V13.5991H11.8V11.7991H13.6V10.6658H11.8V8.86576Z" fill="#06173D" style="fill:#06173D;fill:color(display-p3 0.0235 0.0902 0.2392);fill-opacity:1;"/>
<path d="M17.2667 5.26575C16.9111 4.9102 16.4889 4.73242 16 4.73242H13V1.73242C13 1.24353 12.8333 0.83242 12.5 0.499088C12.1667 0.165754 11.7556 -0.000911713 11.2667 -0.000911713H1.73333C1.24444 -0.000911713 0.833333 0.165754 0.5 0.499088C0.166667 0.83242 0 1.24353 0 1.73242V11.2658C0 11.7546 0.166667 12.1658 0.5 12.4991C0.833333 12.8324 1.24444 12.9991 1.73333 12.9991H4.73333V15.9991C4.73333 16.488 4.9 16.8991 5.23333 17.2324C5.56667 17.5658 5.97778 17.7324 6.46667 17.7324H16C16.4889 17.7324 16.9 17.5658 17.2333 17.2324C17.5667 16.8991 17.7333 16.488 17.7333 15.9991V6.46575C17.7333 5.97687 17.5778 5.57687 17.2667 5.26575ZM1.73333 11.7991C1.6 11.7991 1.47778 11.7435 1.36667 11.6324C1.25556 11.5213 1.2 11.3769 1.2 11.1991V1.73242C1.2 1.59909 1.25556 1.46575 1.36667 1.33242C1.47778 1.19909 1.6 1.13242 1.73333 1.13242H11.2667C11.4 1.13242 11.5222 1.19909 11.6333 1.33242C11.7444 1.46575 11.8 1.59909 11.8 1.73242V4.73242H6.53333C6 4.73242 5.56667 4.89909 5.23333 5.23242C4.9 5.56575 4.73333 5.97687 4.73333 6.46575V11.7991H1.73333ZM16.6 15.9991C16.6 16.1324 16.5333 16.2546 16.4 16.3658C16.2667 16.4769 16.1333 16.5546 16 16.5991H6.53333C6.35556 16.5546 6.21111 16.4769 6.1 16.3658C5.98889 16.2546 5.93333 16.1324 5.93333 15.9991V6.46575C5.93333 6.33242 5.98889 6.2102 6.1 6.09909C6.21111 5.98798 6.35556 5.93242 6.53333 5.93242H16C16.1333 5.93242 16.2667 5.98798 16.4 6.09909C16.5333 6.2102 16.6 6.35464 16.6 6.53242V15.9991ZM11.8 8.86576H10.6667V10.6658H8.86667V11.7991H10.6667V13.5991H11.8V11.7991H13.6V10.6658H11.8V8.86576Z" fill="black" fill-opacity="0.2" style="fill:black;fill-opacity:0.2;"/>
</svg>
