<svg width="21" height="18" viewBox="0 0 21 18" fill="none" xmlns="http://www.w3.org/2000/svg">
<path d="M10.1166 18C9.66694 18 9.25104 17.9112 8.86886 17.7336C8.48668 17.556 8.1607 17.2895 7.89092 16.9343L1.61865 9.34135C0.854288 8.58649 0.3597 7.70953 0.134888 6.71045C-0.0899251 5.71138 -0.0337219 4.7234 0.303497 3.74653C0.640716 2.76966 1.21399 1.9482 2.02331 1.28215C2.83264 0.616096 3.75437 0.216467 4.78851 0.0832558C5.82265 -0.0499535 6.82306 0.0943565 7.78976 0.51619C8.75645 0.938021 9.53206 1.57077 10.1166 2.41443C10.2964 2.14801 10.5212 1.88159 10.791 1.61517C11.5104 0.904718 12.3422 0.427382 13.2864 0.183165C14.2306 -0.0610542 15.1749 -0.0610542 16.1191 0.183165C17.0633 0.427382 17.8951 0.893618 18.6145 1.58187C19.3339 2.27012 19.8172 3.09158 20.0645 4.04625C20.3118 5.00093 20.3118 5.9445 20.0645 6.87697C19.8172 7.80944 19.3339 8.6309 18.6145 9.34135L12.3422 16.9343C12.0724 17.2895 11.7465 17.556 11.3643 17.7336C10.9821 17.9112 10.5662 18 10.1166 18ZM5.53039 1.34875C4.6761 1.34875 3.9005 1.58187 3.20358 2.0481C2.50666 2.51434 2.00083 3.13599 1.68609 3.91304C1.37136 4.6901 1.29267 5.47826 1.45004 6.27752C1.60741 7.07678 1.97835 7.78723 2.56286 8.40888L8.97003 16.0685C9.2398 16.4237 9.61074 16.6013 10.0828 16.6013C10.555 16.6013 10.9484 16.4237 11.2631 16.0685L17.6703 8.40888C18.2548 7.78723 18.637 7.05458 18.8168 6.21092C18.9967 5.36725 18.9067 4.55689 18.547 3.77983C18.1873 3.00278 17.6478 2.39223 16.9284 1.9482C16.209 1.50416 15.4109 1.29325 14.5341 1.31545C13.6574 1.33765 12.8818 1.60407 12.2073 2.11471C11.5329 2.62535 11.0383 3.2803 10.7236 4.07956C10.6786 4.21277 10.5999 4.32377 10.4875 4.41258C10.3751 4.50139 10.2515 4.54579 10.1166 4.54579C9.98168 4.54579 9.85804 4.50139 9.74563 4.41258C9.63322 4.32377 9.55454 4.21277 9.50957 4.07956C9.19484 3.2803 8.67777 2.62535 7.95837 2.11471C7.23897 1.60407 6.42964 1.34875 5.53039 1.34875Z" fill="#06173D" style="fill:#06173D;fill:color(display-p3 0.0235 0.0902 0.2392);fill-opacity:1;"/>
<path d="M10.1166 18C9.66694 18 9.25104 17.9112 8.86886 17.7336C8.48668 17.556 8.1607 17.2895 7.89092 16.9343L1.61865 9.34135C0.854288 8.58649 0.3597 7.70953 0.134888 6.71045C-0.0899251 5.71138 -0.0337219 4.7234 0.303497 3.74653C0.640716 2.76966 1.21399 1.9482 2.02331 1.28215C2.83264 0.616096 3.75437 0.216467 4.78851 0.0832558C5.82265 -0.0499535 6.82306 0.0943565 7.78976 0.51619C8.75645 0.938021 9.53206 1.57077 10.1166 2.41443C10.2964 2.14801 10.5212 1.88159 10.791 1.61517C11.5104 0.904718 12.3422 0.427382 13.2864 0.183165C14.2306 -0.0610542 15.1749 -0.0610542 16.1191 0.183165C17.0633 0.427382 17.8951 0.893618 18.6145 1.58187C19.3339 2.27012 19.8172 3.09158 20.0645 4.04625C20.3118 5.00093 20.3118 5.9445 20.0645 6.87697C19.8172 7.80944 19.3339 8.6309 18.6145 9.34135L12.3422 16.9343C12.0724 17.2895 11.7465 17.556 11.3643 17.7336C10.9821 17.9112 10.5662 18 10.1166 18ZM5.53039 1.34875C4.6761 1.34875 3.9005 1.58187 3.20358 2.0481C2.50666 2.51434 2.00083 3.13599 1.68609 3.91304C1.37136 4.6901 1.29267 5.47826 1.45004 6.27752C1.60741 7.07678 1.97835 7.78723 2.56286 8.40888L8.97003 16.0685C9.2398 16.4237 9.61074 16.6013 10.0828 16.6013C10.555 16.6013 10.9484 16.4237 11.2631 16.0685L17.6703 8.40888C18.2548 7.78723 18.637 7.05458 18.8168 6.21092C18.9967 5.36725 18.9067 4.55689 18.547 3.77983C18.1873 3.00278 17.6478 2.39223 16.9284 1.9482C16.209 1.50416 15.4109 1.29325 14.5341 1.31545C13.6574 1.33765 12.8818 1.60407 12.2073 2.11471C11.5329 2.62535 11.0383 3.2803 10.7236 4.07956C10.6786 4.21277 10.5999 4.32377 10.4875 4.41258C10.3751 4.50139 10.2515 4.54579 10.1166 4.54579C9.98168 4.54579 9.85804 4.50139 9.74563 4.41258C9.63322 4.32377 9.55454 4.21277 9.50957 4.07956C9.19484 3.2803 8.67777 2.62535 7.95837 2.11471C7.23897 1.60407 6.42964 1.34875 5.53039 1.34875Z" fill="black" fill-opacity="0.2" style="fill:black;fill-opacity:0.2;"/>
</svg>
