<svg width="18" height="19" viewBox="0 0 18 19" fill="none" xmlns="http://www.w3.org/2000/svg">
<path d="M16.5333 2.08245C16.1333 1.68244 15.6778 1.38245 15.1667 1.18245C14.6556 0.982445 14.1333 0.882446 13.6 0.882446H4.13333C3.6 0.882446 3.07778 0.982445 2.56667 1.18245C2.05556 1.38245 1.6 1.68244 1.2 2.08245C0.8 2.48244 0.5 2.938 0.3 3.44911C0.1 3.96022 0 4.48244 0 5.01578V16.8824C0 17.238 0.111111 17.5713 0.333333 17.8824C0.555556 18.1936 0.844444 18.4158 1.2 18.5491C1.55556 18.6824 1.92222 18.6936 2.3 18.5824C2.67778 18.4713 2.97778 18.2602 3.2 17.9491L3.86667 16.9491C4.22222 16.5047 4.68889 16.2824 5.26667 16.2824H13.6C14.3556 16.2824 15.0444 16.0936 15.6667 15.7158C16.2889 15.338 16.7889 14.8269 17.1667 14.1824C17.5444 13.538 17.7333 12.8602 17.7333 12.1491V5.01578C17.7333 4.48244 17.6333 3.96022 17.4333 3.44911C17.2333 2.938 16.9333 2.48244 16.5333 2.08245ZM16.6 12.1491C16.5556 12.9491 16.2444 13.638 15.6667 14.2158C15.0889 14.7936 14.4 15.0824 13.6 15.0824H5.33333C4.84444 15.0824 4.38889 15.1824 3.96667 15.3824C3.54444 15.5824 3.2 15.8824 2.93333 16.2824L2.2 17.2158C2.15556 17.3047 2.06667 17.3713 1.93333 17.4158C1.8 17.4602 1.67778 17.4602 1.56667 17.4158C1.45556 17.3713 1.35556 17.3047 1.26667 17.2158C1.17778 17.1269 1.13333 17.0158 1.13333 16.8824V5.01578C1.13333 4.17133 1.42222 3.46022 2 2.88244C2.57778 2.30467 3.28889 2.01578 4.13333 2.01578H13.6C14.4 2.01578 15.1 2.30467 15.7 2.88244C16.3 3.46022 16.6 4.17133 16.6 5.01578V12.1491ZM5.26667 4.41578L5.73333 4.94911L6.4 5.21578L6 5.81578L5.93333 6.54911L5.26667 6.34911L4.53333 6.54911V5.81578L4.13333 5.21578L4.8 4.94911L5.26667 4.41578ZM8.2 4.41578L8.66667 4.94911L9.33333 5.21578L8.93333 5.81578V6.54911L8.2 6.34911L7.53333 6.54911L7.46667 5.81578L7.06667 5.21578L7.73333 4.94911L8.2 4.41578ZM11.2 4.41578L11.6667 4.94911L12.3333 5.21578L11.9333 5.81578L11.8667 6.54911L11.2 6.34911L10.4667 6.54911V5.81578L10.0667 5.21578L10.7333 4.94911L11.2 4.41578ZM4.13333 11.5491H8.86667V12.6824H4.13333V11.5491ZM4.13333 8.54911H14.2V9.74911H4.13333V8.54911Z" fill="#06173D" style="fill:#06173D;fill:color(display-p3 0.0235 0.0902 0.2392);fill-opacity:1;"/>
<path d="M16.5333 2.08245C16.1333 1.68244 15.6778 1.38245 15.1667 1.18245C14.6556 0.982445 14.1333 0.882446 13.6 0.882446H4.13333C3.6 0.882446 3.07778 0.982445 2.56667 1.18245C2.05556 1.38245 1.6 1.68244 1.2 2.08245C0.8 2.48244 0.5 2.938 0.3 3.44911C0.1 3.96022 0 4.48244 0 5.01578V16.8824C0 17.238 0.111111 17.5713 0.333333 17.8824C0.555556 18.1936 0.844444 18.4158 1.2 18.5491C1.55556 18.6824 1.92222 18.6936 2.3 18.5824C2.67778 18.4713 2.97778 18.2602 3.2 17.9491L3.86667 16.9491C4.22222 16.5047 4.68889 16.2824 5.26667 16.2824H13.6C14.3556 16.2824 15.0444 16.0936 15.6667 15.7158C16.2889 15.338 16.7889 14.8269 17.1667 14.1824C17.5444 13.538 17.7333 12.8602 17.7333 12.1491V5.01578C17.7333 4.48244 17.6333 3.96022 17.4333 3.44911C17.2333 2.938 16.9333 2.48244 16.5333 2.08245ZM16.6 12.1491C16.5556 12.9491 16.2444 13.638 15.6667 14.2158C15.0889 14.7936 14.4 15.0824 13.6 15.0824H5.33333C4.84444 15.0824 4.38889 15.1824 3.96667 15.3824C3.54444 15.5824 3.2 15.8824 2.93333 16.2824L2.2 17.2158C2.15556 17.3047 2.06667 17.3713 1.93333 17.4158C1.8 17.4602 1.67778 17.4602 1.56667 17.4158C1.45556 17.3713 1.35556 17.3047 1.26667 17.2158C1.17778 17.1269 1.13333 17.0158 1.13333 16.8824V5.01578C1.13333 4.17133 1.42222 3.46022 2 2.88244C2.57778 2.30467 3.28889 2.01578 4.13333 2.01578H13.6C14.4 2.01578 15.1 2.30467 15.7 2.88244C16.3 3.46022 16.6 4.17133 16.6 5.01578V12.1491ZM5.26667 4.41578L5.73333 4.94911L6.4 5.21578L6 5.81578L5.93333 6.54911L5.26667 6.34911L4.53333 6.54911V5.81578L4.13333 5.21578L4.8 4.94911L5.26667 4.41578ZM8.2 4.41578L8.66667 4.94911L9.33333 5.21578L8.93333 5.81578V6.54911L8.2 6.34911L7.53333 6.54911L7.46667 5.81578L7.06667 5.21578L7.73333 4.94911L8.2 4.41578ZM11.2 4.41578L11.6667 4.94911L12.3333 5.21578L11.9333 5.81578L11.8667 6.54911L11.2 6.34911L10.4667 6.54911V5.81578L10.0667 5.21578L10.7333 4.94911L11.2 4.41578ZM4.13333 11.5491H8.86667V12.6824H4.13333V11.5491ZM4.13333 8.54911H14.2V9.74911H4.13333V8.54911Z" fill="black" fill-opacity="0.2" style="fill:black;fill-opacity:0.2;"/>
</svg>
